<svg width="2348pt" height="3874pt" viewBox="0 0 2348 3874" xmlns="http://www.w3.org/2000/svg"><g class="graph"><path fill="#fff" stroke="#fff" d="M0 3875V0h2349v3875H0z"/><g class="node"><path fill="wheat" stroke="#000" d="M201 3240H5v36h196v-36z"/><text text-anchor="middle" x="99" y="-607.6" font-family="Times Roman,serif" font-size="16" fill="#00f" transform="translate(4 3870)">HI_MPI_AVPLAY_Create</text></g><g class="node"><path fill="wheat" stroke="#000" d="M1924 2068h-140v36h140v-36z"/><text text-anchor="middle" x="1850" y="-1779.6" font-family="Times Roman,serif" font-size="16" fill="#00f" transform="translate(4 3870)">HI_ERR_AVPLAY</text></g><g class="edge" stroke="#000"><path fill="none" d="M107.29 3239.978C134.26 3131.583 290.676 2571 641 2571h278c195.29 0 279.02 93.01 439-19 34.28-24 2.73-61.61 36-87 99-75.55 190.48 53.59 278-35 99.65-100.87-60.71-213.3 36-317 16.84-18.06 41.52-26.38 65.82-29.73"/><path d="M1773.49 2079.78l10.33 2.38-9.55 4.58-.78-6.96z"/></g><g class="node"><path fill="wheat" stroke="#000" d="M435 3132H285v36h150v-36z"/><text text-anchor="middle" x="356" y="-715.6" font-family="Times Roman,serif" font-size="16" fill="#00f" transform="translate(4 3870)">HI_AVPLAY_LOCK</text></g><g class="edge" stroke="#000"><path fill="none" d="M127.6 3239.886c26.131-18.415 69.265-46.499 110.4-62.886 11.688-4.656 24.341-8.588 36.923-11.886"/><path d="M274.429 3161.63l10.55.974-8.855 5.818-1.695-6.792z"/></g><g class="node"><path fill="wheat" stroke="#000" d="M446 3186H274v36h172v-36z"/><text text-anchor="middle" x="356" y="-661.6" font-family="Times Roman,serif" font-size="16" fill="#00f" transform="translate(4 3870)">HI_AVPLAY_UNLOCK</text></g><g class="edge" stroke="#000"><path fill="none" d="M188.935 3239.944l75.129-15.786"/><path d="M263.64 3220.67l10.506 1.369-9.066 5.482-1.44-6.851z"/></g><g class="node"><path fill="wheat" stroke="#000" d="M1560 1248h-54v36h54v-36z"/><text text-anchor="middle" x="1529" y="-2599.6" font-family="Times Roman,serif" font-size="16" fill="#00f" transform="translate(4 3870)">ioctl</text></g><g class="edge" stroke="#000"><path fill="none" d="M104.15 3239.839C111.076 3134.99 149.936 2607.15 238 2475c117.669-176.58 190.806-256 403-256h278c199.63 0 310.32 57.62 439-95 59.57-70.66-24.32-760.98 36-831 24.58-28.53 69.51-32.58 101.64-31.24"/><path d="M1496.23 1258.29l9.77 4.11-10.2 2.88.43-6.99z"/></g><g class="node"><path fill="wheat" stroke="#000" d="M404 3240h-88v36h88v-36z"/><text text-anchor="middle" x="356" y="-607.6" font-family="Times Roman,serif" font-size="16" fill="#00f" transform="translate(4 3870)">HI_MMAP</text></g><g class="edge" stroke="#000"><path fill="none" d="M201.628 3258h103.397"/><path d="M305.317 3254.5l10 3.5-10 3.5v-7z"/></g><g class="node"><path fill="wheat" stroke="#000" d="M1927 704h-146v36h146v-36z"/><text text-anchor="middle" x="1850" y="-3143.6" font-family="Times Roman,serif" font-size="16" fill="#00f" transform="translate(4 3870)">HI_INFO_AVPLAY</text></g><g class="edge" stroke="#000"><path fill="none" d="M103.459 3239.92C108.63 3039.139 157.339 1229.44 238 1007c102.817-283.54 101.391-546 403-546h278c195.29 0 284.16-100.02 439 19 42.46 32.64-4.72 80.21 36 115 94.96 81.12 173.85-27.93 278 41 25.62 16.95 10.7 41.58 36 59 18.32 12.61 40.88 19.79 62.73 23.76"/><path d="M1771.39 715.32l9.32 5.05-10.43 1.86 1.11-6.91z"/></g><g class="node"><path fill="wheat" stroke="#000" d="M413 3294H307v36h106v-36z"/><text text-anchor="middle" x="356" y="-553.6" font-family="Times Roman,serif" font-size="16" fill="#00f" transform="translate(4 3870)">HI_MALLOC</text></g><g class="edge" stroke="#000"><path fill="none" d="M188.935 3276.056l107.605 22.61"/><path d="M297.291 3295.247l9.067 5.482-10.506 1.369 1.439-6.851z"/></g><g class="node"><path fill="wheat" stroke="#000" d="M445 3348H275v36h170v-36z"/><text text-anchor="middle" x="356" y="-499.6" font-family="Times Roman,serif" font-size="16" fill="#00f" transform="translate(4 3870)">pthread_mutex_init</text></g><g class="edge" stroke="#000"><path fill="none" d="M127.6 3276.114c26.131 18.415 69.265 46.499 110.4 62.886 8.436 3.361 17.375 6.344 26.427 8.984"/><path d="M265.574 3344.67l8.701 6.045-10.572.7 1.871-6.745z"/></g><g class="node"><path fill="wheat" stroke="#000" d="M1010 756H828v36h182v-36z"/><text text-anchor="middle" x="915" y="-3091.6" font-family="Times Roman,serif" font-size="16" fill="#00f" transform="translate(4 3870)">AVPLAY_Mutex_Lock</text></g><g class="edge" stroke="#000"><path fill="none" d="M104.065 3239.754C110.339 3136.729 145.435 2617.74 238 2205c88.243-393.46 22.916-552.34 280-863 79.512-96.08 176.953-31.14 246-135 84.863-127.65-39.353-209.52 36-343 16.346-28.96 46.219-51.5 71.944-66.79"/><path d="M870.425 794.05l10.416-1.94-6.933 8.01-3.483-6.07z"/></g><g class="node"><path fill="wheat" stroke="#000" d="M1896 1930h-84v36h84v-36z"/><text text-anchor="middle" x="1850" y="-1917.6" font-family="Times Roman,serif" font-size="16" fill="#00f" transform="translate(4 3870)">memcpy</text></g><g class="edge" stroke="#000"><path fill="none" d="M110.111 3239.739C126.521 3199.937 170.849 3104.79 238 3053c149.689-115.446 213.965-136 403-136h278c10.536 0 745.83-84.28 753-92 57.96-62.45-3.64-690.58 36-766 20.85-39.68 62.91-69.28 96.56-87.89"/><path d="M1803.33 1967.79l10.47-1.64-7.16 7.81-3.31-6.17z"/></g><g class="node"><path fill="wheat" stroke="#000" d="M458 3402H262v36h196v-36z"/><text text-anchor="middle" x="356" y="-445.6" font-family="Times Roman,serif" font-size="16" fill="#00f" transform="translate(4 3870)">HI_SYS_GetMemConfig</text></g><g class="edge" stroke="#000"><path fill="none" d="M115.636 3276.112C137.172 3305.523 183.944 3363.356 238 3393c4.578 2.511 9.374 4.788 14.306 6.853"/><path d="M253.869 3396.705l8.069 6.865-10.59-.335 2.521-6.53z"/></g><g class="node"><path fill="wheat" stroke="#000" d="M2230 2968h-80v36h80v-36z"/><text text-anchor="middle" x="2186" y="-879.6" font-family="Times Roman,serif" font-size="16" fill="#00f" transform="translate(4 3870)">memset</text></g><g class="edge" stroke="#000"><path fill="none" d="M114.368 3239.626C134.707 3208.709 180.614 3147.287 238 3123c36.688-15.527 1394.17-21.087 1434-22 145.81-3.341 206.36 70.467 328-10 31.84-21.065 5.74-54.712 36-78 29.31-22.558 71.04-28.752 103.68-29.611"/><path d="M2139.89 2979.887l10.03 3.397-9.96 3.602-.07-6.999z"/></g><g class="node"><path fill="wheat" stroke="#000" d="M439 3456H281v36h158v-36z"/><text text-anchor="middle" x="356" y="-391.6" font-family="Times Roman,serif" font-size="16" fill="#00f" transform="translate(4 3870)">AVPLAY_FrcCreate</text></g><g class="edge" stroke="#000"><path fill="none" d="M110.52 3276.217C127.288 3314.436 171.568 3403.078 238 3447c9.896 6.543 21.132 11.522 32.683 15.308"/><path d="M271.853 3459.005l8.584 6.21-10.583.498 1.999-6.708z"/></g><g class="node"><path fill="wheat" stroke="#000" d="M1633 3056h-200v36h200v-36z"/><text text-anchor="middle" x="1529" y="-791.6" font-family="Times Roman,serif" font-size="16" fill="#00f" transform="translate(4 3870)">AVPLAY_ResetProcFlag</text></g><g class="edge" stroke="#000"><path fill="none" d="M111.166 3239.91C128.548 3203.841 173.005 3123.564 238 3090c159.426-82.328 223.572-24 403-24h278c176.15 0 380.69 3.333 503.6 5.696"/><path d="M1422.84 3068.2l9.93 3.693-10.07 3.306.14-6.999z"/></g><g class="node"><path fill="wheat" stroke="#000" d="M481 3510H239v36h242v-36z"/><text text-anchor="middle" x="356" y="-337.6" font-family="Times Roman,serif" font-size="16" fill="#00f" transform="translate(4 3870)">HI_MPI_SYNC_GetDefaultAttr</text></g><g class="edge" stroke="#000"><path fill="none" d="M107.496 3276.048C119.831 3321.611 158.689 3441.857 238 3501a94.82 94.82 0 005.671 3.911"/><path d="M245.526 3501.94l6.943 8.004-10.418-1.928 3.475-6.076z"/></g><g class="node"><path fill="wheat" stroke="#000" d="M451 3564H269v36h182v-36z"/><text text-anchor="middle" x="356" y="-283.6" font-family="Times Roman,serif" font-size="16" fill="#00f" transform="translate(4 3870)">HI_MPI_SYNC_Create</text></g><g class="edge" stroke="#000"><path fill="none" d="M105.559 3276.069c8.387 52.166 40.028 204.05 132.441 278.931 6.542 5.301 13.904 9.615 21.688 13.119"/><path d="M261.03 3564.886l7.965 6.986-10.583-.493 2.618-6.493z"/></g><g class="node"><path fill="wheat" stroke="#000" d="M458 1016H262v36h196v-36z"/><text text-anchor="middle" x="356" y="-2831.6" font-family="Times Roman,serif" font-size="16" fill="#00f" transform="translate(4 3870)">AVPLAY_CreateThread</text></g><g class="edge" stroke="#000"><path fill="none" d="M103.341 3239.827C106.742 3065.921 136.568 1693.87 238 1298c23.507-91.75 78.066-190.78 105.551-237.17"/><path d="M340.689 1058.8l8.138-6.78-2.131 10.38-6.007-3.6z"/></g><g class="node"><path fill="wheat" stroke="#000" d="M743 2377H539v36h204v-36z"/><text text-anchor="middle" x="637" y="-1470.6" font-family="Times Roman,serif" font-size="16" fill="#00f" transform="translate(4 3870)">AVPLAY_Mutex_UnLock</text></g><g class="edge" stroke="#000"><path fill="none" d="M104.176 3239.906C110.934 3141.028 147.734 2666.5 238 2557c72.195-87.58 198.808-128.17 290.891-146.76"/><path d="M528.329 2406.78l10.486 1.52-9.14 5.35-1.346-6.87z"/></g><g class="node"><path fill="wheat" stroke="#000" d="M455 3618H265v36h190v-36z"/><text text-anchor="middle" x="356" y="-229.6" font-family="Times Roman,serif" font-size="16" fill="#00f" transform="translate(4 3870)">HI_MPI_SYNC_Destroy</text></g><g class="edge" stroke="#000"><path fill="none" d="M104.192 3276.291C109.026 3334.675 132.355 3518.064 238 3609c5.192 4.469 10.959 8.246 17.081 11.434"/><path d="M256.676 3617.316l7.602 7.38-10.545-1.029 2.943-6.351z"/></g><g class="node"><path fill="wheat" stroke="#000" d="M444 3672H276v36h168v-36z"/><text text-anchor="middle" x="356" y="-175.6" font-family="Times Roman,serif" font-size="16" fill="#00f" transform="translate(4 3870)">AVPLAY_FrcDestroy</text></g><g class="edge" stroke="#000"><path fill="none" d="M106.566 3276.049C121.01 3347.365 177.297 3608.3 238 3663c8.143 7.338 17.825 12.831 28.121 16.922"/><path d="M267.449 3676.679l8.273 6.618-10.594-.015 2.321-6.603z"/></g><g class="node"><path fill="wheat" stroke="#000" d="M463 3726H257v36h206v-36z"/><text text-anchor="middle" x="356" y="-121.6" font-family="Times Roman,serif" font-size="16" fill="#00f" transform="translate(4 3870)">pthread_mutex_destroy</text></g><g class="edge" stroke="#000"><path fill="none" d="M105.819 3276.022C118.228 3353.086 170.391 3653.855 238 3717c3.166 2.957 6.58 5.617 10.185 8.008"/><path d="M250.048 3722.043l6.866 8.07-10.399-2.027 3.533-6.043z"/></g><g class="node"><path fill="wheat" stroke="#000" d="M400 3780h-80v36h80v-36z"/><text text-anchor="middle" x="356" y="-67.6" font-family="Times Roman,serif" font-size="16" fill="#00f" transform="translate(4 3870)">HI_FREE</text></g><g class="edge" stroke="#000"><path fill="none" d="M105.244 3276.136C115.838 3358.849 163.472 3699.361 238 3771c18.748 18.021 46.689 25.085 71.102 27.502"/><path d="M309.604 3795.03l9.708 4.242-10.235 2.738.527-6.98z"/></g><g class="node"><path fill="wheat" stroke="#000" d="M416 3834H304v36h112v-36z"/><text text-anchor="middle" x="356" y="-13.6" font-family="Times Roman,serif" font-size="16" fill="#00f" transform="translate(4 3870)">HI_MUNMAP</text></g><g class="edge" stroke="#000"><path fill="none" d="M104.77 3276.23c8.916 88.076 51.735 468.564 133.23 548.77 14.748 14.514 35.442 21.961 55.605 25.592"/><path d="M294.382 3847.17l9.366 4.951-10.41 1.97 1.044-6.922z"/></g><g class="node"><path fill="wheat" stroke="#000" d="M1622 680h-178v36h178v-36z"/><text text-anchor="middle" x="1529" y="-3167.6" font-family="Times Roman,serif" font-size="16" fill="#00f" transform="translate(4 3870)">pthread_mutex_lock</text></g><g class="edge" stroke="#000"><path fill="none" d="M1010.03 783.2c90.75 5.93 232.83 6.34 347.97-33.2 18.42-6.33 18.05-17.42 36-25 12.57-5.31 26.23-9.58 39.91-13.03"/><path d="M1433.33 708.52l10.54 1.09-8.93 5.72-1.61-6.81z"/></g><g class="edge" stroke="#000"><path fill="none" d="M1633.24 3081.879c117.94 7.511 305.47 13.434 366.76-18.879 24.22-12.77 12.8-35.451 36-50 30.92-19.391 71.84-25.861 103.72-27.634"/><path d="M2139.6 2981.868l10.14 3.077-9.85 3.917-.29-6.994z"/></g><g class="node"><path fill="wheat" stroke="#000" d="M715 800H567v36h148v-36z"/><text text-anchor="middle" x="637" y="-3047.6" font-family="Times Roman,serif" font-size="16" fill="#00f" transform="translate(4 3870)">pthread_attr_init</text></g><g class="edge" stroke="#000"><path fill="none" d="M369.668 1015.77C390.955 977.51 445.783 888.81 518 845c11.732-7.12 25.105-12.37 38.609-16.24"/><path d="M555.883 825.33l10.561.85-8.784 5.92-1.777-6.77z"/></g><g class="node"><path fill="wheat" stroke="#000" d="M761 854H521v36h240v-36z"/><text text-anchor="middle" x="637" y="-2993.6" font-family="Times Roman,serif" font-size="16" fill="#00f" transform="translate(4 3870)">pthread_attr_setschedpolicy</text></g><g class="edge" stroke="#000"><path fill="none" d="M375.502 1015.94C401.734 986.61 457.914 928.89 518 899a168.03 168.03 0 0111.922-5.35"/><path d="M528.994 890.25l10.592-.25-8.124 6.81-2.468-6.56z"/></g><g class="node"><path fill="wheat" stroke="#000" d="M764 908H518v36h246v-36z"/><text text-anchor="middle" x="637" y="-2939.6" font-family="Times Roman,serif" font-size="16" fill="#00f" transform="translate(4 3870)">pthread_attr_getschedparam</text></g><g class="edge" stroke="#000"><path fill="none" d="M389.542 1015.92C420.53 997.66 471.149 969.83 518 953c6.221-2.23 12.688-4.32 19.256-6.26"/><path d="M536.36 943.36l10.575.65-8.672 6.09-1.903-6.74z"/></g><g class="node"><path fill="wheat" stroke="#000" d="M763 962H519v36h244v-36z"/><text text-anchor="middle" x="637" y="-2885.6" font-family="Times Roman,serif" font-size="16" fill="#00f" transform="translate(4 3870)">pthread_attr_setschedparam</text></g><g class="edge" stroke="#000"><path fill="none" d="M453.96 1015.94c26.714-5.13 55.959-10.75 83.223-15.99"/><path d="M536.648 996.49l10.481 1.55-9.16 5.32-1.321-6.87z"/></g><g class="node"><path fill="wheat" stroke="#000" d="M709 1016H573v36h136v-36z"/><text text-anchor="middle" x="637" y="-2831.6" font-family="Times Roman,serif" font-size="16" fill="#00f" transform="translate(4 3870)">pthread_create</text></g><g class="edge" stroke="#000"><path fill="none" d="M458.675 1034h103.257"/><path d="M562.144 1030.5l10 3.5-10 3.5v-7z"/></g><g class="node"><path fill="wheat" stroke="#000" d="M731 1351H551v36h180v-36z"/><text text-anchor="middle" x="637" y="-2496.6" font-family="Times Roman,serif" font-size="16" fill="#00f" transform="translate(4 3870)">AVPLAY_DataThread</text></g><g class="edge" stroke="#000"><path fill="none" d="M375.108 1052.01l244.182 291.11"/><path d="M622.072 1340.99l3.746 9.91-9.109-5.41 5.363-4.5z"/></g><g class="node"><path fill="wheat" stroke="#000" d="M732 1070H550v36h182v-36z"/><text text-anchor="middle" x="637" y="-2777.6" font-family="Times Roman,serif" font-size="16" fill="#00f" transform="translate(4 3870)">pthread_attr_destroy</text></g><g class="edge" stroke="#000"><path fill="none" d="M453.96 1052.06c27.282 5.24 57.205 10.99 84.96 16.32"/><path d="M539.879 1065l9.16 5.33-10.481 1.55 1.321-6.88z"/></g><g class="node"><path fill="wheat" stroke="#000" d="M1022 1019H816v36h206v-36z"/><text text-anchor="middle" x="915" y="-2828.6" font-family="Times Roman,serif" font-size="16" fill="#00f" transform="translate(4 3870)">AVPLAY_VidDataThread</text></g><g class="edge" stroke="#000"><path fill="none" d="M385.598 1052c30.059 19.95 82.211 50.88 132.402 63 106.281 25.66 139.624 25.26 246 0 44.15-10.48 90.008-35.63 120.278-54.56"/><path d="M882.454 1057.45l10.316-2.42-6.558 8.33-3.758-5.91z"/></g><g class="node"><path fill="wheat" stroke="#000" d="M699 1162H583v36h116v-36z"/><text text-anchor="middle" x="637" y="-2685.6" font-family="Times Roman,serif" font-size="16" fill="#00f" transform="translate(4 3870)">pthread_join</text></g><g class="edge" stroke="#000"><path fill="none" d="M379.892 1052.16c28.523 25.11 83.628 70.21 138.108 95.84 17.178 8.08 36.702 14.35 55.056 19.1"/><path d="M573.953 1163.72l8.865 5.8-10.549.99 1.684-6.79z"/></g><g class="node"><path fill="wheat" stroke="#000" d="M1006 700H832v36h174v-36z"/><text text-anchor="middle" x="915" y="-3147.6" font-family="Times Roman,serif" font-size="16" fill="#00f" transform="translate(4 3870)">AVPLAY_StatThread</text></g><g class="edge" stroke="#000"><path fill="none" d="M366.088 1015.71C382.464 969.59 432.12 848.15 518 791c90.525-60.24 216.857-74.46 303.392-76.21"/><path d="M821.428 711.29l10.051 3.35-9.946 3.65-.105-7z"/></g><g class="node"><path fill="wheat" stroke="#000" d="M954 1235h-70v36h70v-36z"/><text text-anchor="middle" x="915" y="-2612.6" font-family="Times Roman,serif" font-size="16" fill="#00f" transform="translate(4 3870)">syscall</text></g><g class="edge" stroke="#000"><path fill="none" d="M712.589 1350.9c17.663-6.29 35.938-14.47 51.411-24.9 20.106-13.56 15.409-28.19 36-41 22.075-13.73 50.006-21.64 73.259-26.15"/><path d="M872.78 1255.38l10.461 1.68-9.225 5.21-1.236-6.89z"/></g><g class="node"><path fill="wheat" stroke="#000" d="M1962 1468h-216v36h216v-36z"/><text text-anchor="middle" x="1850" y="-2379.6" font-family="Times Roman,serif" font-size="16" fill="#00f" transform="translate(4 3870)">HI_SYS_GetTimeStampMs</text></g><g class="edge" stroke="#000"><path fill="none" d="M731.793 1379.47C901.431 1400.5 1258.35 1452.07 1358 1524c25.52 18.43 8.66 45.39 36 61 107.3 61.27 169.06 58.3 278 0 25.43-13.61 12.88-36.75 36-54 13.03-9.72 28.19-17.36 43.71-23.37"/><path d="M1750.81 1504.23l10.59-.13-8.2 6.71-2.39-6.58z"/></g><g class="node"><path fill="wheat" stroke="#000" d="M1335 851h-238v36h238v-36z"/><text text-anchor="middle" x="1212" y="-2996.6" font-family="Times Roman,serif" font-size="16" fill="#00f" transform="translate(4 3870)">AVPLAY_ThreadMutex_Lock</text></g><g class="edge" stroke="#000"><path fill="none" d="M731.387 1350.93c12.51-6.06 24.001-14.15 32.613-24.93 88.216-110.45-49.86-203.71 36-316 67.106-87.76 191.486-121.35 286.82-133.97"/><path d="M1086.47 872.55l10.36 2.22-9.48 4.72-.88-6.94z"/></g><g class="node"><path fill="wheat" stroke="#000" d="M1026 1327H812v36h214v-36z"/><text text-anchor="middle" x="915" y="-2520.6" font-family="Times Roman,serif" font-size="16" fill="#00f" transform="translate(4 3870)">AVPLAY_ProcDmxToAdec</text></g><g class="edge" stroke="#000"><path fill="none" d="M731.643 1361.17c22.084-1.9 46.028-3.97 69.183-5.97"/><path d="M800.781 1351.69l10.264 2.63-9.661 4.35-.603-6.98z"/></g><g class="node"><path fill="wheat" stroke="#000" d="M1250 797h-68v36h68v-36z"/><text text-anchor="middle" x="1212" y="-3050.6" font-family="Times Roman,serif" font-size="16" fill="#00f" transform="translate(4 3870)">usleep</text></g><g class="edge" stroke="#000"><path fill="none" d="M731.593 1351.09c12.484-6.08 23.914-14.21 32.407-25.09 53.843-68.94-18.269-323.39 36-392 90.683-114.65 283.86-123.76 371.32-121.53"/><path d="M1171.57 808.97l9.88 3.82-10.1 3.18.22-7z"/></g><g class="node"><path fill="wheat" stroke="#000" d="M1346 2079h-260v36h260v-36z"/><text text-anchor="middle" x="1212" y="-1768.6" font-family="Times Roman,serif" font-size="16" fill="#00f" transform="translate(4 3870)">AVPLAY_ThreadMutex_UnLock</text></g><g class="edge" stroke="#000"><path fill="none" d="M643.77 1387.23c13.836 88.99 77.916 477.09 156.23 566.77 69.188 79.23 184.342 114.6 275.98 130.37"/><path d="M1076.6 2080.92l9.29 5.09-10.43 1.82 1.14-6.91z"/></g><g class="node"><path fill="wheat" stroke="#000" d="M1018 1749H820v36h198v-36z"/><text text-anchor="middle" x="915" y="-2098.6" font-family="Times Roman,serif" font-size="16" fill="#00f" transform="translate(4 3870)">AVPLAY_ProcAdecToAo</text></g><g class="edge" stroke="#000"><path fill="none" d="M653.667 1387.14c44.504 63.71 193.843 277.51 246.644 353.1"/><path d="M903.401 1738.56l2.857 10.2-8.596-6.2 5.739-4z"/></g><g class="node"><path fill="wheat" stroke="#000" d="M1314 1019h-196v36h196v-36z"/><text text-anchor="middle" x="1212" y="-2828.6" font-family="Times Roman,serif" font-size="16" fill="#00f" transform="translate(4 3870)">AVPLAY_ProcVdecToVo</text></g><g class="edge" stroke="#000"><path fill="none" d="M690.577 1350.95C721.67 1340.17 762.78 1326.89 800 1318c52.095-12.44 199.999-.26 238-38 69.05-68.58-32.03-146.4 36-216 9.37-9.58 21-16.34 33.55-21.04"/><path d="M1106.71 1039.55l10.6.21-8.41 6.44-2.19-6.65z"/></g><g class="node"><path fill="wheat" stroke="#000" d="M1309 2025h-186v36h186v-36z"/><text text-anchor="middle" x="1212" y="-1822.6" font-family="Times Roman,serif" font-size="16" fill="#00f" transform="translate(4 3870)">AVPLAY_ProcDmxBuf</text></g><g class="edge" stroke="#000"><path fill="none" d="M643.454 1387.31c9.31 63.27 47.613 275.96 156.546 406.69 53.374 64.05 273.27 178.09 369.99 226.39"/><path d="M1171.57 2017.26l7.39 7.59-10.52-1.32 3.13-6.27z"/></g><g class="node"><path fill="wheat" stroke="#000" d="M1018 2362H820v36h198v-36z"/><text text-anchor="middle" x="915" y="-1485.6" font-family="Times Roman,serif" font-size="16" fill="#00f" transform="translate(4 3870)">AVPLAY_ProcCheckBuf</text></g><g class="edge" stroke="#000"><path fill="none" d="M645.334 1387.05C663.262 1461.47 733.793 1751.61 800 1988c38.43 137.21 89.593 299.75 110.022 363.93"/><path d="M913.438 2351.12l-.298 10.59-6.371-8.46 6.669-2.13z"/></g><g class="node"><path fill="wheat" stroke="#000" d="M1038 2416H800v36h238v-36z"/><text text-anchor="middle" x="915" y="-1431.6" font-family="Times Roman,serif" font-size="16" fill="#00f" transform="translate(4 3870)">AVPLAY_ProcCheckStandBy</text></g><g class="edge" stroke="#000"><path fill="none" d="M642.561 1387.23C654.04 1519.45 727.004 2328.62 800 2407c.776.83 1.572 1.64 2.387 2.43"/><path d="M804.746 2406.84l5.445 9.09-9.924-3.71 4.479-5.38z"/></g><g class="edge" stroke="#000"><path fill="none" d="M1335.11 856.96c8.3-3.94 16.07-8.85 22.89-14.96 40.54-36.29-4.47-80.63 36-117 11.32-10.18 25.3-17.01 39.99-21.52"/><path d="M1433.16 700.08l10.57.76-8.74 5.99-1.83-6.75z"/></g><g class="edge" stroke="#000"><path fill="none" d="M994.821 1363.08c124.799 29.84 360.119 86.47 363.179 89.92 89 100.56-45.33 193.14 36 300 80.87 106.27 186.81 16.44 278 114 34.55 36.96 6.55 66.86 36 108 26.94 37.63 70.34 68.31 102.84 87.8"/><path d="M1812.84 2059.92l6.85 8.08-10.39-2.05 3.54-6.03z"/></g><g class="edge" stroke="#000"><path fill="none" d="M976.753 1326.92c22.802-10.12 46.927-25.2 61.247-46.92 46.56-70.64-19.91-315.5 36-379 4.27-4.85 9.11-9.06 14.36-12.69"/><path d="M1086.57 885.3l10.35-2.25-6.69 8.22-3.66-5.97z"/></g><g class="node"><path fill="wheat" stroke="#000" d="M1328 1181h-224v36h224v-36z"/><text text-anchor="middle" x="1212" y="-2666.6" font-family="Times Roman,serif" font-size="16" fill="#00f" transform="translate(4 3870)">HI_MPI_ADEC_GetDelayMs</text></g><g class="edge" stroke="#000"><path fill="none" d="M1017.04 1326.87c7.57-3.79 14.69-8.36 20.96-13.87 31.44-27.61 3.55-60.58 36-87 6.23-5.07 13.11-9.29 20.4-12.8"/><path d="M1093.26 1209.88l10.56-.76-7.78 7.19-2.78-6.43z"/></g><g class="node"><path fill="wheat" stroke="#000" d="M1633 2022h-200v36h200v-36z"/><text text-anchor="middle" x="1529" y="-1825.6" font-family="Times Roman,serif" font-size="16" fill="#00f" transform="translate(4 3870)">HI_MPI_DMX_AcquireEs</text></g><g class="edge" stroke="#000"><path fill="none" d="M931.897 1363.2c23.888 32.1 78.423 98.16 142.103 127.8 57.6 26.81 240.03-12.86 284 33 75.4 78.65-36.35 407.53 36 489 7.97 8.97 17.96 15.51 28.9 20.21"/><path d="M1424.16 2029.94l8.14 6.79-10.6-.24 2.46-6.55z"/></g><g class="node"><path fill="wheat" stroke="#000" d="M1323 1235h-214v36h214v-36z"/><text text-anchor="middle" x="1212" y="-2612.6" font-family="Times Roman,serif" font-size="16" fill="#00f" transform="translate(4 3870)">HI_MPI_ADEC_SetEosFlag</text></g><g class="edge" stroke="#000"><path fill="none" d="M1005.75 1326.95c11.18-3.83 22.22-8.44 32.25-13.95 19.02-10.45 16.6-23.27 36-33 7.82-3.92 16.15-7.28 24.7-10.15"/><path d="M1097.84 1266.45l10.59.36-8.5 6.32-2.09-6.68z"/></g><g class="node"><path fill="wheat" stroke="#000" d="M1338 1289h-244v36h244v-36z"/><text text-anchor="middle" x="1212" y="-2558.6" font-family="Times Roman,serif" font-size="16" fill="#00f" transform="translate(4 3870)">HI_MPI_AO_Track_SetEosFlag</text></g><g class="edge" stroke="#000"><path fill="none" d="M1026.64 1331.23c18.37-2.35 37.64-4.82 56.56-7.24"/><path d="M1083 1320.49l10.36 2.2-9.47 4.74-.89-6.94z"/></g><g class="node"><path fill="wheat" stroke="#000" d="M1634 1968h-202v36h202v-36z"/><text text-anchor="middle" x="1529" y="-1879.6" font-family="Times Roman,serif" font-size="16" fill="#00f" transform="translate(4 3870)">HI_MPI_DMX_ReleaseEs</text></g><g class="edge" stroke="#000"><path fill="none" d="M941.094 1363.01c28.766 22.47 81.466 60.3 132.906 79.99 119.55 45.77 197.64-46.49 284 48 69.62 76.18-31.35 384.81 36 463 7.69 8.92 17.32 15.64 27.9 20.65"/><path d="M1423.55 1971.55l7.87 7.09-10.57-.63 2.7-6.46z"/></g><g class="node"><path fill="wheat" stroke="#000" d="M1624 1540h-182v36h182v-36z"/><text text-anchor="middle" x="1529" y="-2307.6" font-family="Times Roman,serif" font-size="16" fill="#00f" transform="translate(4 3870)">AVPLAY_GetSysTime</text></g><g class="edge" stroke="#000"><path fill="none" d="M1026.52 1338.78c113.75-4.2 283.36-2.88 331.48 38.22 53.44 45.65-14.63 105.25 36 154 10.65 10.25 23.96 17.18 38.1 21.77"/><path d="M1433.34 1549.49l8.66 6.11-10.58.62 1.92-6.73z"/></g><g class="node"><path fill="wheat" stroke="#000" d="M1313 2507h-194v36h194v-36z"/><text text-anchor="middle" x="1212" y="-1340.6" font-family="Times Roman,serif" font-size="16" fill="#00f" transform="translate(4 3870)">AVPLAY_ResetAudChn</text></g><g class="edge" stroke="#000"><path fill="none" d="M926.157 1363.13c21.489 55.39 85.583 227.69 111.843 376.87 24.85 141.16-22.76 513.26 36 644 22.52 50.1 71.38 92.1 105.46 116.89"/><path d="M1181.67 2498.17l6.11 8.65-10.17-2.95 4.06-5.7z"/></g><g class="edge" stroke="#000"><path fill="none" d="M977.196 1326.87c22.734-10.11 46.694-25.16 60.804-46.87 53.23-81.88-29.31-365.39 36-438 24-26.69 65.5-31.98 97.46-31.46"/><path d="M1171.6 807.04l9.87 3.86-10.12 3.14.25-7z"/></g><g class="node"><path fill="wheat" stroke="#000" d="M1329 1127h-226v36h226v-36z"/><text text-anchor="middle" x="1212" y="-2720.6" font-family="Times Roman,serif" font-size="16" fill="#00f" transform="translate(4 3870)">HI_MPI_ADEC_SendStream</text></g><g class="edge" stroke="#000"><path fill="none" d="M1019.61 1326.86c6.74-3.81 12.98-8.38 18.39-13.86 45.44-46.02-11.13-96.71 36-141 5.85-5.5 12.46-10.04 19.54-13.79"/><path d="M1092.2 1154.97l10.54-1.09-7.56 7.43-2.98-6.34z"/></g><g class="edge" stroke="#000"><path fill="none" d="M925.801 1363.2c20.479 55.58 82.009 228.36 112.199 376.8 14.7 72.29-14.06 275.81 36 330 1.23 1.33 2.5 2.61 3.81 3.83"/><path d="M1080.21 2071.27l5.54 9.03-9.96-3.6 4.42-5.43z"/></g><g class="node"><path fill="wheat" stroke="#000" d="M1600 734h-134v36h134v-36z"/><text text-anchor="middle" x="1529" y="-3113.6" font-family="Times Roman,serif" font-size="16" fill="#00f" transform="translate(4 3870)">AVPLAY_Notify</text></g><g class="edge" stroke="#000"><path fill="none" d="M976.333 1326.99c22.875-10.14 47.177-25.25 61.667-46.99 42.27-63.4-16.65-285.92 36-341 88.21-92.28 186.77 39.73 284-43 39.82-33.88-2.5-76.63 36-112 16.68-15.33 39.2-23.79 61.24-28.33"/><path d="M1454.85 752.19l10.46 1.66-9.22 5.22-1.24-6.88z"/></g><g class="node"><path fill="wheat" stroke="#000" d="M1884 1540h-60v36h60v-36z"/><text text-anchor="middle" x="1850" y="-2307.6" font-family="Times Roman,serif" font-size="16" fill="#00f" transform="translate(4 3870)">times</text></g><g class="edge" stroke="#000"><path fill="none" d="M1624.13 1558h189.36"/><path d="M1813.65 1554.5l10 3.5-10 3.5v-7z"/></g><g class="edge" stroke="#000"><path fill="none" d="M1248.13 2506.97c35.37-19.65 94.11-51.65 145.87-76.97 121.53-59.44 194.22-17.77 278-124 54.04-68.51-25.75-131.35 36-193 17.24-17.21 41.64-25.39 65.58-28.87"/><path d="M1773.44 2080.62l10.34 2.3-9.51 4.65-.83-6.95z"/></g><g class="node"><path fill="wheat" stroke="#000" d="M1625 2564h-184v36h184v-36z"/><text text-anchor="middle" x="1529" y="-1283.6" font-family="Times Roman,serif" font-size="16" fill="#00f" transform="translate(4 3870)">AVPLAY_StopAudChn</text></g><g class="edge" stroke="#000"><path fill="none" d="M1313.26 2542.49c37.09 6.67 79.47 14.29 117.05 21.04"/><path d="M1431.04 2560.11l9.22 5.21-10.46 1.68 1.24-6.89z"/></g><g class="node"><path fill="wheat" stroke="#000" d="M1627 2510h-188v36h188v-36z"/><text text-anchor="middle" x="1529" y="-1337.6" font-family="Times Roman,serif" font-size="16" fill="#00f" transform="translate(4 3870)">AVPLAY_StartAudChn</text></g><g class="edge" stroke="#000"><path fill="none" d="M1313.26 2525.92c36.52.35 78.16.74 115.3 1.09"/><path d="M1428.94 2523.51l9.97 3.6-10.03 3.4.06-7z"/></g><g class="edge" stroke="#000"><path fill="none" d="M1625.83 2580.93c17.53-4.51 34.12-12.47 46.17-25.93 65.73-73.43-30.06-368.87 36-442 16.63-18.41 41.39-26.79 65.82-30.09"/><path d="M1773.55 2079.42l10.32 2.41-9.57 4.55-.75-6.96z"/></g><g class="node"><path fill="wheat" stroke="#000" d="M1936 2548h-164v36h164v-36z"/><text text-anchor="middle" x="1850" y="-1299.6" font-family="Times Roman,serif" font-size="16" fill="#00f" transform="translate(4 3870)">HI_MPI_ADEC_Stop</text></g><g class="edge" stroke="#000"><path fill="none" d="M1625.85 2577.37c42.68-2.13 93.18-4.64 135.8-6.77"/><path d="M1761.58 2567.1l10.16 3-9.81 3.99-.35-6.99z"/></g><g class="node"><path fill="wheat" stroke="#000" d="M1970 2764h-232v36h232v-36z"/><text text-anchor="middle" x="1850" y="-1083.6" font-family="Times Roman,serif" font-size="16" fill="#00f" transform="translate(4 3870)">HI_MPI_DMX_CloseChannel</text></g><g class="edge" stroke="#000"><path fill="none" d="M1625.68 2584.98c17.12 4.45 33.59 11.91 46.32 24.02 48.42 46.06-12.63 100.15 36 146 6.07 5.72 12.93 10.42 20.29 14.28"/><path d="M1730.27 2766.34l7.59 7.38-10.54-1.03 2.95-6.35z"/></g><g class="node"><path fill="wheat" stroke="#000" d="M1951 2494h-194v36h194v-36z"/><text text-anchor="middle" x="1850" y="-1353.6" font-family="Times Roman,serif" font-size="16" fill="#00f" transform="translate(4 3870)">HI_MPI_AO_Track_Stop</text></g><g class="edge" stroke="#000"><path fill="none" d="M1625.7 2567.03c15.61-3.38 31.53-7.38 46.3-12.03 16.7-5.26 19.28-10.82 36-16 12.36-3.83 25.49-7.2 38.61-10.14"/><path d="M1746.11 2525.39l10.51 1.31-9.03 5.53-1.48-6.84z"/></g><g class="node"><path fill="wheat" stroke="#000" d="M1936 2710h-164v36h164v-36z"/><text text-anchor="middle" x="1850" y="-1137.6" font-family="Times Roman,serif" font-size="16" fill="#00f" transform="translate(4 3870)">HI_MPI_SYNC_Stop</text></g><g class="edge" stroke="#000"><path fill="none" d="M1625.57 2586.6c16.83 4.37 33.21 11.38 46.43 22.4 33.73 28.11 2.15 64.04 36 92 15.22 12.57 34.39 20.03 53.79 24.32"/><path d="M1762.48 2721.89l9.15 5.35-10.48 1.52 1.33-6.87z"/></g><g class="edge" stroke="#000"><path fill="none" d="M1627.35 2522.85c17-5.15 32.99-13.53 44.65-26.85 56.31-64.32-21.69-319.92 36-383 16.74-18.31 41.53-26.66 65.95-29.97"/><path d="M1773.68 2079.54l10.32 2.4-9.56 4.56-.76-6.96z"/></g><g class="edge" stroke="#000"><path fill="none" d="M1627.14 2539.14c42.48 5.03 92.47 10.95 134.71 15.95"/><path d="M1762.33 2551.62l9.52 4.65-10.34 2.31.82-6.96z"/></g><g class="edge" stroke="#000"><path fill="none" d="M1627.14 2523.31c37.45-1.87 80.74-4.03 119.41-5.95"/><path d="M1746.63 2513.85l10.16 3-9.81 3.99-.35-6.99z"/></g><g class="edge" stroke="#000"><path fill="none" d="M1627.12 2531.36c16.6 4.49 32.5 11.86 44.88 23.64 48.42 46.06-12.63 100.15 36 146 14.68 13.84 34.03 21.74 53.83 26.04"/><path d="M1762.7 2723.64l9.18 5.28-10.47 1.6 1.29-6.88z"/></g><g class="node"><path fill="wheat" stroke="#000" d="M1937 2602h-166v36h166v-36z"/><text text-anchor="middle" x="1850" y="-1245.6" font-family="Times Roman,serif" font-size="16" fill="#00f" transform="translate(4 3870)">HI_MPI_SYNC_Start</text></g><g class="edge" stroke="#000"><path fill="none" d="M1627.01 2538c15.62 3.95 31.2 9.43 44.99 17 20.39 11.2 15.56 26.89 36 38 15.96 8.67 34.19 14.61 52.24 18.67"/><path d="M1761.14 2608.29l9.09 5.45-10.5 1.4 1.41-6.85z"/></g><g class="node"><path fill="wheat" stroke="#000" d="M1937 2386h-166v36h166v-36z"/><text text-anchor="middle" x="1850" y="-1461.6" font-family="Times Roman,serif" font-size="16" fill="#00f" transform="translate(4 3870)">HI_MPI_ADEC_Start</text></g><g class="edge" stroke="#000"><path fill="none" d="M1627.11 2517.64c16.04-4.81 31.74-11.73 44.89-21.64 26.38-19.87 9.2-45.71 36-65 15.25-10.98 33.65-17.89 52.18-22.17"/><path d="M1759.66 2405.36l10.5 1.41-9.09 5.45-1.41-6.86z"/></g><g class="node"><path fill="wheat" stroke="#000" d="M1947 2257h-186v36h186v-36z"/><text text-anchor="middle" x="1850" y="-1590.6" font-family="Times Roman,serif" font-size="16" fill="#00f" transform="translate(4 3870)">HI_MPI_ADEC_GetInfo</text></g><g class="edge" stroke="#000"><path fill="none" d="M1627.3 2521.48c16.69-5.09 32.57-13.09 44.7-25.48 54.94-56.12-16.32-114.43 36-173 11.52-12.89 26.55-22.33 42.59-29.24"/><path d="M1749.55 2290.41l10.58-.44-8 6.94-2.58-6.5z"/></g><g class="node"><path fill="wheat" stroke="#000" d="M1952 2440h-196v36h196v-36z"/><text text-anchor="middle" x="1850" y="-1407.6" font-family="Times Roman,serif" font-size="16" fill="#00f" transform="translate(4 3870)">HI_MPI_AO_Track_Start</text></g><g class="edge" stroke="#000"><path fill="none" d="M1615.92 2509.91c18.52-4.31 38.02-9.08 56.08-13.91 16.16-4.32 19.75-7.03 36-11 11.95-2.92 24.53-5.69 37.07-8.27"/><path d="M1744.62 2473.25l10.49 1.46-9.11 5.41-1.38-6.87z"/></g><g class="node"><path fill="wheat" stroke="#000" d="M1969 2656h-230v36h230v-36z"/><text text-anchor="middle" x="1850" y="-1191.6" font-family="Times Roman,serif" font-size="16" fill="#00f" transform="translate(4 3870)">HI_MPI_DMX_OpenChannel</text></g><g class="edge" stroke="#000"><path fill="none" d="M1627.01 2532.98c16.32 4.4 32.15 11.32 44.99 22.02 33.73 28.11 2.15 64.04 36 92 6.29 5.19 13.25 9.52 20.63 13.1"/><path d="M1730.41 2657.06l7.77 7.2-10.57-.78 2.8-6.42z"/></g><g class="node"><path fill="wheat" stroke="#000" d="M1979 2332h-250v36h250v-36z"/><text text-anchor="middle" x="1850" y="-1515.6" font-family="Times Roman,serif" font-size="16" fill="#00f" transform="translate(4 3870)">HI_MPI_DMX_DestroyChannel</text></g><g class="edge" stroke="#000"><path fill="none" d="M1627.17 2520.4c16.5-5.03 32.35-12.73 44.83-24.4 40.37-37.73-5.18-82.15 36-119a89.19 89.19 0 0111.68-8.82"/><path d="M1717.97 2365.12l10.42-1.91-6.95 7.99-3.47-6.08z"/></g><g class="node"><path fill="wheat" stroke="#000" d="M1632 2190h-198v36h198v-36z"/><text text-anchor="middle" x="1529" y="-1657.6" font-family="Times Roman,serif" font-size="16" fill="#00f" transform="translate(4 3870)">pthread_mutex_unlock</text></g><g class="edge" stroke="#000"><path fill="none" d="M1267.64 2115.08c55.84 19.55 144.8 50.7 204.12 71.48"/><path d="M1473.1 2183.32l8.29 6.61h-10.6l2.31-6.61z"/></g><g class="edge" stroke="#000"><path fill="none" d="M920.307 1785.41c5.458 61.26 32.225 258.91 153.693 338.59 57.4 37.65 512.14-8.05 699.63-28.79"/><path d="M1773.37 2091.72l10.33 2.37-9.55 4.58-.78-6.95z"/></g><g class="edge" stroke="#000"><path fill="none" d="M923.266 1785.13c16.744 71.66 78.803 342.33 114.734 567.87 21.82 136.98-26.2 186.02 36 310 77.82 155.12 162.74 143.84 284 268 16.71 17.111 14.24 30.064 36 40 67.43 30.797 580.89 20.51 745.43 16.37"/><path d="M2139.67 2983.863l10.09 3.244-9.91 3.754-.18-6.998z"/></g><g class="edge" stroke="#000"><path fill="none" d="M925.974 1748.83c20.97-55.48 83.746-228.01 112.026-376.83 18.02-94.86-18.35-353.19 36-433 14.96-21.96 38.86-37.32 62.83-47.93"/><path d="M1135.78 887.72l10.58-.62-7.88 7.08-2.7-6.46z"/></g><g class="edge" stroke="#000"><path fill="none" d="M921.029 1785.42c7.672 60.61 40.454 255.72 152.971 356.58 188.98 169.41 511.46 163.57 676.3 147.19"/><path d="M1750.14 2285.69l10.31 2.46-9.59 4.5-.72-6.96z"/></g><g class="edge" stroke="#000"><path fill="none" d="M932.186 1785.08c23.768 33.24 74.254 106.9 105.814 174.92 21.65 46.66-2.63 76.03 36 110 1.18 1.04 2.38 2.04 3.61 3"/><path d="M1079.88 2070.32l6.19 8.6-10.2-2.86 4.01-5.74z"/></g><g class="edge" stroke="#000"><path fill="none" d="M925.92 1748.82c20.819-55.51 83.21-228.12 112.08-376.82 16.8-86.53-25-331.38 36-395 88.13-91.92 189.77 47.66 284-38 52.33-47.57-14.06-105.04 36-155 16.26-16.23 38.99-24.9 61.36-29.35"/><path d="M1454.8 751.19l10.45 1.74-9.25 5.16-1.2-6.9z"/></g><g class="node"><path fill="wheat" stroke="#000" d="M1335 1587h-238v36h238v-36z"/><text text-anchor="middle" x="1212" y="-2260.6" font-family="Times Roman,serif" font-size="16" fill="#00f" transform="translate(4 3870)">HI_MPI_ADEC_ReceiveFrame</text></g><g class="edge" stroke="#000"><path fill="none" d="M934.038 1748.74C959.527 1719.13 1014.3 1661 1074 1632c4.11-2 8.35-3.85 12.69-5.56"/><path d="M1085.73 1623.07l10.59-.16-8.18 6.73-2.41-6.57z"/></g><g class="node"><path fill="wheat" stroke="#000" d="M1336 1641h-240v36h240v-36z"/><text text-anchor="middle" x="1212" y="-2206.6" font-family="Times Roman,serif" font-size="16" fill="#00f" transform="translate(4 3870)">HI_MPI_ADEC_ReleaseFrame</text></g><g class="edge" stroke="#000"><path fill="none" d="M947.277 1748.96c30.229-18.48 80.123-46.75 126.723-62.96 6.45-2.24 13.13-4.31 19.93-6.23"/><path d="M1093.38 1676.3l10.56.79-8.75 5.97-1.81-6.76z"/></g><g class="node"><path fill="wheat" stroke="#000" d="M1343 1695h-254v36h254v-36z"/><text text-anchor="middle" x="1212" y="-2152.6" font-family="Times Roman,serif" font-size="16" fill="#00f" transform="translate(4 3870)">HI_MPI_AO_Track_GetDelayMs</text></g><g class="edge" stroke="#000"><path fill="none" d="M1018.31 1748.94c28.36-5.15 59.42-10.8 88.34-16.06"/><path d="M1106.32 1729.38l10.46 1.66-9.21 5.23-1.25-6.89z"/></g><g class="node"><path fill="wheat" stroke="#000" d="M1317 1749h-202v36h202v-36z"/><text text-anchor="middle" x="1212" y="-2098.6" font-family="Times Roman,serif" font-size="16" fill="#00f" transform="translate(4 3870)">HI_MPI_SYNC_AudJudge</text></g><g class="edge" stroke="#000"><path fill="none" d="M1018.72 1767h85.31"/><path d="M1104.26 1763.5l10 3.5-10 3.5v-7z"/></g><g class="node"><path fill="wheat" stroke="#000" d="M1324 1841h-216v36h216v-36z"/><text text-anchor="middle" x="1212" y="-2006.6" font-family="Times Roman,serif" font-size="16" fill="#00f" transform="translate(4 3870)">HI_MPI_AO_Track_GetAttr</text></g><g class="edge" stroke="#000"><path fill="none" d="M960.843 1785.14c30.861 12.89 74.097 29.97 113.157 41.86 13.65 4.16 28.19 8.03 42.56 11.56"/><path d="M1117.56 1835.2l8.91 5.74-10.54 1.07 1.63-6.81z"/></g><g class="node"><path fill="wheat" stroke="#000" d="M1357 1895h-282v36h282v-36z"/><text text-anchor="middle" x="1212" y="-1952.6" font-family="Times Roman,serif" font-size="16" fill="#00f" transform="translate(4 3870)">HI_MPI_AO_Track_SetSpeedAdjust</text></g><g class="edge" stroke="#000"><path fill="none" d="M936.687 1785.19c26.996 26.61 81.273 75.7 137.313 100.81 4.49 2.01 9.12 3.87 13.85 5.59"/><path d="M1089.33 1888.4l8.34 6.54-10.59.09 2.25-6.63z"/></g><g class="node"><path fill="wheat" stroke="#000" d="M1334 1533h-236v36h236v-36z"/><text text-anchor="middle" x="1212" y="-2314.6" font-family="Times Roman,serif" font-size="16" fill="#00f" transform="translate(4 3870)">HI_MPI_AO_Track_SendData</text></g><g class="edge" stroke="#000"><path fill="none" d="M928.139 1748.9c20.404-38.4 73.618-128 145.861-170.9 4.54-2.69 9.28-5.13 14.18-7.33"/><path d="M1087.18 1567.3l10.58-.57-7.92 7.05-2.66-6.48z"/></g><g class="node"><path fill="wheat" stroke="#000" d="M1932 1792h-156v36h156v-36z"/><text text-anchor="middle" x="1850" y="-2055.6" font-family="Times Roman,serif" font-size="16" fill="#00f" transform="translate(4 3870)">HI_WARN_AVPLAY</text></g><g class="edge" stroke="#000"><path fill="none" d="M1008.84 1785.03c21.28 3.61 43.95 6.92 65.16 8.97 249.98 24.19 547.05 21.73 691.84 18.54"/><path d="M1765.92 1809.04l10.08 3.27-9.92 3.72-.16-6.99z"/></g><g class="edge" stroke="#000"><path fill="none" d="M1314.65 1030.32c16.23-5.17 31.57-13.15 43.35-25.32 59.17-61.12-25.74-129.47 36-188 45.25-42.9 218.43-19.59 278-38 17.09-5.28 19.27-11.66 36-18 20.01-7.59 42.1-14.3 62.9-19.92"/><path d="M1770.11 737.67l10.57.82-8.77 5.94-1.8-6.76z"/></g><g class="edge" stroke="#000"><path fill="none" d="M1314.71 1039.29c16.33 4.66 31.69 12.37 43.29 24.71 86.86 92.36-47.15 187.28 36 283 84 96.7 155.63 38.14 278 76 41.46 12.83 87.67 28.84 123.14 41.52"/><path d="M1796.62 1461.33l8.23 6.67-10.59-.08 2.36-6.59z"/></g><g class="edge" stroke="#000"><path fill="none" d="M1314.86 1038.72c16.41 4.7 31.76 12.56 43.14 25.28 69.41 77.57-33.25 389.3 36 467 10.2 11.44 23.67 18.91 38.22 23.67"/><path d="M1433.25 1551.32l8.66 6.09-10.57.64 1.91-6.73z"/></g><g class="edge" stroke="#000"><path fill="none" d="M1314.57 1030.7c16.34-5.19 31.74-13.28 43.43-25.7 68.22-72.45-32.05-148.39 36-221 15.86-16.92 38.71-25.74 61.32-30.13"/><path d="M1454.88 750.4l10.44 1.8-9.29 5.1-1.15-6.9z"/></g><g class="node"><path fill="wheat" stroke="#000" d="M1652 1432h-238v36h238v-36z"/><text text-anchor="middle" x="1529" y="-2415.6" font-family="Times Roman,serif" font-size="16" fill="#00f" transform="translate(4 3870)">HI_MPI_VDEC_ReceiveFrame</text></g><g class="edge" stroke="#000"><path fill="none" d="M1314.61 1038.95c16.43 4.67 31.86 12.47 43.39 25.05 53.44 58.28-16.31 294.71 36 354 3.31 3.75 6.96 7.11 10.88 10.11"/><path d="M1406.95 1425.28l6.32 8.51-10.24-2.71 3.92-5.8z"/></g><g class="node"><path fill="wheat" stroke="#000" d="M1645 1486h-224v36h224v-36z"/><text text-anchor="middle" x="1529" y="-2361.6" font-family="Times Roman,serif" font-size="16" fill="#00f" transform="translate(4 3870)">AVPLAY_DRV2UNF_VidFrm</text></g><g class="edge" stroke="#000"><path fill="none" d="M1314.75 1038.81c16.43 4.69 31.81 12.53 43.25 25.19 61.77 68.35-25.64 344.53 36 413 5.09 5.65 10.98 10.33 17.4 14.19"/><path d="M1413.24 1488.21l7.22 7.76-10.48-1.57 3.26-6.19z"/></g><g class="node"><path fill="wheat" stroke="#000" d="M1999 964h-290v36h290v-36z"/><text text-anchor="middle" x="1850" y="-2883.6" font-family="Times Roman,serif" font-size="16" fill="#00f" transform="translate(4 3870)">HI_MPI_STAT_NotifyLowDelayEvent</text></g><g class="edge" stroke="#000"><path fill="none" d="M1291.79 1018.92c31.44-6.78 68.41-13.83 102.21-17.92 100.76-12.19 214.74-16.96 304.03-18.68"/><path d="M1698.18 978.82l10.06 3.32-9.93 3.68-.13-7z"/></g><g class="node"><path fill="wheat" stroke="#000" d="M1937 910h-166v36h166v-36z"/><text text-anchor="middle" x="1850" y="-2937.6" font-family="Times Roman,serif" font-size="16" fill="#00f" transform="translate(4 3870)">HI_MPI_STAT_Event</text></g><g class="edge" stroke="#000"><path fill="none" d="M1314.7 1020.2c14.84-4.07 29.71-9.07 43.3-15.2 17.99-8.11 17.58-18.9 36-26 120.44-46.43 270.86-54.67 366.21-54.37"/><path d="M1760.44 921.13l9.97 3.57-10.02 3.43.05-7z"/></g><g class="node"><path fill="wheat" stroke="#000" d="M1939 374h-170v36h170v-36z"/><text text-anchor="middle" x="1850" y="-3473.6" font-family="Times Roman,serif" font-size="16" fill="#00f" transform="translate(4 3870)">AVPLAY_ProcVidFrc</text></g><g class="edge" stroke="#000"><path fill="none" d="M1243.75 1018.95c33.73-23.69 89.24-68.68 114.25-122.95 44.78-97.14-40.49-405.23 36-480 49.73-48.61 244.23-42.25 363.82-33.17"/><path d="M1758.38 379.36l9.7 4.27-10.24 2.71.54-6.98z"/></g><g class="node"><path fill="wheat" stroke="#000" d="M1643 496h-220v36h220v-36z"/><text text-anchor="middle" x="1529" y="-3351.6" font-family="Times Roman,serif" font-size="16" fill="#00f" transform="translate(4 3870)">AVPLAY_ProcFrmToVirWin</text></g><g class="edge" stroke="#000"><path fill="none" d="M1243.52 1018.84c33.5-23.79 88.76-68.9 114.48-122.84 34.13-71.57-17.47-296.44 36-355 5.54-6.06 11.99-11 19.04-15.01"/><path d="M1411.74 522.73l10.51-1.33-7.39 7.59-3.12-6.26z"/></g><g class="node"><path fill="wheat" stroke="#000" d="M1624 1010h-182v36h182v-36z"/><text text-anchor="middle" x="1529" y="-2837.6" font-family="Times Roman,serif" font-size="16" fill="#00f" transform="translate(4 3870)">AVPLAY_ProcVidPlay</text></g><g class="edge" stroke="#000"><path fill="none" d="M1314.56 1034.2c37.13-1.05 79.41-2.25 116.81-3.31"/><path d="M1431.69 1027.37l10.1 3.22-9.9 3.78-.2-7z"/></g><g class="node"><path fill="wheat" stroke="#000" d="M1947 482h-186v36h186v-36z"/><text text-anchor="middle" x="1850" y="-3365.6" font-family="Times Roman,serif" font-size="16" fill="#00f" transform="translate(4 3870)">AVPLAY_ProcVidSync</text></g><g class="edge" stroke="#000"><path fill="none" d="M1243.64 1018.9c33.61-23.74 89-68.79 114.36-122.9 38.73-82.61-31.29-347.38 36-409 112.93-103.42 314.61-44.69 408.85-8.64"/><path d="M1804.12 475.09l8.05 6.89-10.59-.36 2.54-6.53z"/></g><g class="node"><path fill="wheat" stroke="#000" d="M1634 550h-202v36h202v-36z"/><text text-anchor="middle" x="1529" y="-3297.6" font-family="Times Roman,serif" font-size="16" fill="#00f" transform="translate(4 3870)">AVPLAY_ProcVidRepeat</text></g><g class="edge" stroke="#000"><path fill="none" d="M1242.74 1018.8c32.95-23.99 87.92-69.47 115.26-122.8 46.21-90.12-16.58-138.45 36-225 21.5-35.4 60.17-62.54 91.27-80.06"/><path d="M1483.78 587.76l10.45-1.72-7.09 7.87-3.36-6.15z"/></g><g class="node"><path fill="wheat" stroke="#000" d="M1637 826h-208v36h208v-36z"/><text text-anchor="middle" x="1529" y="-3021.6" font-family="Times Roman,serif" font-size="16" fill="#00f" transform="translate(4 3870)">AVPLAY_ProcVidDiscard</text></g><g class="edge" stroke="#000"><path fill="none" d="M1314.67 1029.37c16.03-5.1 31.3-12.82 43.33-24.37 44.49-42.71-9.12-91.96 36-134 7.42-6.91 16.06-12.3 25.33-16.47"/><path d="M1418.2 851.21l10.59-.46-7.99 6.96-2.6-6.5z"/></g><g class="node"><path fill="wheat" stroke="#000" d="M1657 880h-248v36h248v-36z"/><text text-anchor="middle" x="1529" y="-2967.6" font-family="Times Roman,serif" font-size="16" fill="#00f" transform="translate(4 3870)">AVPLAY_ProcVidQuickOutput</text></g><g class="edge" stroke="#000"><path fill="none" d="M1314.83 1026.89c15.55-4.89 30.62-11.89 43.17-21.89 28.92-23.03 7.13-51.9 36-75 4.29-3.43 8.88-6.51 13.69-9.27"/><path d="M1406.07 917.63l10.49-1.53-7.25 7.73-3.24-6.2z"/></g><g class="edge" stroke="#000"><path fill="none" d="M1915.34 410.02c30.91 12.45 65.75 32.41 84.66 62.98 48.32 78.13 29.82 734.34 36 826 45.43 674.08 133.33 1496.82 150.9 1658.63"/><path d="M2190.4 2957.407l-2.4 10.32-4.56-9.563 6.96-.757z"/></g><g class="node"><path fill="wheat" stroke="#000" d="M2305 750h-230v36h230v-36z"/><text text-anchor="middle" x="2186" y="-3097.6" font-family="Times Roman,serif" font-size="16" fill="#00f" transform="translate(4 3870)">AVPLAY_GetWindowByPort</text></g><g class="edge" stroke="#000"><path fill="none" d="M1899.18 410.03c30.89 13.92 71.41 35.43 100.82 62.97 5.78 5.42 127.71 196.96 173.14 268.45"/><path d="M2176.13 739.62l2.4 10.32-8.31-6.56 5.91-3.76z"/></g><g class="node"><path fill="wheat" stroke="#000" d="M2294 428h-208v36h208v-36z"/><text text-anchor="middle" x="2186" y="-3419.6" font-family="Times Roman,serif" font-size="16" fill="#00f" transform="translate(4 3870)">HI_MPI_WIN_GetPlayInfo</text></g><g class="edge" stroke="#000"><path fill="none" d="M1939.66 405.77c41.21 6.62 91.21 14.65 135.65 21.8"/><path d="M2075.97 424.13l9.32 5.04-10.43 1.87 1.11-6.91z"/></g><g class="node"><path fill="wheat" stroke="#000" d="M2322 320h-264v36h264v-36z"/><text text-anchor="middle" x="2186" y="-3527.6" font-family="Times Roman,serif" font-size="16" fill="#00f" transform="translate(4 3870)">HI_MPI_VDEC_GetChanFrmRate</text></g><g class="edge" stroke="#000"><path fill="none" d="M1939.66 378.23c38.88-6.24 85.57-13.75 128.05-20.58"/><path d="M2067.41 354.16l10.43 1.87-9.32 5.04-1.11-6.91z"/></g><g class="node"><path fill="wheat" stroke="#000" d="M2280 374h-180v36h180v-36z"/><text text-anchor="middle" x="2186" y="-3473.6" font-family="Times Roman,serif" font-size="16" fill="#00f" transform="translate(4 3870)">AVPLAY_FrcCalculate</text></g><g class="edge" stroke="#000"><path fill="none" d="M1939.66 392h149.51"/><path d="M2089.21 388.5l10 3.5-10 3.5v-7z"/></g><g class="edge" stroke="#000"><path fill="none" d="M1643.78 523.34c127.98 11.41 325.05 31.11 356.22 46.66 79.77 39.79 144.43 127.19 173.46 171.35"/><path d="M2176.45 739.53l2.49 10.3-8.37-6.5 5.88-3.8z"/></g><g class="node"><path fill="wheat" stroke="#000" d="M1964 650h-220v36h220v-36z"/><text text-anchor="middle" x="1850" y="-3197.6" font-family="Times Roman,serif" font-size="16" fill="#00f" transform="translate(4 3870)">HI_MPI_WIN_QueueFrame</text></g><g class="edge" stroke="#000"><path fill="none" d="M1643.78 526.71c10 3.71 19.6 8.39 28.22 14.29 24.74 16.91 13.62 37.08 36 57 23.39 20.81 54.05 36.77 81.25 48.15"/><path d="M1790.75 642.98l7.95 7-10.58-.51 2.63-6.49z"/></g><g class="node"><path fill="wheat" stroke="#000" d="M2330 975h-280v36h280v-36z"/><text text-anchor="middle" x="2186" y="-2872.6" font-family="Times Roman,serif" font-size="16" fill="#00f" transform="translate(4 3870)">HI_MPI_WIN_QueueUselessFrame</text></g><g class="edge" stroke="#000"><path fill="none" d="M1643.83 530.38c9.73 2.97 19.25 6.48 28.17 10.62 18.63 8.66 17.57 19.91 36 29 119.78 59.09 197.98-23.86 292 71 49.48 49.92 5.72 90.57 36 154 33.05 69.24 93.54 136.95 128.06 172.45"/><path d="M2166.9 965.35l4.52 9.59-9.51-4.68 4.99-4.91z"/></g><g class="edge" stroke="#000"><path fill="none" d="M1624.35 1031.62c18.29 5.07 35.56 13.79 47.65 28.38 64.92 78.35-10.99 824.75 36 915 20.79 39.93 63.14 69.6 96.9 88.18"/><path d="M1806.55 2060.09l7.17 7.8-10.47-1.62 3.3-6.18z"/></g><g class="edge" stroke="#000"><path fill="none" d="M1560.64 1009.97c29-19.46 75.28-52.1 111.36-84.97 63.87-58.18 129.18-136.59 161.41-176.8"/><path d="M1830.8 745.85l8.97-5.64-3.49 10-5.48-4.36z"/></g><g class="edge" stroke="#000"><path fill="none" d="M1624.28 1031.68c18.29 5.07 35.58 13.78 47.72 28.32 55.37 66.36-4.18 700.48 36 777 20.84 39.68 62.9 69.29 96.55 87.9"/><path d="M1806.63 1922.04l7.16 7.81-10.46-1.64 3.3-6.17z"/></g><g class="edge" stroke="#000"><path fill="none" d="M1624.06 1032.7c18.07 5.05 35.33 13.49 47.94 27.3 79.85 87.45-13.85 156.58 36 264 26.56 57.23 80.41 108.6 114.76 137.48"/><path d="M1825.15 1458.92l5.47 9.07-9.93-3.68 4.46-5.39z"/></g><g class="edge" stroke="#000"><path fill="none" d="M1624.04 1031.88c18.3 5.06 35.66 13.71 47.96 28.12 75.91 88.95-1.01 414.07 36 525 26.69 80 88.69 159.43 122.68 199.04"/><path d="M1833.57 1782.03l3.92 9.85-9.2-5.26 5.28-4.59z"/></g><g class="edge" stroke="#000"><path fill="none" d="M1624.13 1014.94c29.18-4.18 62.16-8.91 93.83-13.45"/><path d="M1717.8 997.98l10.39 2.05-9.4 4.88-.99-6.93z"/></g><g class="edge" stroke="#000"><path fill="none" d="M1569.71 1009.99c34.85-16.45 89.07-40.35 138.29-54.99 16.63-4.94 34.6-9.15 52.06-12.68"/><path d="M1759.79 938.81l10.48 1.52-9.14 5.35-1.34-6.87z"/></g><g class="edge" stroke="#000"><path fill="none" d="M1624.18 1033.17c117.01 5.13 312.49 8.15 375.82-24.17 6.02-3.07 121.91-152.75 169.68-214.64"/><path d="M2167.07 792.01l8.88-5.78-3.33 10.06-5.55-4.28z"/></g><g class="edge" stroke="#000"><path fill="none" d="M1571.8 1009.98c32.29-17.12 76.64-46.05 100.2-84.98 53.57-88.52-36.15-155.84 36-230 7.64-7.85 16.76-13.84 26.67-18.37"/><path d="M1733.39 673.38l10.58-.51-7.96 7-2.62-6.49z"/></g><g class="edge" stroke="#000"><path fill="none" d="M1624.24 1039.1c94.43 9.53 246.01 19.36 375.76 2.9 42.32-5.37 88.7-17.21 125.04-27.91"/><path d="M2124.43 1010.62l10.59.49-8.58 6.22-2.01-6.71z"/></g><g class="node"><path fill="wheat" stroke="#000" d="M2310 1254h-240v36h240v-36z"/><text text-anchor="middle" x="2186" y="-2593.6" font-family="Times Roman,serif" font-size="16" fill="#00f" transform="translate(4 3870)">HI_MPI_VDEC_ReleaseFrame</text></g><g class="edge" stroke="#000"><path fill="none" d="M1624.19 1033.01c17.95 5.05 35.13 13.42 47.81 26.99 69.42 74.33-41.37 159.98 36 226 53.87 45.96 247.02 25.07 371.85 5.6"/><path d="M2079.42 1288.13l10.42 1.9-9.33 5.01-1.09-6.91z"/></g><g class="edge" stroke="#000"><path fill="none" d="M1883.31 518.19C1918.22 541.7 1974.95 586.2 2000 641c30.44 66.59 30.67 584.97 36 658 49.17 673.82 134.1 1496.77 151.02 1658.622"/><path d="M2190.52 2957.411l-2.44 10.311-4.53-9.582 6.97-.729z"/></g><g class="edge" stroke="#000"><path fill="none" d="M1947.61 510.69c18.26 4.74 36.62 11.54 52.39 21.31 85.71 53.07 149.57 158.94 176.27 208.82"/><path d="M2179.4 739.26l1.56 10.48-7.76-7.22 6.2-3.26z"/></g><g class="edge" stroke="#000"><path fill="none" d="M1947.59 484.96c39.64-6.37 86.21-13.86 127.87-20.55"/><path d="M2074.96 460.94l10.42 1.87-9.31 5.05-1.11-6.92z"/></g><g class="node"><path fill="wheat" stroke="#000" d="M2288 482h-196v36h196v-36z"/><text text-anchor="middle" x="2186" y="-3365.6" font-family="Times Roman,serif" font-size="16" fill="#00f" transform="translate(4 3870)">HI_MPI_SYNC_VidJudge</text></g><g class="edge" stroke="#000"><path fill="none" d="M1947.59 500h133.51"/><path d="M2081.34 496.5l10 3.5-10 3.5v-7z"/></g><g class="edge" stroke="#000"><path fill="none" d="M1634.76 579c13.59 4.87 26.51 11.64 37.24 21 34.02 29.69 1.34 66.06 36 95 17.58 14.68 40.54 22.42 63.04 26.27"/><path d="M1771.59 717.82l9.38 4.92-10.4 2 1.02-6.92z"/></g><g class="edge" stroke="#000"><path fill="none" d="M1634.66 571.29c96.87 6.02 245.32 22.86 365.34 69.71 62.96 24.58 126.26 72.68 161.57 102.11"/><path d="M2164.12 740.69l5.38 9.12-9.9-3.77 4.52-5.35z"/></g><g class="edge" stroke="#000"><path fill="none" d="M1634.57 584.34c13.02 4.11 25.84 9.24 37.43 15.66 19.79 10.96 16.15 25.14 36 36 8.28 4.53 17.15 8.42 26.28 11.75"/><path d="M1735.55 644.49l8.33 6.55-10.6.07 2.27-6.62z"/></g><g class="edge" stroke="#000"><path fill="none" d="M1637.17 829.69c12.4-4.43 24.36-10.2 34.83-17.69 24.68-17.65 11.23-40.48 36-58 18.28-12.93 40.82-20.78 62.68-25.5"/><path d="M1770.17 725.03l10.49 1.51-9.14 5.36-1.35-6.87z"/></g><g class="edge" stroke="#000"><path fill="none" d="M1627.91 825.91c14.97-3.92 30.1-8.54 44.09-13.91 17.09-6.56 18.4-14.97 36-20 117.6-33.62 257.82-36.7 356.62-33.14"/><path d="M2064.79 755.37l9.86 3.88-10.13 3.11.27-6.99z"/></g><g class="edge" stroke="#000"><path fill="none" d="M1637.21 837.46c96.43-2.83 242.59 1.13 362.79 39.54 62.03 19.82 124.71 63.8 160.32 91.55"/><path d="M2162.67 965.95l5.68 8.94-10.02-3.45 4.34-5.49z"/></g><g class="edge" stroke="#000"><path fill="none" d="M1637.12 848.96c13.17 4.73 25.35 11.77 34.88 22.04 93.14 100.38-57.01 205.49 36 306 23.91 25.84 217.5 57.87 351.93 77.35"/><path d="M2060.51 1250.9l9.4 4.89-10.4 2.04 1-6.93z"/></g><g class="edge" stroke="#000"><path fill="none" d="M1574.28 916.02c32.9 16.8 76.79 45.26 97.72 84.98 100.98 191.61-63.8 781.77 36 974 20.74 39.95 63.1 69.63 96.87 88.19"/><path d="M1806.52 2060.11l7.18 7.79-10.47-1.62 3.29-6.17z"/></g><g class="edge" stroke="#000"><path fill="none" d="M1626.1 879.98c15.34-2.99 31.07-6.06 45.9-8.98 145.34-28.56 313.51-62.09 417.83-82.95"/><path d="M2089.23 784.6l10.49 1.48-9.12 5.39-1.37-6.87z"/></g><g class="edge" stroke="#000"><path fill="none" d="M1657.61 882.28c5.18-3.22 10.02-6.96 14.39-11.28 56.74-56.18-20.99-120.08 36-176 7.6-7.46 16.55-13.21 26.21-17.62"/><path d="M1733.09 674.06l10.58-.5-7.96 6.99-2.62-6.49z"/></g><g class="edge" stroke="#000"><path fill="none" d="M1657.65 884.02c95.09-7.13 228.64-9.49 342.35 16.98 57.09 13.29 117.01 45.89 153.94 68.48"/><path d="M2156.17 966.74l6.65 8.25-10.35-2.3 3.7-5.95z"/></g><g class="edge" stroke="#000"><path fill="none" d="M1572.22 916.12c32.33 17.11 76.5 45.95 99.78 84.88 56.93 95.21-46.08 172.37 36 247 25.53 23.21 217.73 26.49 351.57 25.88"/><path d="M2059.89 1270.37l10.02 3.45-9.98 3.55-.04-7z"/></g><g class="edge" stroke="#000"><path fill="none" d="M1309.12 2057.21c27.3 3.72 57.23 7.36 84.88 9.79 132.77 11.67 287.74 16.2 379.66 17.94"/><path d="M1773.8 2081.44l9.93 3.68-10.06 3.32.13-7z"/></g><g class="edge" stroke="#000"><path fill="none" d="M1309.4 2042.12c35.3-.34 75.83-.72 112.59-1.07"/><path d="M1422.22 2037.55l10.04 3.4-9.97 3.6-.07-7z"/></g><g class="edge" stroke="#000"><path fill="none" d="M1309.4 2026.21c35.47-6.38 76.21-13.71 113.11-20.34"/><path d="M1422.35 2002.34l10.46 1.67-9.22 5.22-1.24-6.89z"/></g><g class="node"><path fill="wheat" stroke="#000" d="M1660 1876h-254v36h254v-36z"/><text text-anchor="middle" x="1529" y="-1971.6" font-family="Times Roman,serif" font-size="16" fill="#00f" transform="translate(4 3870)">AVPLAY_CalPreBufThreshhold</text></g><g class="edge" stroke="#000"><path fill="none" d="M1309.1 2032.43c17.22-4.76 34.34-11.61 48.9-21.43 23.3-15.72 14.53-33.86 36-52 21.66-18.29 49.32-32.61 74.26-43.09"/><path d="M1467.09 1912.61l10.58-.53-7.94 7.01-2.64-6.48z"/></g><g class="node"><path fill="wheat" stroke="#000" d="M1993 2122h-278v36h278v-36z"/><text text-anchor="middle" x="1850" y="-1725.6" font-family="Times Roman,serif" font-size="16" fill="#00f" transform="translate(4 3870)">HI_MPI_DMX_GetPESBufferStatus</text></g><g class="edge" stroke="#000"><path fill="none" d="M1309.28 2057.23c16.42 3.5 33.21 7.72 48.72 12.77 16.83 5.47 18.98 12.15 36 17 101.33 28.91 219.5 42.11 310.7 48.11"/><path d="M1705.08 2131.63l9.76 4.13-10.21 2.85.45-6.98z"/></g><g class="edge" stroke="#000"><path fill="none" d="M1644.85 1912.14c9.56 3.78 18.77 8.35 27.15 13.86 22.58 14.85 17.05 29.74 36 49 33.58 34.13 78.08 66.46 109.09 87.33"/><path d="M1819.07 2059.45l6.39 8.46-10.27-2.63 3.88-5.83z"/></g><g class="edge" stroke="#000"><path fill="none" d="M1560.46 1875.93c33.32-23.7 87.96-68.71 111.54-122.93 75.58-173.78-31.33-674.86 36-852 24.37-64.13 81.36-122.48 116.5-154.14"/><path d="M1822.27 744.16l9.8-4.02-5.16 9.26-4.64-5.24z"/></g><g class="edge" stroke="#000"><path fill="none" d="M1558.87 1875.87c32.2-24.09 86.22-69.84 113.13-122.87 45.22-89.14-29.63-146.61 36-222 7.96-9.14 17.73-16.46 28.41-22.3"/><path d="M1735.07 1505.46l10.51-1.33-7.39 7.59-3.12-6.26z"/></g><g class="edge" stroke="#000"><path fill="none" d="M1654.35 1912.09c6.44 3.88 12.41 8.47 17.65 13.91 58.76 60.92-24.07 127.37 36 187 .82.82 1.66 1.61 2.52 2.39"/><path d="M1712.98 2112.88l5.62 8.98-9.99-3.52 4.37-5.46z"/></g><g class="edge" stroke="#000"><path fill="none" d="M1004.88 2398.01c90.72 15.14 236.48 28.22 353.12-14.01 19.58-7.09 18.24-19.12 36-30 114.61-70.2 188.71-18.55 278-119 37.56-42.25-6-84.16 36-122 17.85-16.08 42.05-24.03 65.61-27.64"/><path d="M1773.28 2081.87l10.37 2.2-9.47 4.75-.9-6.95z"/></g><g class="edge" stroke="#000"><path fill="none" d="M1018.08 2394.4c7.17 3.41 13.92 7.56 19.92 12.6 31.73 26.65 4.25 59.37 36 86 10.26 8.61 22.36 15.02 35.09 19.78"/><path d="M1110.58 2509.59l8.35 6.52-10.59.11 2.24-6.63z"/></g><g class="edge" stroke="#000"><path fill="none" d="M1018.03 2396.61c7 2.92 13.75 6.36 19.97 10.39 22.38 14.51 12.15 36.07 36 48 112.9 56.45 158.6 14.38 284 0 142.34-16.33 197.86 10.91 314-73 24.9-17.99 11.93-39.92 36-59 14.11-11.19 30.93-19.81 48.05-26.45"/><path d="M1754.99 2293.21l10.59-.15-8.19 6.73-2.4-6.58z"/></g><g class="edge" stroke="#000"><path fill="none" d="M923.734 2361.94c18.493-71.42 86.216-341.28 114.266-567.94 5.35-43.27 6.26-752.11 36-784 86.66-92.93 191.11 53.71 284-33 63.78-59.54-24.4-130.02 36-193 15.98-16.66 38.74-25.43 61.24-29.85"/><path d="M1454.74 750.69l10.45 1.78-9.28 5.12-1.17-6.9z"/></g><g class="edge" stroke="#000"><path fill="none" d="M1000.741 2398c12.499 2.91 25.239 5.97 37.259 9 16.1 4.06 19.55 7.76 36 10 125.07 17.05 160.23 24.75 284 0 17-3.4 19.8-8.83 36-15 122.17-46.49 175.86-14.43 278-96 23.71-18.93 15.44-35.69 36-58 31.45-34.12 74.99-64.7 106.32-84.54"/><path d="M1812.48 2160.49l10.34-2.33-6.63 8.27-3.71-5.94z"/></g><g class="node"><path fill="wheat" stroke="#000" d="M1949 3018h-190v36h190v-36z"/><text text-anchor="middle" x="1850" y="-829.6" font-family="Times Roman,serif" font-size="16" fill="#00f" transform="translate(4 3870)">AVPLAY_CaclBufState</text></g><g class="edge" stroke="#000"><path fill="none" d="M1018.11 2391.36c7.49 4.02 14.29 9.14 19.89 15.64 70.66 82.07-30.01 400.14 36 486 91.75 119.343 172.52 80.847 320 111 119.94 24.523 260.74 31.166 354.67 32.541"/><path d="M1748.79 3033.042l9.96 3.629-10.05 3.37.09-6.999z"/></g><g class="node"><path fill="wheat" stroke="#000" d="M1672 1708h-278v36h278v-36z"/><text text-anchor="middle" x="1529" y="-2139.6" font-family="Times Roman,serif" font-size="16" fill="#00f" transform="translate(4 3870)">HI_MPI_VDEC_GetChanStatusInfo</text></g><g class="edge" stroke="#000"><path fill="none" d="M919.995 2361.71c4.536-63.9 28.886-278.68 154.005-378.71 99.71-79.72 186.1 38.93 284-43 38.16-31.93 7.14-65.47 36-106 25.49-35.8 66.21-65.46 97-84.58"/><path d="M1489.44 1746.27l10.36-2.2-6.73 8.19-3.63-5.99z"/></g><g class="node"><path fill="wheat" stroke="#000" d="M1328 2285h-224v36h224v-36z"/><text text-anchor="middle" x="1212" y="-1562.6" font-family="Times Roman,serif" font-size="16" fill="#00f" transform="translate(4 3870)">HI_MPI_DMX_GetPortMode</text></g><g class="edge" stroke="#000"><path fill="none" d="M969.498 2361.95c30.079-10.3 69.162-22.93 104.502-31.95 9.39-2.4 19.18-4.69 29.04-6.84"/><path d="M1102.39 2319.71l10.51 1.33-9.04 5.52-1.47-6.85z"/></g><g class="node"><path fill="wheat" stroke="#000" d="M1282 2618h-132v36h132v-36z"/><text text-anchor="middle" x="1212" y="-1229.6" font-family="Times Roman,serif" font-size="16" fill="#00f" transform="translate(4 3870)">AVPLAY_Reset</text></g><g class="edge" stroke="#000"><path fill="none" d="M1018.12 2392.99c7.29 3.7 14.05 8.3 19.88 14.01 47.43 46.47-3.65 91.74 36 145 20.68 27.78 53.51 48.06 82.39 61.72"/><path d="M1157.96 2610.59l7.65 7.34-10.56-.97 2.91-6.37z"/></g><g class="node"><path fill="wheat" stroke="#000" d="M1326 2339h-220v36h220v-36z"/><text text-anchor="middle" x="1212" y="-1508.6" font-family="Times Roman,serif" font-size="16" fill="#00f" transform="translate(4 3870)">HI_MPI_SYNC_SetBufState</text></g><g class="edge" stroke="#000"><path fill="none" d="M1018.31 2372.31c24.64-1.91 51.31-3.97 76.86-5.95"/><path d="M1095.03 2362.86l10.24 2.72-9.7 4.26-.54-6.98z"/></g><g class="edge" stroke="#000"><path fill="none" d="M1949.39 3021.806c62.07-9.238 140.53-20.913 190.65-28.371"/><path d="M2139.57 2989.965l10.41 1.99-9.37 4.934-1.04-6.924z"/></g><g class="edge" stroke="#000"><path fill="none" d="M1935.85 3017.922c24.78-9.684 49.33-24.457 64.15-46.922 76.43-115.85-54.03-2392.37 36-2498 10.5-12.32 24.46-20.36 39.7-25.46"/><path d="M2074.76 444.17l10.58.57-8.63 6.15-1.95-6.72z"/></g><g class="node"><path fill="wheat" stroke="#000" d="M2344 3022h-308v36h308v-36z"/><text text-anchor="middle" x="2186" y="-825.6" font-family="Times Roman,serif" font-size="16" fill="#00f" transform="translate(4 3870)">HI_MPI_VDEC_GetChanFrmStatusInfo</text></g><g class="edge" stroke="#000"><path fill="none" d="M1949.39 3037.136l76.47.91"/><path d="M2025.94 3034.547l9.96 3.618-10.04 3.381.08-6.999z"/></g><g class="edge" stroke="#000"><path fill="none" d="M1282.13 2624.23c26.25-7.5 55.08-19.66 75.87-39.23 29.57-27.85 3.9-59.11 36-84 98.79-76.62 191.81 47.57 278-43 106.28-111.68-68.63-231.77 36-345 16.76-18.14 41.42-26.48 65.72-29.82"/><path d="M1773.4 2079.69l10.33 2.38-9.56 4.58-.77-6.96z"/></g><g class="edge" stroke="#000"><path fill="none" d="M1222.3 2654.03c19.2 53.12 81.25 211.9 171.7 316.97 28.09 32.631 68.3 61.014 98.26 79.675"/><path d="M1494.11 3047.703l6.7 8.208-10.36-2.238 3.66-5.97z"/></g><g class="edge" stroke="#000"><path fill="none" d="M1282.07 2624.75c42.86-7.31 99.59-16.97 148.26-25.26"/><path d="M1429.82 2596.03l10.45 1.77-9.27 5.13-1.18-6.9z"/></g><g class="edge" stroke="#000"><path fill="none" d="M1281.01 2617.96c24.94-8.26 53.12-19.3 76.99-32.96 18.08-10.34 17.19-21.07 36-30 11.04-5.24 23.03-9.47 35.19-12.87"/><path d="M1428.41 2538.72l10.56.85-8.79 5.92-1.77-6.77z"/></g><g class="node"><path fill="wheat" stroke="#000" d="M1622 2926h-178v36h178v-36z"/><text text-anchor="middle" x="1529" y="-921.6" font-family="Times Roman,serif" font-size="16" fill="#00f" transform="translate(4 3870)">AVPLAY_StopVidChn</text></g><g class="edge" stroke="#000"><path fill="none" d="M1227.21 2654.12c38.06 61.46 160.35 258.484 166.79 262.88 11.88 8.108 25.58 13.921 39.67 18.063"/><path d="M1434.69 2931.715l8.77 5.957-10.57.807 1.8-6.764z"/></g><g class="node"><path fill="wheat" stroke="#000" d="M1639 1302h-212v36h212v-36z"/><text text-anchor="middle" x="1529" y="-2545.6" font-family="Times Roman,serif" font-size="16" fill="#00f" transform="translate(4 3870)">AVPLAY_RelAllChnFrame</text></g><g class="edge" stroke="#000"><path fill="none" d="M1272.28 2617.97c31-13.09 66.91-34.17 85.72-65.97 63.91-108.02-22.23-1017.82 36-1129 18.9-36.08 56.78-62.84 88.23-80.03"/><path d="M1480.86 1339.74l10.47-1.58-7.2 7.77-3.27-6.19z"/></g><g class="node"><path fill="wheat" stroke="#000" d="M1631 2618h-196v36h196v-36z"/><text text-anchor="middle" x="1529" y="-1229.6" font-family="Times Roman,serif" font-size="16" fill="#00f" transform="translate(4 3870)">HI_MPI_DMX_PcrPidSet</text></g><g class="edge" stroke="#000"><path fill="none" d="M1282.07 2636h142.14"/><path d="M1424.5 2632.5l10 3.5-10 3.5v-7z"/></g><g class="node"><path fill="wheat" stroke="#000" d="M1624 2872h-182v36h182v-36z"/><text text-anchor="middle" x="1529" y="-975.6" font-family="Times Roman,serif" font-size="16" fill="#00f" transform="translate(4 3870)">AVPLAY_StartVidChn</text></g><g class="edge" stroke="#000"><path fill="none" d="M1229.16 2654.02c27.29 36.34 93.45 119.32 164.84 170.98 24.22 17.53 53.92 32.18 79.63 43.1"/><path d="M1475.02 2864.89l7.89 7.071-10.58-.606 2.69-6.465z"/></g><g class="node"><path fill="wheat" stroke="#000" d="M1614 2672h-162v36h162v-36z"/><text text-anchor="middle" x="1529" y="-1175.6" font-family="Times Roman,serif" font-size="16" fill="#00f" transform="translate(4 3870)">HI_MPI_SYNC_Play</text></g><g class="edge" stroke="#000"><path fill="none" d="M1282.07 2647.25c46.27 7.89 108.69 18.52 159.7 27.21"/><path d="M1442.54 2671.04l9.27 5.13-10.44 1.77 1.17-6.9z"/></g><g class="node"><path fill="wheat" stroke="#000" d="M1619 2726h-172v36h172v-36z"/><text text-anchor="middle" x="1529" y="-1121.6" font-family="Times Roman,serif" font-size="16" fill="#00f" transform="translate(4 3870)">HI_MPI_SYNC_Tplay</text></g><g class="edge" stroke="#000"><path fill="none" d="M1249.51 2654.14c35.09 18.3 92.26 46.16 144.49 62.86 13.7 4.38 28.39 8.17 42.92 11.41"/><path d="M1437.89 2725.03l9.04 5.53-10.51 1.32 1.47-6.85z"/></g><g class="node"><path fill="wheat" stroke="#000" d="M1621 2780h-176v36h176v-36z"/><text text-anchor="middle" x="1529" y="-1067.6" font-family="Times Roman,serif" font-size="16" fill="#00f" transform="translate(4 3870)">HI_MPI_SYNC_Pause</text></g><g class="edge" stroke="#000"><path fill="none" d="M1233.88 2654.16c30.14 29.47 94.26 87.4 160.12 116.84 12.86 5.75 26.92 10.27 41 13.84"/><path d="M1435.82 2781.44l8.92 5.72-10.54 1.09 1.62-6.81z"/></g><g class="edge" stroke="#000"><path fill="none" d="M1622.63 2944.132c18.82-4.331 36.76-12.521 49.37-27.132 58.41-67.71-22.72-736.56 36-804 16.36-18.8 41.19-27.25 65.76-30.48"/><path d="M1773.56 2079.02l10.31 2.44-9.58 4.52-.73-6.96z"/></g><g class="edge" stroke="#000"><path fill="none" d="M1622.78 2940.749c17.93-4.33 35.46-11.667 49.22-23.749 38.02-33.38-2.17-74.79 36-108 6.15-5.35 13.02-9.8 20.32-13.47"/><path d="M1727.23 2792.18l10.55-.91-7.68 7.3-2.87-6.39z"/></g><g class="edge" stroke="#000"><path fill="none" d="M1622.67 2942.055c18.25-4.348 35.94-12.022 49.33-25.055 52.85-51.45-17.08-110.79 36-162 14.52-14.01 33.81-21.98 53.6-26.29"/><path d="M1761.17 2725.23l10.48 1.6-9.19 5.28-1.29-6.88z"/></g><g class="node"><path fill="wheat" stroke="#000" d="M1957 2926h-206v36h206v-36z"/><text text-anchor="middle" x="1850" y="-921.6" font-family="Times Roman,serif" font-size="16" fill="#00f" transform="translate(4 3870)">HI_MPI_VDEC_ChanStop</text></g><g class="edge" stroke="#000"><path fill="none" d="M1622.84 2944h117.77"/><path d="M1740.86 2940.5l10 3.5-10 3.5v-7z"/></g><g class="node"><path fill="wheat" stroke="#000" d="M1961 2872h-214v36h214v-36z"/><text text-anchor="middle" x="1850" y="-975.6" font-family="Times Roman,serif" font-size="16" fill="#00f" transform="translate(4 3870)">HI_MPI_VDEC_ResetChan</text></g><g class="edge" stroke="#000"><path fill="none" d="M1622.84 2928.886l113.97-19.172"/><path d="M1736.36 2906.24l10.45 1.792-9.28 5.111-1.17-6.903z"/></g><g class="node"><path fill="wheat" stroke="#000" d="M1951 3148h-194v36h194v-36z"/><text text-anchor="middle" x="1850" y="-699.6" font-family="Times Roman,serif" font-size="16" fill="#00f" transform="translate(4 3870)">AVPLAY_ResetWindow</text></g><g class="edge" stroke="#000"><path fill="none" d="M1559.27 2962.167l260.31 180.028"/><path d="M1821.58 3139.326l6.24 8.567-10.22-2.809 3.98-5.758z"/></g><g class="edge" stroke="#000"><path fill="none" d="M1951.77 3159.559c17.74-5.086 34.83-13.107 48.23-25.559 41.1-38.191-5.9-83.685 36-121 28.01-24.949 70.66-30.83 103.98-30.958"/><path d="M2140.04 2978.542l9.96 3.629-10.05 3.37.09-6.999z"/></g><g class="node"><path fill="wheat" stroke="#000" d="M2278 3175h-176v36h176v-36z"/><text text-anchor="middle" x="2186" y="-672.6" font-family="Times Roman,serif" font-size="16" fill="#00f" transform="translate(4 3870)">HI_MPI_WIN_GetInfo</text></g><g class="edge" stroke="#000"><path fill="none" d="M1951.64 3173.846l140.07 11.256"/><path d="M2092.18 3181.628l9.69 4.29-10.25 2.688.56-6.978z"/></g><g class="node"><path fill="wheat" stroke="#000" d="M2271 3121h-162v36h162v-36z"/><text text-anchor="middle" x="2186" y="-726.6" font-family="Times Roman,serif" font-size="16" fill="#00f" transform="translate(4 3870)">HI_MPI_WIN_Reset</text></g><g class="edge" stroke="#000"><path fill="none" d="M1951.64 3158.154l147.05-11.816"/><path d="M2098.6 3142.833l10.25 2.688-9.69 4.29-.56-6.978z"/></g><g class="edge" stroke="#000"><path fill="none" d="M1639.15 1337.79C1762 1360.65 1953.43 1404.01 2000 1459c101.13 119.43 176.31 1299.54 188.32 1498.57"/><path d="M2191.83 2957.6l-2.9 10.192-4.09-9.772 6.99-.42z"/></g><g class="edge" stroke="#000"><path fill="none" d="M1639.07 1313.22c12.24-4.58 23.64-11.08 32.93-20.22 55.07-54.15-16.8-113.64 36-170 92.16-98.37 188.77 4.69 292-82 28.31-23.78 16.54-43.56 36-75 40.7-65.75 99.03-135.55 130.95-172.15"/><path d="M2164.5 791.34l9.22-5.21-3.96 9.83-5.26-4.62z"/></g><g class="edge" stroke="#000"><path fill="none" d="M1639.16 1303.57c99.1-18.92 248.21-56.8 360.84-126.57 71.25-44.14 137.48-118.87 169.63-158.13"/><path d="M2166.95 1016.62l9.02-5.57-3.58 9.97-5.44-4.4z"/></g><g class="edge" stroke="#000"><path fill="none" d="M1639.25 1329.44c95.01 6.43 237.8 11.08 360.75-5.44 44.03-5.92 92.29-19.22 129.16-30.88"/><path d="M2128.17 1289.76l10.59.27-8.45 6.39-2.14-6.66z"/></g><g class="node"><path fill="wheat" stroke="#000" d="M1971 1132h-234v36h234v-36z"/><text text-anchor="middle" x="1850" y="-2715.6" font-family="Times Roman,serif" font-size="16" fill="#00f" transform="translate(4 3870)">AVPLAY_RelAllVirChnFrame</text></g><g class="edge" stroke="#000"><path fill="none" d="M1639.24 1311.9c11.99-4.4 23.28-10.51 32.76-18.9 38.84-34.37-2.42-76.16 36-111 5.95-5.39 12.59-9.95 19.67-13.79"/><path d="M1726.34 1164.96l10.52-1.25-7.44 7.54-3.08-6.29z"/></g><g class="edge" stroke="#000"><path fill="none" d="M1918.8 1131.9c28.4-10.88 60.01-27.49 81.2-51.9 34.83-40.13 11.3-66.96 36-114 35.76-68.11 95.49-136.5 129.09-172.35"/><path d="M2162.83 790.95l9.41-4.86-4.33 9.67-5.08-4.81z"/></g><g class="edge" stroke="#000"><path fill="none" d="M1958.74 1131.94c14.13-3.84 28.23-8.45 41.26-13.94 61.48-25.91 124.56-72.06 160.36-100.46"/><path d="M2158.44 1014.6l9.99-3.53-5.62 8.99-4.37-5.46z"/></g><g class="edge" stroke="#000"><path fill="none" d="M1903.58 1168c60.42 21.94 162.43 58.98 227 82.43"/><path d="M2132.01 1247.22l8.21 6.7-10.6-.12 2.39-6.58z"/></g><g class="edge" stroke="#000"><path fill="none" d="M1624.26 2886.3c18.29-5.062 35.59-13.767 47.74-28.3 53.16-63.58-18.53-682.59 36-745 16.4-18.77 41.23-27.21 65.79-30.45"/><path d="M1773.6 2079.05l10.31 2.44-9.58 4.52-.73-6.96z"/></g><g class="edge" stroke="#000"><path fill="none" d="M1624.3 2878.749c16.75-4.708 33.42-11.359 47.7-20.749 22.58-14.85 13.1-34.65 36-49 6.31-3.95 13.05-7.36 20.04-10.29"/><path d="M1727.14 2795.31l10.59-.31-8.09 6.85-2.5-6.54z"/></g><g class="edge" stroke="#000"><path fill="none" d="M1624.26 2882.709c17.42-4.971 34.37-12.729 47.74-24.709 36.12-32.35-.82-71.44 36-103 15.07-12.92 34.28-20.51 53.78-24.8"/><path d="M1761.18 2726.75l10.48 1.54-9.15 5.33-1.33-6.87z"/></g><g class="edge" stroke="#000"><path fill="none" d="M1624.08 2884.881c17.96-5.04 35.17-13.378 47.92-26.881 65.32-69.17-30.8-143.27 36-211 14.01-14.21 32.9-22.29 52.44-26.66"/><path d="M1759.9 2616.88l10.48 1.56-9.17 5.32-1.31-6.88z"/></g><g class="edge" stroke="#000"><path fill="none" d="M1624.23 2884.132c17.74-5.026 34.82-13.169 47.77-26.132 50.6-50.64-15.69-107.47 36-157 6.29-6.03 13.46-10.93 21.17-14.91"/><path d="M1727.9 2682.83l10.55-.99-7.64 7.35-2.91-6.36z"/></g><g class="node"><path fill="wheat" stroke="#000" d="M1958 2818h-208v36h208v-36z"/><text text-anchor="middle" x="1850" y="-1029.6" font-family="Times Roman,serif" font-size="16" fill="#00f" transform="translate(4 3870)">HI_MPI_VDEC_ChanStart</text></g><g class="edge" stroke="#000"><path fill="none" d="M1624.13 2874.67c35.81-6.03 77.34-13.01 115.16-19.37"/><path d="M1738.89 2851.81l10.44 1.8-9.28 5.11-1.16-6.91z"/></g><g class="edge" stroke="#000"><path fill="none" d="M1028.32 2415.97c3.5-2.65 6.75-5.62 9.68-8.97 57.52-65.61-24.96-328.57 36-391 88.77-90.92 186.22 48.16 284-33 41.54-34.48-5.41-81.37 36-116 27.91-23.34 245.96-42.15 371.57-51.18"/><path d="M1765.34 1812.32l10.23 2.78-9.73 4.21-.5-6.99z"/></g><g class="edge" stroke="#000"><path fill="none" d="M940.986 2452.04c29.512 23.91 83.914 66.91 133.014 99.96 32.7 22.01 71.27 44.63 99.96 60.84"/><path d="M1175.9 2609.92l7.01 7.95-10.44-1.85 3.43-6.1z"/></g><g class="edge" stroke="#000"><path fill="none" d="M945.348 1018.87c25.005-17.76 63.062-46.26 92.652-74.87 17.92-17.33 14.72-30.02 36-43 6.23-3.8 12.86-7.15 19.72-10.1"/><path d="M1092.62 887.57l10.59-.46-7.99 6.96-2.6-6.5z"/></g><g class="edge" stroke="#000"><path fill="none" d="M927.676 1018.92C947.539 979.65 1000.343 886.51 1074 842c29.4-17.76 67.95-24.25 97.46-26.44"/><path d="M1171.3 812.06l10.2 2.89-9.78 4.1-.42-6.99z"/></g><g class="edge" stroke="#000"><path fill="none" d="M935.135 1055.19C962.294 1087.1 1016.3 1156.41 1038 1226c27.94 89.61-25.38 772.99 36 844 1.21 1.4 2.47 2.75 3.78 4.04"/><path d="M1080.39 2071.66l5.33 9.15-9.88-3.83 4.55-5.32z"/></g><g class="edge" stroke="#000"><path fill="none" d="M1022.04 1037h84.97"/><path d="M1107.14 1033.5l10 3.5-10 3.5v-7z"/></g><g class="edge" stroke="#000"><path fill="none" d="M999.074 736.05c13.086 3.37 26.436 7.06 38.926 10.95 46.34 14.43 98.02 34.66 133.71 49.29"/><path d="M1173.42 793.21l7.91 7.05-10.58-.58 2.67-6.47z"/></g><g class="node"><path fill="wheat" stroke="#000" d="M1298 651h-164v36h164v-36z"/><text text-anchor="middle" x="1212" y="-3196.6" font-family="Times Roman,serif" font-size="16" fill="#00f" transform="translate(4 3870)">HI_SYS_GetVersion</text></g><g class="edge" stroke="#000"><path fill="none" d="M1006.5 703.56c36.84-6.07 79.73-13.15 117.08-19.31"/><path d="M1123.01 680.79l10.44 1.83-9.3 5.08-1.14-6.91z"/></g><g class="node"><path fill="wheat" stroke="#000" d="M1291 1073h-150v36h150v-36z"/><text text-anchor="middle" x="1212" y="-2774.6" font-family="Times Roman,serif" font-size="16" fill="#00f" transform="translate(4 3870)">AVPLAY_ProcEos</text></g><g class="edge" stroke="#000"><path fill="none" d="M1006.62 726.14c11.93 4.61 22.94 11.29 31.38 20.86 93.75 106.38-60.444 213.06 36 317 14.59 15.72 35.26 23.96 56.33 27.95"/><path d="M1131.02 1088.51l9.33 5.03-10.42 1.89 1.09-6.92z"/></g><g class="node"><path fill="wheat" stroke="#000" d="M1312 489h-192v36h192v-36z"/><text text-anchor="middle" x="1212" y="-3358.6" font-family="Times Roman,serif" font-size="16" fill="#00f" transform="translate(4 3870)">AVPLAY_ProcVidEvent</text></g><g class="edge" stroke="#000"><path fill="none" d="M928.587 699.81c20.888-37.7 74.39-124.26 145.413-165.81 11.13-6.51 23.52-11.5 36.21-15.31"/><path d="M1109.38 515.29l10.57.71-8.7 6.04-1.87-6.75z"/></g><g class="node"><path fill="wheat" stroke="#000" d="M1315 543h-198v36h198v-36z"/><text text-anchor="middle" x="1212" y="-3304.6" font-family="Times Roman,serif" font-size="16" fill="#00f" transform="translate(4 3870)">AVPLAY_ProcAudEvent</text></g><g class="edge" stroke="#000"><path fill="none" d="M934.608 699.97C960.491 671.34 1015.29 615.85 1074 588c10.45-4.96 21.74-9 33.23-12.31"/><path d="M1106.35 572.3l10.57.79-8.75 5.97-1.82-6.76z"/></g><g class="node"><path fill="wheat" stroke="#000" d="M1319 705h-206v36h206v-36z"/><text text-anchor="middle" x="1212" y="-3142.6" font-family="Times Roman,serif" font-size="16" fill="#00f" transform="translate(4 3870)">AVPLAY_ProcSyncEvent</text></g><g class="edge" stroke="#000"><path fill="none" d="M1006.5 719.47c30.11.51 64.27 1.09 96.13 1.62"/><path d="M1102.95 717.6l9.94 3.66-10.06 3.34.12-7z"/></g><g class="node"><path fill="wheat" stroke="#000" d="M1324 597h-216v36h216v-36z"/><text text-anchor="middle" x="1212" y="-3250.6" font-family="Times Roman,serif" font-size="16" fill="#00f" transform="translate(4 3870)">AVPLAY_ProcUnloadTime</text></g><g class="edge" stroke="#000"><path fill="none" d="M949.714 699.86C980.257 682.58 1028.94 657.03 1074 642c7.62-2.54 15.55-4.87 23.59-6.99"/><path d="M1096.9 631.57l10.55.94-8.83 5.85-1.72-6.79z"/></g><g class="edge" stroke="#000"><path fill="none" d="M1291.71 1088.02c24.54 3.1 49.69 11.33 66.29 29.98 74.07 83.21-34.01 413.35 36 500 80.88 100.1 194.26-16.72 278 81 80.49 93.94-26.03 168.97 36 276 22.69 39.16 65.19 69.05 98.51 87.9"/><path d="M1808.57 2060.03l7.07 7.89-10.45-1.75 3.38-6.14z"/></g><g class="edge" stroke="#000"><path fill="none" d="M1291.65 1088.07c24.54 3.1 49.7 11.32 66.35 29.93 69.41 77.57-32.44 388.58 36 467 83.12 95.23 157.45 21.99 278 60 150.84 47.55 230.46 13.51 328 138 150.1 191.58 183.89 1011.43 189.17 1174.666"/><path d="M2192.68 2957.758l-3.19 10.105-3.81-9.885 7-.22z"/></g><g class="edge" stroke="#000"><path fill="none" d="M1291.62 1087.73c24.69 3.03 49.95 11.3 66.38 30.27 58.48 67.51-24.21 737.04 36 803 84.08 92.1 188.27-48.6 278 38 67.51 65.15-13.25 128.15 36 208 23.3 37.77 65.12 66.66 98.05 85.01"/><path d="M1807.95 2249.07l7.12 7.84-10.45-1.69 3.33-6.15z"/></g><g class="edge" stroke="#000"><path fill="none" d="M1291.7 1093.19c24.24-3.23 49.2-11.34 66.3-29.19 76.73-80.12-30.17-157.95 36-247 15.22-20.49 38.52-34.74 61.71-44.56"/><path d="M1454.69 769.08l10.58-.45-7.99 6.95-2.59-6.5z"/></g><g class="edge" stroke="#000"><path fill="none" d="M1291.81 1094.06c24.55-3.08 49.68-11.33 66.19-30.06 84.96-96.36-55.33-486.65 36-577 47.28-46.77 472.36-46.42 681.22-43.34"/><path d="M2075.36 440.16l9.94 3.65-10.05 3.35.11-7z"/></g><g class="edge" stroke="#000"><path fill="none" d="M1291.81 1087.94c24.55 3.08 49.68 11.33 66.19 30.06 84.82 96.19-46.96 478.2 36 576 2.28 2.69 4.74 5.18 7.35 7.49"/><path d="M1403.82 1698.97l5.78 8.88-10.05-3.34 4.27-5.54z"/></g><g class="node"><path fill="wheat" stroke="#000" d="M1657 1140h-248v36h248v-36z"/><text text-anchor="middle" x="1529" y="-2707.6" font-family="Times Roman,serif" font-size="16" fill="#00f" transform="translate(4 3870)">HI_MPI_AO_Track_IsBufEmpty</text></g><g class="edge" stroke="#000"><path fill="none" d="M1291.64 1104.85c21.48 4.07 44.87 8.65 66.36 13.15 9.14 1.91 48.07 10.8 86.9 19.71"/><path d="M1445.79 1134.33l8.97 5.65-10.53 1.17 1.56-6.82z"/></g><g class="node"><path fill="wheat" stroke="#000" d="M1591 1194h-116v36h116v-36z"/><text text-anchor="middle" x="1529" y="-2653.6" font-family="Times Roman,serif" font-size="16" fill="#00f" transform="translate(4 3870)">AVPLAY_Eos</text></g><g class="edge" stroke="#000"><path fill="none" d="M1291.77 1092.99c23.01 3.71 47.21 11.06 66.23 25.01 27.26 19.99 8.78 46.95 36 67 20.18 14.86 46.33 22.17 70.49 25.58"/><path d="M1465.19 1207.14l9.51 4.67-10.35 2.28.84-6.95z"/></g><g class="edge" stroke="#000"><path fill="none" d="M1312.03 507.85c17.5 4.59 33.98 12.64 45.97 26.15 77.04 86.79-42.82 435.82 36 521 84.83 91.66 194.47-51.85 278 41 65.38 72.67-9.21 792.34 36 879 20.82 39.91 63.17 69.59 96.92 88.17"/><path d="M1806.57 2060.08l7.17 7.8-10.47-1.62 3.3-6.18z"/></g><g class="edge" stroke="#000"><path fill="none" d="M1312.3 509.36c17.05 4.56 33.29 12.21 45.7 24.64 61.03 61.13-24.91 129.75 36 191 16.16 16.25 38.97 24.24 61.46 27.84"/><path d="M1455.95 749.37l9.45 4.79-10.37 2.15.92-6.94z"/></g><g class="node"><path fill="wheat" stroke="#000" d="M1661 112h-256v36h256v-36z"/><text text-anchor="middle" x="1529" y="-3735.6" font-family="Times Roman,serif" font-size="16" fill="#00f" transform="translate(4 3870)">HI_MPI_VDEC_CheckNewEvent</text></g><g class="edge" stroke="#000"><path fill="none" d="M1219.4 488.92c11.99-58.52 58.12-244.09 174.6-331.92 1.66-1.25 3.35-2.44 5.09-3.59"/><path d="M1397.67 150.18l10.38-2.08-6.82 8.11-3.56-6.03z"/></g><g class="node"><path fill="wheat" stroke="#000" d="M1669 4h-272v36h272V4z"/><text text-anchor="middle" x="1529" y="-3843.6" font-family="Times Roman,serif" font-size="16" fill="#00f" transform="translate(4 3870)">HI_MPI_VDEC_ChanRecvUsrData</text></g><g class="edge" stroke="#000"><path fill="none" d="M1217.1 488.57c5.19-69.77 33.53-319.79 176.9-439.57 1.36-1.14 2.76-2.23 4.18-3.29"/><path d="M1396.39 42.7l10.28-2.58-6.42 8.43-3.86-5.85z"/></g><g class="node"><path fill="wheat" stroke="#000" d="M1637 58h-208v36h208V58z"/><text text-anchor="middle" x="1529" y="-3789.6" font-family="Times Roman,serif" font-size="16" fill="#00f" transform="translate(4 3870)">HI_MPI_SYNC_SetExtInfo</text></g><g class="edge" stroke="#000"><path fill="none" d="M1218.09 488.95C1226.5 424.9 1264.03 206.78 1394 103c7.49-5.98 15.91-10.76 24.82-14.57"/><path d="M1417.67 85.12l10.59-.33-8.08 6.86-2.51-6.53z"/></g><g class="edge" stroke="#000"><path fill="none" d="M1315.19 571.25c14.92 3.95 29.69 9.36 42.81 16.75 20.84 11.74 14.96 28.62 36 40 109.98 59.47 161.47-2.3 278 43 17.92 6.97 18.18 16.77 36 24 19.69 7.99 41.84 13.63 62.83 17.61"/><path d="M1771.47 709.17l9.22 5.21-10.46 1.68 1.24-6.89z"/></g><g class="edge" stroke="#000"><path fill="none" d="M1315.27 565.08c15.78 4.57 30.8 11.79 42.73 22.92 46.03 42.95-9.94 93.96 36 137 16.49 15.45 39.06 23.29 61.22 26.98"/><path d="M1455.93 748.55l9.41 4.85-10.39 2.08.98-6.93z"/></g><g class="node"><path fill="wheat" stroke="#000" d="M1661 166h-256v36h256v-36z"/><text text-anchor="middle" x="1529" y="-3681.6" font-family="Times Roman,serif" font-size="16" fill="#00f" transform="translate(4 3870)">HI_MPI_ADEC_CheckNewEvent</text></g><g class="edge" stroke="#000"><path fill="none" d="M1315.23 558.75c16.18-4.68 31.35-12.41 42.77-24.75 98.14-105.99-61.93-216.82 36-323 .79-.86 1.6-1.69 2.43-2.51"/><path d="M1394.45 205.58l9.88-3.83-5.34 9.15-4.54-5.32z"/></g><g class="edge" stroke="#000"><path fill="none" d="M1292.8 741.12c24.8 9.74 49.83 24.55 65.2 46.88 70.59 102.53-42.67 462.53 36 559 80.95 99.27 197.01-23.23 278 76 77.73 95.23-22.17 443.71 36 552 21.28 39.61 63.51 69.3 97.1 87.96"/><path d="M1807.18 2060.1l7.14 7.83-10.46-1.67 3.32-6.16z"/></g><g class="edge" stroke="#000"><path fill="none" d="M1319.36 732.46c44.14 4.03 94.79 8.67 135.7 12.41"/><path d="M1455.6 741.4l9.64 4.4-10.28 2.58.64-6.98z"/></g><g class="node"><path fill="wheat" stroke="#000" d="M1661 328h-256v36h256v-36z"/><text text-anchor="middle" x="1529" y="-3519.6" font-family="Times Roman,serif" font-size="16" fill="#00f" transform="translate(4 3870)">HI_MPI_SYNC_CheckNewEvent</text></g><g class="edge" stroke="#000"><path fill="none" d="M1319.18 719.52c14.68-4.77 28.32-12.2 38.82-23.52 96.73-104.28-58.71-211.88 36-318a74.84 74.84 0 018.33-8"/><path d="M1400.39 367.08l10.14-3.06-6.02 8.72-4.12-5.66z"/></g><g class="edge" stroke="#000"><path fill="none" d="M1324.8 620.07c12.59 4.82 24.15 11.85 33.2 21.93 66.44 73.98-31.7 373.17 36 446 85.12 91.57 194.63-50.17 278 43 62.59 69.95-7.48 760.82 36 844 20.76 39.72 62.84 69.32 96.51 87.92"/><path d="M1806.59 2060.07l7.17 7.8-10.47-1.63 3.3-6.17z"/></g><g class="edge" stroke="#000"><path fill="none" d="M1324.64 619.77c12.7 4.84 24.33 11.96 33.36 22.23 87.79 99.78-51.6 497.04 36 597 24.75 28.24 69.44 32.39 101.47 31.15"/><path d="M1495.62 1266.63l10.18 2.92-9.78 4.07-.4-6.99z"/></g><g class="node"><path fill="wheat" stroke="#000" d="M1657 220h-248v36h248v-36z"/><text text-anchor="middle" x="1529" y="-3627.6" font-family="Times Roman,serif" font-size="16" fill="#00f" transform="translate(4 3870)">HI_MPI_WIN_GetUnloadTimes</text></g><g class="edge" stroke="#000"><path fill="none" d="M1324.51 609.67c12.64-4.78 24.28-11.73 33.49-21.67 98.14-105.99-61.93-216.82 36-323a73.34 73.34 0 016.57-6.28"/><path d="M1398.68 255.76l10.13-3.11-5.97 8.75-4.16-5.64z"/></g><g class="node"><path fill="wheat" stroke="#000" d="M1666 274h-266v36h266v-36z"/><text text-anchor="middle" x="1529" y="-3573.6" font-family="Times Roman,serif" font-size="16" fill="#00f" transform="translate(4 3870)">HI_MPI_AO_SND_GetXrunCount</text></g><g class="edge" stroke="#000"><path fill="none" d="M1324.66 609.35c12.54-4.75 24.11-11.6 33.34-21.35 82.92-87.6-46.75-181.24 36-269 .78-.83 1.58-1.63 2.39-2.42"/><path d="M1394.23 313.83l9.9-3.78-5.39 9.13-4.51-5.35z"/></g><g class="edge" stroke="#000"><path fill="none" d="M697.893 2376.99c82.266-25.5 239.555-72.22 376.107-100.99 16.97-3.58 218.94-33.13 349.24-52.08"/><path d="M1422.88 2220.44l10.4 2.02-9.39 4.9-1.01-6.92z"/></g></g></svg>