<svg width="2348pt" height="3874pt" viewBox="0 0 2348 3874" xmlns="http://www.w3.org/2000/svg"><g id="graph1" class="graph" transform="translate(4 3870)"><path fill="#fff" stroke="#fff" d="M-4 5v-3875h2349V5H-4z"/><g id="node1" class="node"><path fill="wheat" stroke="#000" d="M197-630H1v36h196v-36z"/><text text-anchor="middle" x="99" y="-607.6" font-family="Times Roman,serif" font-size="16" fill="#00f">HI_MPI_AVPLAY_Create</text></g><g id="node3" class="node"><path fill="wheat" stroke="#000" d="M1920-1802h-140v36h140v-36z"/><text text-anchor="middle" x="1850" y="-1779.6" font-family="Times Roman,serif" font-size="16" fill="#00f">HI_ERR_AVPLAY</text></g><g id="edge2" class="edge" stroke="#000"><path fill="none" d="M103.29-630.022C130.26-738.417 286.676-1299 637-1299h278c195.29 0 279.02 93.01 439-19 34.28-24 2.73-61.61 36-87 99-75.55 190.48 53.59 278-35 99.65-100.87-60.71-213.3 36-317 16.84-18.06 41.52-26.38 65.82-29.73"/><path d="M1769.49-1790.22l10.33 2.38-9.55 4.58-.78-6.96z"/></g><g id="node5" class="node"><path fill="wheat" stroke="#000" d="M431-738H281v36h150v-36z"/><text text-anchor="middle" x="356" y="-715.6" font-family="Times Roman,serif" font-size="16" fill="#00f">HI_AVPLAY_LOCK</text></g><g id="edge4" class="edge" stroke="#000"><path fill="none" d="M123.6-630.114C149.731-648.529 192.865-676.613 234-693c11.688-4.656 24.341-8.588 36.923-11.886"/><path d="M270.429-708.37l10.55.974-8.855 5.818-1.695-6.792z"/></g><g id="node7" class="node"><path fill="wheat" stroke="#000" d="M442-684H270v36h172v-36z"/><text text-anchor="middle" x="356" y="-661.6" font-family="Times Roman,serif" font-size="16" fill="#00f">HI_AVPLAY_UNLOCK</text></g><g id="edge6" class="edge" stroke="#000"><path fill="none" d="M184.935-630.056l75.129-15.786"/><path d="M259.64-649.33l10.506 1.369-9.066 5.482-1.44-6.851z"/></g><g id="node9" class="node"><path fill="wheat" stroke="#000" d="M1556-2622h-54v36h54v-36z"/><text text-anchor="middle" x="1529" y="-2599.6" font-family="Times Roman,serif" font-size="16" fill="#00f">ioctl</text></g><g id="edge8" class="edge" stroke="#000"><path fill="none" d="M100.15-630.161C107.076-735.01 145.936-1262.85 234-1395c117.669-176.58 190.806-256 403-256h278c199.63 0 310.32 57.62 439-95 59.57-70.66-24.32-760.98 36-831 24.58-28.53 69.51-32.58 101.64-31.24"/><path d="M1492.23-2611.71l9.77 4.11-10.2 2.88.43-6.99z"/></g><g id="node11" class="node"><path fill="wheat" stroke="#000" d="M400-630h-88v36h88v-36z"/><text text-anchor="middle" x="356" y="-607.6" font-family="Times Roman,serif" font-size="16" fill="#00f">HI_MMAP</text></g><g id="edge10" class="edge" stroke="#000"><path fill="none" d="M197.628-612h103.397"/><path d="M301.317-615.5l10 3.5-10 3.5v-7z"/></g><g id="node13" class="node"><path fill="wheat" stroke="#000" d="M1923-3166h-146v36h146v-36z"/><text text-anchor="middle" x="1850" y="-3143.6" font-family="Times Roman,serif" font-size="16" fill="#00f">HI_INFO_AVPLAY</text></g><g id="edge12" class="edge" stroke="#000"><path fill="none" d="M99.459-630.08C104.63-830.861 153.339-2640.56 234-2863c102.817-283.54 101.391-546 403-546h278c195.29 0 284.16-100.02 439 19 42.46 32.64-4.72 80.21 36 115 94.96 81.12 173.85-27.93 278 41 25.62 16.95 10.7 41.58 36 59 18.32 12.61 40.88 19.79 62.73 23.76"/><path d="M1767.39-3154.68l9.32 5.05-10.43 1.86 1.11-6.91z"/></g><g id="node15" class="node"><path fill="wheat" stroke="#000" d="M409-576H303v36h106v-36z"/><text text-anchor="middle" x="356" y="-553.6" font-family="Times Roman,serif" font-size="16" fill="#00f">HI_MALLOC</text></g><g id="edge14" class="edge" stroke="#000"><path fill="none" d="M184.935-593.944l107.605 22.61"/><path d="M293.291-574.753l9.067 5.482-10.506 1.369 1.439-6.851z"/></g><g id="node17" class="node"><path fill="wheat" stroke="#000" d="M441-522H271v36h170v-36z"/><text text-anchor="middle" x="356" y="-499.6" font-family="Times Roman,serif" font-size="16" fill="#00f">pthread_mutex_init</text></g><g id="edge16" class="edge" stroke="#000"><path fill="none" d="M123.6-593.886C149.731-575.471 192.865-547.387 234-531c8.436 3.361 17.375 6.344 26.427 8.984"/><path d="M261.574-525.33l8.701 6.045-10.572.7 1.871-6.745z"/></g><g id="node19" class="node"><path fill="wheat" stroke="#000" d="M1006-3114H824v36h182v-36z"/><text text-anchor="middle" x="915" y="-3091.6" font-family="Times Roman,serif" font-size="16" fill="#00f">AVPLAY_Mutex_Lock</text></g><g id="edge18" class="edge" stroke="#000"><path fill="none" d="M100.065-630.246C106.339-733.271 141.435-1252.26 234-1665c88.243-393.46 22.916-552.34 280-863 79.512-96.08 176.953-31.14 246-135 84.863-127.65-39.353-209.52 36-343 16.346-28.96 46.219-51.5 71.944-66.79"/><path d="M866.425-3075.95l10.416-1.94-6.933 8.01-3.483-6.07z"/></g><g id="node23" class="node"><path fill="wheat" stroke="#000" d="M1892-1940h-84v36h84v-36z"/><text text-anchor="middle" x="1850" y="-1917.6" font-family="Times Roman,serif" font-size="16" fill="#00f">memcpy</text></g><g id="edge22" class="edge" stroke="#000"><path fill="none" d="M106.111-630.261C122.521-670.063 166.849-765.21 234-817c149.689-115.446 213.965-136 403-136h278c10.536 0 745.83-84.28 753-92 57.96-62.45-3.64-690.58 36-766 20.85-39.68 62.91-69.28 96.56-87.89"/><path d="M1799.33-1902.21l10.47-1.64-7.16 7.81-3.31-6.17z"/></g><g id="node25" class="node"><path fill="wheat" stroke="#000" d="M454-468H258v36h196v-36z"/><text text-anchor="middle" x="356" y="-445.6" font-family="Times Roman,serif" font-size="16" fill="#00f">HI_SYS_GetMemConfig</text></g><g id="edge24" class="edge" stroke="#000"><path fill="none" d="M111.636-593.888C133.172-564.477 179.944-506.644 234-477c4.578 2.511 9.374 4.788 14.306 6.853"/><path d="M249.869-473.295l8.069 6.865-10.59-.335 2.521-6.53z"/></g><g id="node27" class="node"><path fill="wheat" stroke="#000" d="M2226-902h-80v36h80v-36z"/><text text-anchor="middle" x="2186" y="-879.6" font-family="Times Roman,serif" font-size="16" fill="#00f">memset</text></g><g id="edge26" class="edge" stroke="#000"><path fill="none" d="M110.368-630.374C130.707-661.291 176.614-722.713 234-747c36.688-15.527 1394.17-21.087 1434-22 145.81-3.341 206.36 70.467 328-10 31.84-21.065 5.74-54.712 36-78 29.31-22.558 71.04-28.752 103.68-29.611"/><path d="M2135.89-890.113l10.03 3.397-9.96 3.602-.07-6.999z"/></g><g id="node29" class="node"><path fill="wheat" stroke="#000" d="M435-414H277v36h158v-36z"/><text text-anchor="middle" x="356" y="-391.6" font-family="Times Roman,serif" font-size="16" fill="#00f">AVPLAY_FrcCreate</text></g><g id="edge28" class="edge" stroke="#000"><path fill="none" d="M106.52-593.783C123.288-555.564 167.568-466.922 234-423c9.896 6.543 21.132 11.522 32.683 15.308"/><path d="M267.853-410.995l8.584 6.21-10.583.498 1.999-6.708z"/></g><g id="node31" class="node"><path fill="wheat" stroke="#000" d="M1629-814h-200v36h200v-36z"/><text text-anchor="middle" x="1529" y="-791.6" font-family="Times Roman,serif" font-size="16" fill="#00f">AVPLAY_ResetProcFlag</text></g><g id="edge30" class="edge" stroke="#000"><path fill="none" d="M107.166-630.09C124.548-666.159 169.005-746.436 234-780c159.426-82.328 223.572-24 403-24h278c176.15 0 380.69 3.333 503.6 5.696"/><path d="M1418.84-801.8l9.93 3.693-10.07 3.306.14-6.999z"/></g><g id="node34" class="node"><path fill="wheat" stroke="#000" d="M477-360H235v36h242v-36z"/><text text-anchor="middle" x="356" y="-337.6" font-family="Times Roman,serif" font-size="16" fill="#00f">HI_MPI_SYNC_GetDefaultAttr</text></g><g id="edge34" class="edge" stroke="#000"><path fill="none" d="M103.496-593.952C115.831-548.389 154.689-428.143 234-369a94.82 94.82 0 005.671 3.911"/><path d="M241.526-368.06l6.943 8.004-10.418-1.928 3.475-6.076z"/></g><g id="node36" class="node"><path fill="wheat" stroke="#000" d="M447-306H265v36h182v-36z"/><text text-anchor="middle" x="356" y="-283.6" font-family="Times Roman,serif" font-size="16" fill="#00f">HI_MPI_SYNC_Create</text></g><g id="edge36" class="edge" stroke="#000"><path fill="none" d="M101.559-593.931C109.946-541.765 141.587-389.881 234-315c6.542 5.301 13.904 9.615 21.688 13.119"/><path d="M257.03-305.114l7.965 6.986-10.583-.493 2.618-6.493z"/></g><g id="node38" class="node"><path fill="wheat" stroke="#000" d="M454-2854H258v36h196v-36z"/><text text-anchor="middle" x="356" y="-2831.6" font-family="Times Roman,serif" font-size="16" fill="#00f">AVPLAY_CreateThread</text></g><g id="edge38" class="edge" stroke="#000"><path fill="none" d="M99.341-630.173C102.742-804.079 132.568-2176.13 234-2572c23.507-91.75 78.066-190.78 105.551-237.17"/><path d="M336.689-2811.2l8.138-6.78-2.131 10.38-6.007-3.6z"/></g><g id="node359" class="node"><path fill="wheat" stroke="#000" d="M739-1493H535v36h204v-36z"/><text text-anchor="middle" x="637" y="-1470.6" font-family="Times Roman,serif" font-size="16" fill="#00f">AVPLAY_Mutex_UnLock</text></g><g id="edge462" class="edge" stroke="#000"><path fill="none" d="M100.176-630.094C106.934-728.972 143.734-1203.5 234-1313c72.195-87.58 198.808-128.17 290.891-146.76"/><path d="M524.329-1463.22l10.486 1.52-9.14 5.35-1.346-6.87z"/></g><g id="node362" class="node"><path fill="wheat" stroke="#000" d="M451-252H261v36h190v-36z"/><text text-anchor="middle" x="356" y="-229.6" font-family="Times Roman,serif" font-size="16" fill="#00f">HI_MPI_SYNC_Destroy</text></g><g id="edge466" class="edge" stroke="#000"><path fill="none" d="M100.192-593.709C105.026-535.325 128.355-351.936 234-261c5.192 4.469 10.959 8.246 17.081 11.434"/><path d="M252.676-252.684l7.602 7.38-10.545-1.029 2.943-6.351z"/></g><g id="node364" class="node"><path fill="wheat" stroke="#000" d="M440-198H272v36h168v-36z"/><text text-anchor="middle" x="356" y="-175.6" font-family="Times Roman,serif" font-size="16" fill="#00f">AVPLAY_FrcDestroy</text></g><g id="edge468" class="edge" stroke="#000"><path fill="none" d="M102.566-593.951C117.01-522.635 173.297-261.7 234-207c8.143 7.338 17.825 12.831 28.121 16.922"/><path d="M263.449-193.321l8.273 6.618-10.594-.015 2.321-6.603z"/></g><g id="node366" class="node"><path fill="wheat" stroke="#000" d="M459-144H253v36h206v-36z"/><text text-anchor="middle" x="356" y="-121.6" font-family="Times Roman,serif" font-size="16" fill="#00f">pthread_mutex_destroy</text></g><g id="edge470" class="edge" stroke="#000"><path fill="none" d="M101.819-593.978C114.228-516.914 166.391-216.145 234-153c3.166 2.957 6.58 5.617 10.185 8.008"/><path d="M246.048-147.957l6.866 8.07-10.399-2.027 3.533-6.043z"/></g><g id="node368" class="node"><path fill="wheat" stroke="#000" d="M396-90h-80v36h80v-36z"/><text text-anchor="middle" x="356" y="-67.6" font-family="Times Roman,serif" font-size="16" fill="#00f">HI_FREE</text></g><g id="edge472" class="edge" stroke="#000"><path fill="none" d="M101.244-593.864C111.838-511.151 159.472-170.639 234-99c18.748 18.021 46.689 25.085 71.102 27.502"/><path d="M305.604-74.97l9.708 4.242-10.235 2.738.527-6.98z"/></g><g id="node370" class="node"><path fill="wheat" stroke="#000" d="M412-36H300V0h112v-36z"/><text text-anchor="middle" x="356" y="-13.6" font-family="Times Roman,serif" font-size="16" fill="#00f">HI_MUNMAP</text></g><g id="edge474" class="edge" stroke="#000"><path fill="none" d="M100.77-593.77C109.686-505.694 152.505-125.206 234-45c14.748 14.514 35.442 21.961 55.605 25.592"/><path d="M290.382-22.83l9.366 4.951-10.41 1.97 1.044-6.922z"/></g><g id="node21" class="node"><path fill="wheat" stroke="#000" d="M1618-3190h-178v36h178v-36z"/><text text-anchor="middle" x="1529" y="-3167.6" font-family="Times Roman,serif" font-size="16" fill="#00f">pthread_mutex_lock</text></g><g id="edge20" class="edge" stroke="#000"><path fill="none" d="M1006.03-3086.8c90.75 5.93 232.83 6.34 347.97-33.2 18.42-6.33 18.05-17.42 36-25 12.57-5.31 26.23-9.58 39.91-13.03"/><path d="M1429.33-3161.48l10.54 1.09-8.93 5.72-1.61-6.81z"/></g><g id="edge32" class="edge" stroke="#000"><path fill="none" d="M1629.24-788.121C1747.18-780.61 1934.71-774.687 1996-807c24.22-12.77 12.8-35.451 36-50 30.92-19.391 71.84-25.861 103.72-27.634"/><path d="M2135.6-888.132l10.14 3.077-9.85 3.917-.29-6.994z"/></g><g id="node40" class="node"><path fill="wheat" stroke="#000" d="M711-3070H563v36h148v-36z"/><text text-anchor="middle" x="637" y="-3047.6" font-family="Times Roman,serif" font-size="16" fill="#00f">pthread_attr_init</text></g><g id="edge40" class="edge" stroke="#000"><path fill="none" d="M365.668-2854.23C386.955-2892.49 441.783-2981.19 514-3025c11.732-7.12 25.105-12.37 38.609-16.24"/><path d="M551.883-3044.67l10.561.85-8.784 5.92-1.777-6.77z"/></g><g id="node42" class="node"><path fill="wheat" stroke="#000" d="M757-3016H517v36h240v-36z"/><text text-anchor="middle" x="637" y="-2993.6" font-family="Times Roman,serif" font-size="16" fill="#00f">pthread_attr_setschedpolicy</text></g><g id="edge42" class="edge" stroke="#000"><path fill="none" d="M371.502-2854.06c26.232-29.33 82.412-87.05 142.498-116.94a168.03 168.03 0 0111.922-5.35"/><path d="M524.994-2979.75l10.592-.25-8.124 6.81-2.468-6.56z"/></g><g id="node44" class="node"><path fill="wheat" stroke="#000" d="M760-2962H514v36h246v-36z"/><text text-anchor="middle" x="637" y="-2939.6" font-family="Times Roman,serif" font-size="16" fill="#00f">pthread_attr_getschedparam</text></g><g id="edge44" class="edge" stroke="#000"><path fill="none" d="M385.542-2854.08c30.988-18.26 81.607-46.09 128.458-62.92 6.221-2.23 12.688-4.32 19.256-6.26"/><path d="M532.36-2926.64l10.575.65-8.672 6.09-1.903-6.74z"/></g><g id="node46" class="node"><path fill="wheat" stroke="#000" d="M759-2908H515v36h244v-36z"/><text text-anchor="middle" x="637" y="-2885.6" font-family="Times Roman,serif" font-size="16" fill="#00f">pthread_attr_setschedparam</text></g><g id="edge46" class="edge" stroke="#000"><path fill="none" d="M449.96-2854.06c26.714-5.13 55.959-10.75 83.223-15.99"/><path d="M532.648-2873.51l10.481 1.55-9.16 5.32-1.321-6.87z"/></g><g id="node48" class="node"><path fill="wheat" stroke="#000" d="M705-2854H569v36h136v-36z"/><text text-anchor="middle" x="637" y="-2831.6" font-family="Times Roman,serif" font-size="16" fill="#00f">pthread_create</text></g><g id="edge48" class="edge" stroke="#000"><path fill="none" d="M454.675-2836h103.257"/><path d="M558.144-2839.5l10 3.5-10 3.5v-7z"/></g><g id="node50" class="node"><path fill="wheat" stroke="#000" d="M727-2519H547v36h180v-36z"/><text text-anchor="middle" x="637" y="-2496.6" font-family="Times Roman,serif" font-size="16" fill="#00f">AVPLAY_DataThread</text></g><g id="edge50" class="edge" stroke="#000"><path fill="none" d="M371.108-2817.99l244.182 291.11"/><path d="M618.072-2529.01l3.746 9.91-9.109-5.41 5.363-4.5z"/></g><g id="node302" class="node"><path fill="wheat" stroke="#000" d="M728-2800H546v36h182v-36z"/><text text-anchor="middle" x="637" y="-2777.6" font-family="Times Roman,serif" font-size="16" fill="#00f">pthread_attr_destroy</text></g><g id="edge386" class="edge" stroke="#000"><path fill="none" d="M449.96-2817.94c27.282 5.24 57.205 10.99 84.96 16.32"/><path d="M535.879-2805l9.16 5.33-10.481 1.55 1.321-6.88z"/></g><g id="node304" class="node"><path fill="wheat" stroke="#000" d="M1018-2851H812v36h206v-36z"/><text text-anchor="middle" x="915" y="-2828.6" font-family="Times Roman,serif" font-size="16" fill="#00f">AVPLAY_VidDataThread</text></g><g id="edge388" class="edge" stroke="#000"><path fill="none" d="M381.598-2818c30.059 19.95 82.211 50.88 132.402 63 106.281 25.66 139.624 25.26 246 0 44.15-10.48 90.008-35.63 120.278-54.56"/><path d="M878.454-2812.55l10.316-2.42-6.558 8.33-3.758-5.91z"/></g><g id="node310" class="node"><path fill="wheat" stroke="#000" d="M695-2708H579v36h116v-36z"/><text text-anchor="middle" x="637" y="-2685.6" font-family="Times Roman,serif" font-size="16" fill="#00f">pthread_join</text></g><g id="edge398" class="edge" stroke="#000"><path fill="none" d="M375.892-2817.84c28.523 25.11 83.628 70.21 138.108 95.84 17.178 8.08 36.702 14.35 55.056 19.1"/><path d="M569.953-2706.28l8.865 5.8-10.549.99 1.684-6.79z"/></g><g id="node312" class="node"><path fill="wheat" stroke="#000" d="M1002-3170H828v36h174v-36z"/><text text-anchor="middle" x="915" y="-3147.6" font-family="Times Roman,serif" font-size="16" fill="#00f">AVPLAY_StatThread</text></g><g id="edge400" class="edge" stroke="#000"><path fill="none" d="M362.088-2854.29C378.464-2900.41 428.12-3021.85 514-3079c90.525-60.24 216.857-74.46 303.392-76.21"/><path d="M817.428-3158.71l10.051 3.35-9.946 3.65-.105-7z"/></g><g id="node52" class="node"><path fill="wheat" stroke="#000" d="M950-2635h-70v36h70v-36z"/><text text-anchor="middle" x="915" y="-2612.6" font-family="Times Roman,serif" font-size="16" fill="#00f">syscall</text></g><g id="edge52" class="edge" stroke="#000"><path fill="none" d="M708.589-2519.1c17.663-6.29 35.938-14.47 51.411-24.9 20.106-13.56 15.409-28.19 36-41 22.075-13.73 50.006-21.64 73.259-26.15"/><path d="M868.78-2614.62l10.461 1.68-9.225 5.21-1.236-6.89z"/></g><g id="node54" class="node"><path fill="wheat" stroke="#000" d="M1958-2402h-216v36h216v-36z"/><text text-anchor="middle" x="1850" y="-2379.6" font-family="Times Roman,serif" font-size="16" fill="#00f">HI_SYS_GetTimeStampMs</text></g><g id="edge54" class="edge" stroke="#000"><path fill="none" d="M727.793-2490.53C897.431-2469.5 1254.35-2417.93 1354-2346c25.52 18.43 8.66 45.39 36 61 107.3 61.27 169.06 58.3 278 0 25.43-13.61 12.88-36.75 36-54 13.03-9.72 28.19-17.36 43.71-23.37"/><path d="M1746.81-2365.77l10.59-.13-8.2 6.71-2.39-6.58z"/></g><g id="node56" class="node"><path fill="wheat" stroke="#000" d="M1331-3019h-238v36h238v-36z"/><text text-anchor="middle" x="1212" y="-2996.6" font-family="Times Roman,serif" font-size="16" fill="#00f">AVPLAY_ThreadMutex_Lock</text></g><g id="edge56" class="edge" stroke="#000"><path fill="none" d="M727.387-2519.07c12.51-6.06 24.001-14.15 32.613-24.93 88.216-110.45-49.86-203.71 36-316 67.106-87.76 191.486-121.35 286.82-133.97"/><path d="M1082.47-2997.45l10.36 2.22-9.48 4.72-.88-6.94z"/></g><g id="node59" class="node"><path fill="wheat" stroke="#000" d="M1022-2543H808v36h214v-36z"/><text text-anchor="middle" x="915" y="-2520.6" font-family="Times Roman,serif" font-size="16" fill="#00f">AVPLAY_ProcDmxToAdec</text></g><g id="edge60" class="edge" stroke="#000"><path fill="none" d="M727.643-2508.83c22.084-1.9 46.028-3.97 69.183-5.97"/><path d="M796.781-2518.31l10.264 2.63-9.661 4.35-.603-6.98z"/></g><g id="node108" class="node"><path fill="wheat" stroke="#000" d="M1246-3073h-68v36h68v-36z"/><text text-anchor="middle" x="1212" y="-3050.6" font-family="Times Roman,serif" font-size="16" fill="#00f">usleep</text></g><g id="edge384" class="edge" stroke="#000"><path fill="none" d="M727.593-2518.91c12.484-6.08 23.914-14.21 32.407-25.09 53.843-68.94-18.269-323.39 36-392 90.683-114.65 283.86-123.76 371.32-121.53"/><path d="M1167.57-3061.03l9.88 3.82-10.1 3.18.22-7z"/></g><g id="node112" class="node"><path fill="wheat" stroke="#000" d="M1342-1791h-260v36h260v-36z"/><text text-anchor="middle" x="1212" y="-1768.6" font-family="Times Roman,serif" font-size="16" fill="#00f">AVPLAY_ThreadMutex_UnLock</text></g><g id="edge382" class="edge" stroke="#000"><path fill="none" d="M639.77-2482.77c13.836 88.99 77.916 477.09 156.23 566.77 69.188 79.23 184.342 114.6 275.98 130.37"/><path d="M1072.6-1789.08l9.29 5.09-10.43 1.82 1.14-6.91z"/></g><g id="node119" class="node"><path fill="wheat" stroke="#000" d="M1014-2121H816v36h198v-36z"/><text text-anchor="middle" x="915" y="-2098.6" font-family="Times Roman,serif" font-size="16" fill="#00f">AVPLAY_ProcAdecToAo</text></g><g id="edge128" class="edge" stroke="#000"><path fill="none" d="M649.667-2482.86c44.504 63.71 193.843 277.51 246.644 353.1"/><path d="M899.401-2131.44l2.857 10.2-8.596-6.2 5.739-4z"/></g><g id="node143" class="node"><path fill="wheat" stroke="#000" d="M1310-2851h-196v36h196v-36z"/><text text-anchor="middle" x="1212" y="-2828.6" font-family="Times Roman,serif" font-size="16" fill="#00f">AVPLAY_ProcVdecToVo</text></g><g id="edge158" class="edge" stroke="#000"><path fill="none" d="M686.577-2519.05C717.67-2529.83 758.78-2543.11 796-2552c52.095-12.44 199.999-.26 238-38 69.05-68.58-32.03-146.4 36-216 9.37-9.58 21-16.34 33.55-21.04"/><path d="M1102.71-2830.45l10.6.21-8.41 6.44-2.19-6.65z"/></g><g id="node214" class="node"><path fill="wheat" stroke="#000" d="M1305-1845h-186v36h186v-36z"/><text text-anchor="middle" x="1212" y="-1822.6" font-family="Times Roman,serif" font-size="16" fill="#00f">AVPLAY_ProcDmxBuf</text></g><g id="edge260" class="edge" stroke="#000"><path fill="none" d="M639.454-2482.69c9.31 63.27 47.613 275.96 156.546 406.69 53.374 64.05 273.27 178.09 369.99 226.39"/><path d="M1167.57-1852.74l7.39 7.59-10.52-1.32 3.13-6.27z"/></g><g id="node227" class="node"><path fill="wheat" stroke="#000" d="M1014-1508H816v36h198v-36z"/><text text-anchor="middle" x="915" y="-1485.6" font-family="Times Roman,serif" font-size="16" fill="#00f">AVPLAY_ProcCheckBuf</text></g><g id="edge280" class="edge" stroke="#000"><path fill="none" d="M641.334-2482.95C659.262-2408.53 729.793-2118.39 796-1882c38.43 137.21 89.593 299.75 110.022 363.93"/><path d="M909.438-1518.88l-.298 10.59-6.371-8.46 6.669-2.13z"/></g><g id="node296" class="node"><path fill="wheat" stroke="#000" d="M1034-1454H796v36h238v-36z"/><text text-anchor="middle" x="915" y="-1431.6" font-family="Times Roman,serif" font-size="16" fill="#00f">AVPLAY_ProcCheckStandBy</text></g><g id="edge376" class="edge" stroke="#000"><path fill="none" d="M638.561-2482.77C650.04-2350.55 723.004-1541.38 796-1463c.776.83 1.572 1.64 2.387 2.43"/><path d="M800.746-1463.16l5.445 9.09-9.924-3.71 4.479-5.38z"/></g><g id="edge58" class="edge" stroke="#000"><path fill="none" d="M1331.11-3013.04c8.3-3.94 16.07-8.85 22.89-14.96 40.54-36.29-4.47-80.63 36-117 11.32-10.18 25.3-17.01 39.99-21.52"/><path d="M1429.16-3169.92l10.57.76-8.74 5.99-1.83-6.75z"/></g><g id="edge68" class="edge" stroke="#000"><path fill="none" d="M990.821-2506.92c124.799 29.84 360.119 86.47 363.179 89.92 89 100.56-45.33 193.14 36 300 80.87 106.27 186.81 16.44 278 114 34.55 36.96 6.55 66.86 36 108 26.94 37.63 70.34 68.31 102.84 87.8"/><path d="M1808.84-1810.08l6.85 8.08-10.39-2.05 3.54-6.03z"/></g><g id="edge126" class="edge" stroke="#000"><path fill="none" d="M972.753-2543.08c22.802-10.12 46.927-25.2 61.247-46.92 46.56-70.64-19.91-315.5 36-379 4.27-4.85 9.11-9.06 14.36-12.69"/><path d="M1082.57-2984.7l10.35-2.25-6.69 8.22-3.66-5.97z"/></g><g id="node61" class="node"><path fill="wheat" stroke="#000" d="M1324-2689h-224v36h224v-36z"/><text text-anchor="middle" x="1212" y="-2666.6" font-family="Times Roman,serif" font-size="16" fill="#00f">HI_MPI_ADEC_GetDelayMs</text></g><g id="edge62" class="edge" stroke="#000"><path fill="none" d="M1013.04-2543.13c7.57-3.79 14.69-8.36 20.96-13.87 31.44-27.61 3.55-60.58 36-87 6.23-5.07 13.11-9.29 20.4-12.8"/><path d="M1089.26-2660.12l10.56-.76-7.78 7.19-2.78-6.43z"/></g><g id="node63" class="node"><path fill="wheat" stroke="#000" d="M1629-1848h-200v36h200v-36z"/><text text-anchor="middle" x="1529" y="-1825.6" font-family="Times Roman,serif" font-size="16" fill="#00f">HI_MPI_DMX_AcquireEs</text></g><g id="edge64" class="edge" stroke="#000"><path fill="none" d="M927.897-2506.8c23.888 32.1 78.423 98.16 142.103 127.8 57.6 26.81 240.03-12.86 284 33 75.4 78.65-36.35 407.53 36 489 7.97 8.97 17.96 15.51 28.9 20.21"/><path d="M1420.16-1840.06l8.14 6.79-10.6-.24 2.46-6.55z"/></g><g id="node65" class="node"><path fill="wheat" stroke="#000" d="M1319-2635h-214v36h214v-36z"/><text text-anchor="middle" x="1212" y="-2612.6" font-family="Times Roman,serif" font-size="16" fill="#00f">HI_MPI_ADEC_SetEosFlag</text></g><g id="edge66" class="edge" stroke="#000"><path fill="none" d="M1001.75-2543.05c11.18-3.83 22.22-8.44 32.25-13.95 19.02-10.45 16.6-23.27 36-33 7.82-3.92 16.15-7.28 24.7-10.15"/><path d="M1093.84-2603.55l10.59.36-8.5 6.32-2.09-6.68z"/></g><g id="node68" class="node"><path fill="wheat" stroke="#000" d="M1334-2581h-244v36h244v-36z"/><text text-anchor="middle" x="1212" y="-2558.6" font-family="Times Roman,serif" font-size="16" fill="#00f">HI_MPI_AO_Track_SetEosFlag</text></g><g id="edge70" class="edge" stroke="#000"><path fill="none" d="M1022.64-2538.77c18.37-2.35 37.64-4.82 56.56-7.24"/><path d="M1079-2549.51l10.36 2.2-9.47 4.74-.89-6.94z"/></g><g id="node70" class="node"><path fill="wheat" stroke="#000" d="M1630-1902h-202v36h202v-36z"/><text text-anchor="middle" x="1529" y="-1879.6" font-family="Times Roman,serif" font-size="16" fill="#00f">HI_MPI_DMX_ReleaseEs</text></g><g id="edge72" class="edge" stroke="#000"><path fill="none" d="M937.094-2506.99c28.766 22.47 81.466 60.3 132.906 79.99 119.55 45.77 197.64-46.49 284 48 69.62 76.18-31.35 384.81 36 463 7.69 8.92 17.32 15.64 27.9 20.65"/><path d="M1419.55-1898.45l7.87 7.09-10.57-.63 2.7-6.46z"/></g><g id="node72" class="node"><path fill="wheat" stroke="#000" d="M1620-2330h-182v36h182v-36z"/><text text-anchor="middle" x="1529" y="-2307.6" font-family="Times Roman,serif" font-size="16" fill="#00f">AVPLAY_GetSysTime</text></g><g id="edge74" class="edge" stroke="#000"><path fill="none" d="M1022.52-2531.22c113.75-4.2 283.36-2.88 331.48 38.22 53.44 45.65-14.63 105.25 36 154 10.65 10.25 23.96 17.18 38.1 21.77"/><path d="M1429.34-2320.51l8.66 6.11-10.58.62 1.92-6.73z"/></g><g id="node76" class="node"><path fill="wheat" stroke="#000" d="M1309-1363h-194v36h194v-36z"/><text text-anchor="middle" x="1212" y="-1340.6" font-family="Times Roman,serif" font-size="16" fill="#00f">AVPLAY_ResetAudChn</text></g><g id="edge78" class="edge" stroke="#000"><path fill="none" d="M922.157-2506.87c21.489 55.39 85.583 227.69 111.843 376.87 24.85 141.16-22.76 513.26 36 644 22.52 50.1 71.38 92.1 105.46 116.89"/><path d="M1177.67-1371.83l6.11 8.65-10.17-2.95 4.06-5.7z"/></g><g id="edge116" class="edge" stroke="#000"><path fill="none" d="M973.196-2543.13c22.734-10.11 46.694-25.16 60.804-46.87 53.23-81.88-29.31-365.39 36-438 24-26.69 65.5-31.98 97.46-31.46"/><path d="M1167.6-3062.96l9.87 3.86-10.12 3.14.25-7z"/></g><g id="node110" class="node"><path fill="wheat" stroke="#000" d="M1325-2743h-226v36h226v-36z"/><text text-anchor="middle" x="1212" y="-2720.6" font-family="Times Roman,serif" font-size="16" fill="#00f">HI_MPI_ADEC_SendStream</text></g><g id="edge118" class="edge" stroke="#000"><path fill="none" d="M1015.61-2543.14c6.74-3.81 12.98-8.38 18.39-13.86 45.44-46.02-11.13-96.71 36-141 5.85-5.5 12.46-10.04 19.54-13.79"/><path d="M1088.2-2715.03l10.54-1.09-7.56 7.43-2.98-6.34z"/></g><g id="edge120" class="edge" stroke="#000"><path fill="none" d="M921.801-2506.8c20.479 55.58 82.009 228.36 112.199 376.8 14.7 72.29-14.06 275.81 36 330 1.23 1.33 2.5 2.61 3.81 3.83"/><path d="M1076.21-1798.73l5.54 9.03-9.96-3.6 4.42-5.43z"/></g><g id="node116" class="node"><path fill="wheat" stroke="#000" d="M1596-3136h-134v36h134v-36z"/><text text-anchor="middle" x="1529" y="-3113.6" font-family="Times Roman,serif" font-size="16" fill="#00f">AVPLAY_Notify</text></g><g id="edge124" class="edge" stroke="#000"><path fill="none" d="M972.333-2543.01c22.875-10.14 47.177-25.25 61.667-46.99 42.27-63.4-16.65-285.92 36-341 88.21-92.28 186.77 39.73 284-43 39.82-33.88-2.5-76.63 36-112 16.68-15.33 39.2-23.79 61.24-28.33"/><path d="M1450.85-3117.81l10.46 1.66-9.22 5.22-1.24-6.88z"/></g><g id="node74" class="node"><path fill="wheat" stroke="#000" d="M1880-2330h-60v36h60v-36z"/><text text-anchor="middle" x="1850" y="-2307.6" font-family="Times Roman,serif" font-size="16" fill="#00f">times</text></g><g id="edge76" class="edge" stroke="#000"><path fill="none" d="M1620.13-2312h189.36"/><path d="M1809.65-2315.5l10 3.5-10 3.5v-7z"/></g><g id="edge92" class="edge" stroke="#000"><path fill="none" d="M1244.13-1363.03c35.37-19.65 94.11-51.65 145.87-76.97 121.53-59.44 194.22-17.77 278-124 54.04-68.51-25.75-131.35 36-193 17.24-17.21 41.64-25.39 65.58-28.87"/><path d="M1769.44-1789.38l10.34 2.3-9.51 4.65-.83-6.95z"/></g><g id="node78" class="node"><path fill="wheat" stroke="#000" d="M1621-1306h-184v36h184v-36z"/><text text-anchor="middle" x="1529" y="-1283.6" font-family="Times Roman,serif" font-size="16" fill="#00f">AVPLAY_StopAudChn</text></g><g id="edge80" class="edge" stroke="#000"><path fill="none" d="M1309.26-1327.51c37.09 6.67 79.47 14.29 117.05 21.04"/><path d="M1427.04-1309.89l9.22 5.21-10.46 1.68 1.24-6.89z"/></g><g id="node90" class="node"><path fill="wheat" stroke="#000" d="M1623-1360h-188v36h188v-36z"/><text text-anchor="middle" x="1529" y="-1337.6" font-family="Times Roman,serif" font-size="16" fill="#00f">AVPLAY_StartAudChn</text></g><g id="edge94" class="edge" stroke="#000"><path fill="none" d="M1309.26-1344.08c36.52.35 78.16.74 115.3 1.09"/><path d="M1424.94-1346.49l9.97 3.6-10.03 3.4.06-7z"/></g><g id="edge84" class="edge" stroke="#000"><path fill="none" d="M1621.83-1289.07c17.53-4.51 34.12-12.47 46.17-25.93 65.73-73.43-30.06-368.87 36-442 16.63-18.41 41.39-26.79 65.82-30.09"/><path d="M1769.55-1790.58l10.32 2.41-9.57 4.55-.75-6.96z"/></g><g id="node80" class="node"><path fill="wheat" stroke="#000" d="M1932-1322h-164v36h164v-36z"/><text text-anchor="middle" x="1850" y="-1299.6" font-family="Times Roman,serif" font-size="16" fill="#00f">HI_MPI_ADEC_Stop</text></g><g id="edge82" class="edge" stroke="#000"><path fill="none" d="M1621.85-1292.63c42.68-2.13 93.18-4.64 135.8-6.77"/><path d="M1757.58-1302.9l10.16 3-9.81 3.99-.35-6.99z"/></g><g id="node83" class="node"><path fill="wheat" stroke="#000" d="M1966-1106h-232v36h232v-36z"/><text text-anchor="middle" x="1850" y="-1083.6" font-family="Times Roman,serif" font-size="16" fill="#00f">HI_MPI_DMX_CloseChannel</text></g><g id="edge86" class="edge" stroke="#000"><path fill="none" d="M1621.68-1285.02c17.12 4.45 33.59 11.91 46.32 24.02 48.42 46.06-12.63 100.15 36 146 6.07 5.72 12.93 10.42 20.29 14.28"/><path d="M1726.27-1103.66l7.59 7.38-10.54-1.03 2.95-6.35z"/></g><g id="node85" class="node"><path fill="wheat" stroke="#000" d="M1947-1376h-194v36h194v-36z"/><text text-anchor="middle" x="1850" y="-1353.6" font-family="Times Roman,serif" font-size="16" fill="#00f">HI_MPI_AO_Track_Stop</text></g><g id="edge88" class="edge" stroke="#000"><path fill="none" d="M1621.7-1302.97c15.61-3.38 31.53-7.38 46.3-12.03 16.7-5.26 19.28-10.82 36-16 12.36-3.83 25.49-7.2 38.61-10.14"/><path d="M1742.11-1344.61l10.51 1.31-9.03 5.53-1.48-6.84z"/></g><g id="node87" class="node"><path fill="wheat" stroke="#000" d="M1932-1160h-164v36h164v-36z"/><text text-anchor="middle" x="1850" y="-1137.6" font-family="Times Roman,serif" font-size="16" fill="#00f">HI_MPI_SYNC_Stop</text></g><g id="edge90" class="edge" stroke="#000"><path fill="none" d="M1621.57-1283.4c16.83 4.37 33.21 11.38 46.43 22.4 33.73 28.11 2.15 64.04 36 92 15.22 12.57 34.39 20.03 53.79 24.32"/><path d="M1758.48-1148.11l9.15 5.35-10.48 1.52 1.33-6.87z"/></g><g id="edge98" class="edge" stroke="#000"><path fill="none" d="M1623.35-1347.15c17-5.15 32.99-13.53 44.65-26.85 56.31-64.32-21.69-319.92 36-383 16.74-18.31 41.53-26.66 65.95-29.97"/><path d="M1769.68-1790.46l10.32 2.4-9.56 4.56-.76-6.96z"/></g><g id="edge110" class="edge" stroke="#000"><path fill="none" d="M1623.14-1330.86c42.48 5.03 92.47 10.95 134.71 15.95"/><path d="M1758.33-1318.38l9.52 4.65-10.34 2.31.82-6.96z"/></g><g id="edge108" class="edge" stroke="#000"><path fill="none" d="M1623.14-1346.69c37.45-1.87 80.74-4.03 119.41-5.95"/><path d="M1742.63-1356.15l10.16 3-9.81 3.99-.35-6.99z"/></g><g id="edge102" class="edge" stroke="#000"><path fill="none" d="M1623.12-1338.64c16.6 4.49 32.5 11.86 44.88 23.64 48.42 46.06-12.63 100.15 36 146 14.68 13.84 34.03 21.74 53.83 26.04"/><path d="M1758.7-1146.36l9.18 5.28-10.47 1.6 1.29-6.88z"/></g><g id="node92" class="node"><path fill="wheat" stroke="#000" d="M1933-1268h-166v36h166v-36z"/><text text-anchor="middle" x="1850" y="-1245.6" font-family="Times Roman,serif" font-size="16" fill="#00f">HI_MPI_SYNC_Start</text></g><g id="edge96" class="edge" stroke="#000"><path fill="none" d="M1623.01-1332c15.62 3.95 31.2 9.43 44.99 17 20.39 11.2 15.56 26.89 36 38 15.96 8.67 34.19 14.61 52.24 18.67"/><path d="M1757.14-1261.71l9.09 5.45-10.5 1.4 1.41-6.85z"/></g><g id="node95" class="node"><path fill="wheat" stroke="#000" d="M1933-1484h-166v36h166v-36z"/><text text-anchor="middle" x="1850" y="-1461.6" font-family="Times Roman,serif" font-size="16" fill="#00f">HI_MPI_ADEC_Start</text></g><g id="edge100" class="edge" stroke="#000"><path fill="none" d="M1623.11-1352.36c16.04-4.81 31.74-11.73 44.89-21.64 26.38-19.87 9.2-45.71 36-65 15.25-10.98 33.65-17.89 52.18-22.17"/><path d="M1755.66-1464.64l10.5 1.41-9.09 5.45-1.41-6.86z"/></g><g id="node98" class="node"><path fill="wheat" stroke="#000" d="M1943-1613h-186v36h186v-36z"/><text text-anchor="middle" x="1850" y="-1590.6" font-family="Times Roman,serif" font-size="16" fill="#00f">HI_MPI_ADEC_GetInfo</text></g><g id="edge104" class="edge" stroke="#000"><path fill="none" d="M1623.3-1348.52c16.69-5.09 32.57-13.09 44.7-25.48 54.94-56.12-16.32-114.43 36-173 11.52-12.89 26.55-22.33 42.59-29.24"/><path d="M1745.55-1579.59l10.58-.44-8 6.94-2.58-6.5z"/></g><g id="node100" class="node"><path fill="wheat" stroke="#000" d="M1948-1430h-196v36h196v-36z"/><text text-anchor="middle" x="1850" y="-1407.6" font-family="Times Roman,serif" font-size="16" fill="#00f">HI_MPI_AO_Track_Start</text></g><g id="edge106" class="edge" stroke="#000"><path fill="none" d="M1611.92-1360.09c18.52-4.31 38.02-9.08 56.08-13.91 16.16-4.32 19.75-7.03 36-11 11.95-2.92 24.53-5.69 37.07-8.27"/><path d="M1740.62-1396.75l10.49 1.46-9.11 5.41-1.38-6.87z"/></g><g id="node104" class="node"><path fill="wheat" stroke="#000" d="M1965-1214h-230v36h230v-36z"/><text text-anchor="middle" x="1850" y="-1191.6" font-family="Times Roman,serif" font-size="16" fill="#00f">HI_MPI_DMX_OpenChannel</text></g><g id="edge112" class="edge" stroke="#000"><path fill="none" d="M1623.01-1337.02c16.32 4.4 32.15 11.32 44.99 22.02 33.73 28.11 2.15 64.04 36 92 6.29 5.19 13.25 9.52 20.63 13.1"/><path d="M1726.41-1212.94l7.77 7.2-10.57-.78 2.8-6.42z"/></g><g id="node106" class="node"><path fill="wheat" stroke="#000" d="M1975-1538h-250v36h250v-36z"/><text text-anchor="middle" x="1850" y="-1515.6" font-family="Times Roman,serif" font-size="16" fill="#00f">HI_MPI_DMX_DestroyChannel</text></g><g id="edge114" class="edge" stroke="#000"><path fill="none" d="M1623.17-1349.6c16.5-5.03 32.35-12.73 44.83-24.4 40.37-37.73-5.18-82.15 36-119a89.19 89.19 0 0111.68-8.82"/><path d="M1713.97-1504.88l10.42-1.91-6.95 7.99-3.47-6.08z"/></g><g id="node114" class="node"><path fill="wheat" stroke="#000" d="M1628-1680h-198v36h198v-36z"/><text text-anchor="middle" x="1529" y="-1657.6" font-family="Times Roman,serif" font-size="16" fill="#00f">pthread_mutex_unlock</text></g><g id="edge122" class="edge" stroke="#000"><path fill="none" d="M1263.64-1754.92c55.84 19.55 144.8 50.7 204.12 71.48"/><path d="M1469.1-1686.68l8.29 6.61h-10.6l2.31-6.61z"/></g><g id="edge156" class="edge" stroke="#000"><path fill="none" d="M916.307-2084.59c5.458 61.26 32.225 258.91 153.693 338.59 57.4 37.65 512.14-8.05 699.63-28.79"/><path d="M1769.37-1778.28l10.33 2.37-9.55 4.58-.78-6.95z"/></g><g id="edge130" class="edge" stroke="#000"><path fill="none" d="M919.266-2084.87C936.01-2013.21 998.069-1742.54 1034-1517c21.82 136.98-26.2 186.02 36 310 77.82 155.12 162.74 143.84 284 268 16.71 17.111 14.24 30.064 36 40 67.43 30.797 580.89 20.51 745.43 16.37"/><path d="M2135.67-886.137l10.09 3.244-9.91 3.754-.18-6.998z"/></g><g id="edge138" class="edge" stroke="#000"><path fill="none" d="M921.974-2121.17c20.97-55.48 83.746-228.01 112.026-376.83 18.02-94.86-18.35-353.19 36-433 14.96-21.96 38.86-37.32 62.83-47.93"/><path d="M1131.78-2982.28l10.58-.62-7.88 7.08-2.7-6.46z"/></g><g id="edge144" class="edge" stroke="#000"><path fill="none" d="M917.029-2084.58c7.672 60.61 40.454 255.72 152.971 356.58 188.98 169.41 511.46 163.57 676.3 147.19"/><path d="M1746.14-1584.31l10.31 2.46-9.59 4.5-.72-6.96z"/></g><g id="edge134" class="edge" stroke="#000"><path fill="none" d="M928.186-2084.92c23.768 33.24 74.254 106.9 105.814 174.92 21.65 46.66-2.63 76.03 36 110 1.18 1.04 2.38 2.04 3.61 3"/><path d="M1075.88-1799.68l6.19 8.6-10.2-2.86 4.01-5.74z"/></g><g id="edge136" class="edge" stroke="#000"><path fill="none" d="M921.92-2121.18c20.819-55.51 83.21-228.12 112.08-376.82 16.8-86.53-25-331.38 36-395 88.13-91.92 189.77 47.66 284-38 52.33-47.57-14.06-105.04 36-155 16.26-16.23 38.99-24.9 61.36-29.35"/><path d="M1450.8-3118.81l10.45 1.74-9.25 5.16-1.2-6.9z"/></g><g id="node122" class="node"><path fill="wheat" stroke="#000" d="M1331-2283h-238v36h238v-36z"/><text text-anchor="middle" x="1212" y="-2260.6" font-family="Times Roman,serif" font-size="16" fill="#00f">HI_MPI_ADEC_ReceiveFrame</text></g><g id="edge132" class="edge" stroke="#000"><path fill="none" d="M930.038-2121.26C955.527-2150.87 1010.3-2209 1070-2238c4.11-2 8.35-3.85 12.69-5.56"/><path d="M1081.73-2246.93l10.59-.16-8.18 6.73-2.41-6.57z"/></g><g id="node127" class="node"><path fill="wheat" stroke="#000" d="M1332-2229h-240v36h240v-36z"/><text text-anchor="middle" x="1212" y="-2206.6" font-family="Times Roman,serif" font-size="16" fill="#00f">HI_MPI_ADEC_ReleaseFrame</text></g><g id="edge140" class="edge" stroke="#000"><path fill="none" d="M943.277-2121.04c30.229-18.48 80.123-46.75 126.723-62.96 6.45-2.24 13.13-4.31 19.93-6.23"/><path d="M1089.38-2193.7l10.56.79-8.75 5.97-1.81-6.76z"/></g><g id="node129" class="node"><path fill="wheat" stroke="#000" d="M1339-2175h-254v36h254v-36z"/><text text-anchor="middle" x="1212" y="-2152.6" font-family="Times Roman,serif" font-size="16" fill="#00f">HI_MPI_AO_Track_GetDelayMs</text></g><g id="edge142" class="edge" stroke="#000"><path fill="none" d="M1014.31-2121.06c28.36-5.15 59.42-10.8 88.34-16.06"/><path d="M1102.32-2140.62l10.46 1.66-9.21 5.23-1.25-6.89z"/></g><g id="node132" class="node"><path fill="wheat" stroke="#000" d="M1313-2121h-202v36h202v-36z"/><text text-anchor="middle" x="1212" y="-2098.6" font-family="Times Roman,serif" font-size="16" fill="#00f">HI_MPI_SYNC_AudJudge</text></g><g id="edge146" class="edge" stroke="#000"><path fill="none" d="M1014.72-2103h85.31"/><path d="M1100.26-2106.5l10 3.5-10 3.5v-7z"/></g><g id="node134" class="node"><path fill="wheat" stroke="#000" d="M1320-2029h-216v36h216v-36z"/><text text-anchor="middle" x="1212" y="-2006.6" font-family="Times Roman,serif" font-size="16" fill="#00f">HI_MPI_AO_Track_GetAttr</text></g><g id="edge148" class="edge" stroke="#000"><path fill="none" d="M956.843-2084.86c30.861 12.89 74.097 29.97 113.157 41.86 13.65 4.16 28.19 8.03 42.56 11.56"/><path d="M1113.56-2034.8l8.91 5.74-10.54 1.07 1.63-6.81z"/></g><g id="node136" class="node"><path fill="wheat" stroke="#000" d="M1353-1975h-282v36h282v-36z"/><text text-anchor="middle" x="1212" y="-1952.6" font-family="Times Roman,serif" font-size="16" fill="#00f">HI_MPI_AO_Track_SetSpeedAdjust</text></g><g id="edge150" class="edge" stroke="#000"><path fill="none" d="M932.687-2084.81c26.996 26.61 81.273 75.7 137.313 100.81 4.49 2.01 9.12 3.87 13.85 5.59"/><path d="M1085.33-1981.6l8.34 6.54-10.59.09 2.25-6.63z"/></g><g id="node138" class="node"><path fill="wheat" stroke="#000" d="M1330-2337h-236v36h236v-36z"/><text text-anchor="middle" x="1212" y="-2314.6" font-family="Times Roman,serif" font-size="16" fill="#00f">HI_MPI_AO_Track_SendData</text></g><g id="edge152" class="edge" stroke="#000"><path fill="none" d="M924.139-2121.1c20.404-38.4 73.618-128 145.861-170.9 4.54-2.69 9.28-5.13 14.18-7.33"/><path d="M1083.18-2302.7l10.58-.57-7.92 7.05-2.66-6.48z"/></g><g id="node140" class="node"><path fill="wheat" stroke="#000" d="M1928-2078h-156v36h156v-36z"/><text text-anchor="middle" x="1850" y="-2055.6" font-family="Times Roman,serif" font-size="16" fill="#00f">HI_WARN_AVPLAY</text></g><g id="edge154" class="edge" stroke="#000"><path fill="none" d="M1004.84-2084.97c21.28 3.61 43.95 6.92 65.16 8.97 249.98 24.19 547.05 21.73 691.84 18.54"/><path d="M1761.92-2060.96l10.08 3.27-9.92 3.72-.16-6.99z"/></g><g id="edge172" class="edge" stroke="#000"><path fill="none" d="M1310.65-2839.68c16.23-5.17 31.57-13.15 43.35-25.32 59.17-61.12-25.74-129.47 36-188 45.25-42.9 218.43-19.59 278-38 17.09-5.28 19.27-11.66 36-18 20.01-7.59 42.1-14.3 62.9-19.92"/><path d="M1766.11-3132.33l10.57.82-8.77 5.94-1.8-6.76z"/></g><g id="edge166" class="edge" stroke="#000"><path fill="none" d="M1310.71-2830.71c16.33 4.66 31.69 12.37 43.29 24.71 86.86 92.36-47.15 187.28 36 283 84 96.7 155.63 38.14 278 76 41.46 12.83 87.67 28.84 123.14 41.52"/><path d="M1792.62-2408.67l8.23 6.67-10.59-.08 2.36-6.59z"/></g><g id="edge174" class="edge" stroke="#000"><path fill="none" d="M1310.86-2831.28c16.41 4.7 31.76 12.56 43.14 25.28 69.41 77.57-33.25 389.3 36 467 10.2 11.44 23.67 18.91 38.22 23.67"/><path d="M1429.25-2318.68l8.66 6.09-10.57.64 1.91-6.73z"/></g><g id="edge164" class="edge" stroke="#000"><path fill="none" d="M1310.57-2839.3c16.34-5.19 31.74-13.28 43.43-25.7 68.22-72.45-32.05-148.39 36-221 15.86-16.92 38.71-25.74 61.32-30.13"/><path d="M1450.88-3119.6l10.44 1.8-9.29 5.1-1.15-6.9z"/></g><g id="node145" class="node"><path fill="wheat" stroke="#000" d="M1648-2438h-238v36h238v-36z"/><text text-anchor="middle" x="1529" y="-2415.6" font-family="Times Roman,serif" font-size="16" fill="#00f">HI_MPI_VDEC_ReceiveFrame</text></g><g id="edge160" class="edge" stroke="#000"><path fill="none" d="M1310.61-2831.05c16.43 4.67 31.86 12.47 43.39 25.05 53.44 58.28-16.31 294.71 36 354 3.31 3.75 6.96 7.11 10.88 10.11"/><path d="M1402.95-2444.72l6.32 8.51-10.24-2.71 3.92-5.8z"/></g><g id="node147" class="node"><path fill="wheat" stroke="#000" d="M1641-2384h-224v36h224v-36z"/><text text-anchor="middle" x="1529" y="-2361.6" font-family="Times Roman,serif" font-size="16" fill="#00f">AVPLAY_DRV2UNF_VidFrm</text></g><g id="edge162" class="edge" stroke="#000"><path fill="none" d="M1310.75-2831.19c16.43 4.69 31.81 12.53 43.25 25.19 61.77 68.35-25.64 344.53 36 413 5.09 5.65 10.98 10.33 17.4 14.19"/><path d="M1409.24-2381.79l7.22 7.76-10.48-1.57 3.26-6.19z"/></g><g id="node151" class="node"><path fill="wheat" stroke="#000" d="M1995-2906h-290v36h290v-36z"/><text text-anchor="middle" x="1850" y="-2883.6" font-family="Times Roman,serif" font-size="16" fill="#00f">HI_MPI_STAT_NotifyLowDelayEvent</text></g><g id="edge168" class="edge" stroke="#000"><path fill="none" d="M1287.79-2851.08c31.44-6.78 68.41-13.83 102.21-17.92 100.76-12.19 214.74-16.96 304.03-18.68"/><path d="M1694.18-2891.18l10.06 3.32-9.93 3.68-.13-7z"/></g><g id="node153" class="node"><path fill="wheat" stroke="#000" d="M1933-2960h-166v36h166v-36z"/><text text-anchor="middle" x="1850" y="-2937.6" font-family="Times Roman,serif" font-size="16" fill="#00f">HI_MPI_STAT_Event</text></g><g id="edge170" class="edge" stroke="#000"><path fill="none" d="M1310.7-2849.8c14.84-4.07 29.71-9.07 43.3-15.2 17.99-8.11 17.58-18.9 36-26 120.44-46.43 270.86-54.67 366.21-54.37"/><path d="M1756.44-2948.87l9.97 3.57-10.02 3.43.05-7z"/></g><g id="node157" class="node"><path fill="wheat" stroke="#000" d="M1935-3496h-170v36h170v-36z"/><text text-anchor="middle" x="1850" y="-3473.6" font-family="Times Roman,serif" font-size="16" fill="#00f">AVPLAY_ProcVidFrc</text></g><g id="edge176" class="edge" stroke="#000"><path fill="none" d="M1239.75-2851.05c33.73-23.69 89.24-68.68 114.25-122.95 44.78-97.14-40.49-405.23 36-480 49.73-48.61 244.23-42.25 363.82-33.17"/><path d="M1754.38-3490.64l9.7 4.27-10.24 2.71.54-6.98z"/></g><g id="node168" class="node"><path fill="wheat" stroke="#000" d="M1639-3374h-220v36h220v-36z"/><text text-anchor="middle" x="1529" y="-3351.6" font-family="Times Roman,serif" font-size="16" fill="#00f">AVPLAY_ProcFrmToVirWin</text></g><g id="edge188" class="edge" stroke="#000"><path fill="none" d="M1239.52-2851.16c33.5-23.79 88.76-68.9 114.48-122.84 34.13-71.57-17.47-296.44 36-355 5.54-6.06 11.99-11 19.04-15.01"/><path d="M1407.74-3347.27l10.51-1.33-7.39 7.59-3.12-6.26z"/></g><g id="node175" class="node"><path fill="wheat" stroke="#000" d="M1620-2860h-182v36h182v-36z"/><text text-anchor="middle" x="1529" y="-2837.6" font-family="Times Roman,serif" font-size="16" fill="#00f">AVPLAY_ProcVidPlay</text></g><g id="edge196" class="edge" stroke="#000"><path fill="none" d="M1310.56-2835.8c37.13-1.05 79.41-2.25 116.81-3.31"/><path d="M1427.69-2842.63l10.1 3.22-9.9 3.78-.2-7z"/></g><g id="node189" class="node"><path fill="wheat" stroke="#000" d="M1943-3388h-186v36h186v-36z"/><text text-anchor="middle" x="1850" y="-3365.6" font-family="Times Roman,serif" font-size="16" fill="#00f">AVPLAY_ProcVidSync</text></g><g id="edge220" class="edge" stroke="#000"><path fill="none" d="M1239.64-2851.1c33.61-23.74 89-68.79 114.36-122.9 38.73-82.61-31.29-347.38 36-409 112.93-103.42 314.61-44.69 408.85-8.64"/><path d="M1800.12-3394.91l8.05 6.89-10.59-.36 2.54-6.53z"/></g><g id="node196" class="node"><path fill="wheat" stroke="#000" d="M1630-3320h-202v36h202v-36z"/><text text-anchor="middle" x="1529" y="-3297.6" font-family="Times Roman,serif" font-size="16" fill="#00f">AVPLAY_ProcVidRepeat</text></g><g id="edge230" class="edge" stroke="#000"><path fill="none" d="M1238.74-2851.2c32.95-23.99 87.92-69.47 115.26-122.8 46.21-90.12-16.58-138.45 36-225 21.5-35.4 60.17-62.54 91.27-80.06"/><path d="M1479.78-3282.24l10.45-1.72-7.09 7.87-3.36-6.15z"/></g><g id="node201" class="node"><path fill="wheat" stroke="#000" d="M1633-3044h-208v36h208v-36z"/><text text-anchor="middle" x="1529" y="-3021.6" font-family="Times Roman,serif" font-size="16" fill="#00f">AVPLAY_ProcVidDiscard</text></g><g id="edge238" class="edge" stroke="#000"><path fill="none" d="M1310.67-2840.63c16.03-5.1 31.3-12.82 43.33-24.37 44.49-42.71-9.12-91.96 36-134 7.42-6.91 16.06-12.3 25.33-16.47"/><path d="M1414.2-3018.79l10.59-.46-7.99 6.96-2.6-6.5z"/></g><g id="node207" class="node"><path fill="wheat" stroke="#000" d="M1653-2990h-248v36h248v-36z"/><text text-anchor="middle" x="1529" y="-2967.6" font-family="Times Roman,serif" font-size="16" fill="#00f">AVPLAY_ProcVidQuickOutput</text></g><g id="edge248" class="edge" stroke="#000"><path fill="none" d="M1310.83-2843.11c15.55-4.89 30.62-11.89 43.17-21.89 28.92-23.03 7.13-51.9 36-75 4.29-3.43 8.88-6.51 13.69-9.27"/><path d="M1402.07-2952.37l10.49-1.53-7.25 7.73-3.24-6.2z"/></g><g id="edge178" class="edge" stroke="#000"><path fill="none" d="M1911.34-3459.98c30.91 12.45 65.75 32.41 84.66 62.98 48.32 78.13 29.82 734.34 36 826 45.43 674.08 133.33 1496.82 150.9 1658.63"/><path d="M2186.4-912.593l-2.4 10.32-4.56-9.563 6.96-.757z"/></g><g id="node160" class="node"><path fill="wheat" stroke="#000" d="M2301-3120h-230v36h230v-36z"/><text text-anchor="middle" x="2186" y="-3097.6" font-family="Times Roman,serif" font-size="16" fill="#00f">AVPLAY_GetWindowByPort</text></g><g id="edge180" class="edge" stroke="#000"><path fill="none" d="M1895.18-3459.97c30.89 13.92 71.41 35.43 100.82 62.97 5.78 5.42 127.71 196.96 173.14 268.45"/><path d="M2172.13-3130.38l2.4 10.32-8.31-6.56 5.91-3.76z"/></g><g id="node162" class="node"><path fill="wheat" stroke="#000" d="M2290-3442h-208v36h208v-36z"/><text text-anchor="middle" x="2186" y="-3419.6" font-family="Times Roman,serif" font-size="16" fill="#00f">HI_MPI_WIN_GetPlayInfo</text></g><g id="edge182" class="edge" stroke="#000"><path fill="none" d="M1935.66-3464.23c41.21 6.62 91.21 14.65 135.65 21.8"/><path d="M2071.97-3445.87l9.32 5.04-10.43 1.87 1.11-6.91z"/></g><g id="node164" class="node"><path fill="wheat" stroke="#000" d="M2318-3550h-264v36h264v-36z"/><text text-anchor="middle" x="2186" y="-3527.6" font-family="Times Roman,serif" font-size="16" fill="#00f">HI_MPI_VDEC_GetChanFrmRate</text></g><g id="edge184" class="edge" stroke="#000"><path fill="none" d="M1935.66-3491.77c38.88-6.24 85.57-13.75 128.05-20.58"/><path d="M2063.41-3515.84l10.43 1.87-9.32 5.04-1.11-6.91z"/></g><g id="node166" class="node"><path fill="wheat" stroke="#000" d="M2276-3496h-180v36h180v-36z"/><text text-anchor="middle" x="2186" y="-3473.6" font-family="Times Roman,serif" font-size="16" fill="#00f">AVPLAY_FrcCalculate</text></g><g id="edge186" class="edge" stroke="#000"><path fill="none" d="M1935.66-3478h149.51"/><path d="M2085.21-3481.5l10 3.5-10 3.5v-7z"/></g><g id="edge190" class="edge" stroke="#000"><path fill="none" d="M1639.78-3346.66c127.98 11.41 325.05 31.11 356.22 46.66 79.77 39.79 144.43 127.19 173.46 171.35"/><path d="M2172.45-3130.47l2.49 10.3-8.37-6.5 5.88-3.8z"/></g><g id="node171" class="node"><path fill="wheat" stroke="#000" d="M1960-3220h-220v36h220v-36z"/><text text-anchor="middle" x="1850" y="-3197.6" font-family="Times Roman,serif" font-size="16" fill="#00f">HI_MPI_WIN_QueueFrame</text></g><g id="edge192" class="edge" stroke="#000"><path fill="none" d="M1639.78-3343.29c10 3.71 19.6 8.39 28.22 14.29 24.74 16.91 13.62 37.08 36 57 23.39 20.81 54.05 36.77 81.25 48.15"/><path d="M1786.75-3227.02l7.95 7-10.58-.51 2.63-6.49z"/></g><g id="node173" class="node"><path fill="wheat" stroke="#000" d="M2326-2895h-280v36h280v-36z"/><text text-anchor="middle" x="2186" y="-2872.6" font-family="Times Roman,serif" font-size="16" fill="#00f">HI_MPI_WIN_QueueUselessFrame</text></g><g id="edge194" class="edge" stroke="#000"><path fill="none" d="M1639.83-3339.62c9.73 2.97 19.25 6.48 28.17 10.62 18.63 8.66 17.57 19.91 36 29 119.78 59.09 197.98-23.86 292 71 49.48 49.92 5.72 90.57 36 154 33.05 69.24 93.54 136.95 128.06 172.45"/><path d="M2162.9-2904.65l4.52 9.59-9.51-4.68 4.99-4.91z"/></g><g id="edge212" class="edge" stroke="#000"><path fill="none" d="M1620.35-2838.38c18.29 5.07 35.56 13.79 47.65 28.38 64.92 78.35-10.99 824.75 36 915 20.79 39.93 63.14 69.6 96.9 88.18"/><path d="M1802.55-1809.91l7.17 7.8-10.47-1.62 3.3-6.18z"/></g><g id="edge208" class="edge" stroke="#000"><path fill="none" d="M1556.64-2860.03c29-19.46 75.28-52.1 111.36-84.97 63.87-58.18 129.18-136.59 161.41-176.8"/><path d="M1826.8-3124.15l8.97-5.64-3.49 10-5.48-4.36z"/></g><g id="edge210" class="edge" stroke="#000"><path fill="none" d="M1620.28-2838.32c18.29 5.07 35.58 13.78 47.72 28.32 55.37 66.36-4.18 700.48 36 777 20.84 39.68 62.9 69.29 96.55 87.9"/><path d="M1802.63-1947.96l7.16 7.81-10.46-1.64 3.3-6.17z"/></g><g id="edge202" class="edge" stroke="#000"><path fill="none" d="M1620.06-2837.3c18.07 5.05 35.33 13.49 47.94 27.3 79.85 87.45-13.85 156.58 36 264 26.56 57.23 80.41 108.6 114.76 137.48"/><path d="M1821.15-2411.08l5.47 9.07-9.93-3.68 4.46-5.39z"/></g><g id="edge216" class="edge" stroke="#000"><path fill="none" d="M1620.04-2838.12c18.3 5.06 35.66 13.71 47.96 28.12 75.91 88.95-1.01 414.07 36 525 26.69 80 88.69 159.43 122.68 199.04"/><path d="M1829.57-2087.97l3.92 9.85-9.2-5.26 5.28-4.59z"/></g><g id="edge204" class="edge" stroke="#000"><path fill="none" d="M1620.13-2855.06c29.18-4.18 62.16-8.91 93.83-13.45"/><path d="M1713.8-2872.02l10.39 2.05-9.4 4.88-.99-6.93z"/></g><g id="edge206" class="edge" stroke="#000"><path fill="none" d="M1565.71-2860.01c34.85-16.45 89.07-40.35 138.29-54.99 16.63-4.94 34.6-9.15 52.06-12.68"/><path d="M1755.79-2931.19l10.48 1.52-9.14 5.35-1.34-6.87z"/></g><g id="edge198" class="edge" stroke="#000"><path fill="none" d="M1620.18-2836.83c117.01 5.13 312.49 8.15 375.82-24.17 6.02-3.07 121.91-152.75 169.68-214.64"/><path d="M2163.07-3077.99l8.88-5.78-3.33 10.06-5.55-4.28z"/></g><g id="edge200" class="edge" stroke="#000"><path fill="none" d="M1567.8-2860.02c32.29-17.12 76.64-46.05 100.2-84.98 53.57-88.52-36.15-155.84 36-230 7.64-7.85 16.76-13.84 26.67-18.37"/><path d="M1729.39-3196.62l10.58-.51-7.96 7-2.62-6.49z"/></g><g id="edge218" class="edge" stroke="#000"><path fill="none" d="M1620.24-2830.9c94.43 9.53 246.01 19.36 375.76 2.9 42.32-5.37 88.7-17.21 125.04-27.91"/><path d="M2120.43-2859.38l10.59.49-8.58 6.22-2.01-6.71z"/></g><g id="node185" class="node"><path fill="wheat" stroke="#000" d="M2306-2616h-240v36h240v-36z"/><text text-anchor="middle" x="2186" y="-2593.6" font-family="Times Roman,serif" font-size="16" fill="#00f">HI_MPI_VDEC_ReleaseFrame</text></g><g id="edge214" class="edge" stroke="#000"><path fill="none" d="M1620.19-2836.99c17.95 5.05 35.13 13.42 47.81 26.99 69.42 74.33-41.37 159.98 36 226 53.87 45.96 247.02 25.07 371.85 5.6"/><path d="M2075.42-2581.87l10.42 1.9-9.33 5.01-1.09-6.91z"/></g><g id="edge222" class="edge" stroke="#000"><path fill="none" d="M1879.31-3351.81c34.91 23.51 91.64 68.01 116.69 122.81 30.44 66.59 30.67 584.97 36 658 49.17 673.82 134.1 1496.77 151.02 1658.622"/><path d="M2186.52-912.589l-2.44 10.311-4.53-9.582 6.97-.729z"/></g><g id="edge224" class="edge" stroke="#000"><path fill="none" d="M1943.61-3359.31c18.26 4.74 36.62 11.54 52.39 21.31 85.71 53.07 149.57 158.94 176.27 208.82"/><path d="M2175.4-3130.74l1.56 10.48-7.76-7.22 6.2-3.26z"/></g><g id="edge226" class="edge" stroke="#000"><path fill="none" d="M1943.59-3385.04c39.64-6.37 86.21-13.86 127.87-20.55"/><path d="M2070.96-3409.06l10.42 1.87-9.31 5.05-1.11-6.92z"/></g><g id="node194" class="node"><path fill="wheat" stroke="#000" d="M2284-3388h-196v36h196v-36z"/><text text-anchor="middle" x="2186" y="-3365.6" font-family="Times Roman,serif" font-size="16" fill="#00f">HI_MPI_SYNC_VidJudge</text></g><g id="edge228" class="edge" stroke="#000"><path fill="none" d="M1943.59-3370h133.51"/><path d="M2077.34-3373.5l10 3.5-10 3.5v-7z"/></g><g id="edge236" class="edge" stroke="#000"><path fill="none" d="M1630.76-3291c13.59 4.87 26.51 11.64 37.24 21 34.02 29.69 1.34 66.06 36 95 17.58 14.68 40.54 22.42 63.04 26.27"/><path d="M1767.59-3152.18l9.38 4.92-10.4 2 1.02-6.92z"/></g><g id="edge232" class="edge" stroke="#000"><path fill="none" d="M1630.66-3298.71c96.87 6.02 245.32 22.86 365.34 69.71 62.96 24.58 126.26 72.68 161.57 102.11"/><path d="M2160.12-3129.31l5.38 9.12-9.9-3.77 4.52-5.35z"/></g><g id="edge234" class="edge" stroke="#000"><path fill="none" d="M1630.57-3285.66c13.02 4.11 25.84 9.24 37.43 15.66 19.79 10.96 16.15 25.14 36 36 8.28 4.53 17.15 8.42 26.28 11.75"/><path d="M1731.55-3225.51l8.33 6.55-10.6.07 2.27-6.62z"/></g><g id="edge244" class="edge" stroke="#000"><path fill="none" d="M1633.17-3040.31c12.4-4.43 24.36-10.2 34.83-17.69 24.68-17.65 11.23-40.48 36-58 18.28-12.93 40.82-20.78 62.68-25.5"/><path d="M1766.17-3144.97l10.49 1.51-9.14 5.36-1.35-6.87z"/></g><g id="edge240" class="edge" stroke="#000"><path fill="none" d="M1623.91-3044.09c14.97-3.92 30.1-8.54 44.09-13.91 17.09-6.56 18.4-14.97 36-20 117.6-33.62 257.82-36.7 356.62-33.14"/><path d="M2060.79-3114.63l9.86 3.88-10.13 3.11.27-6.99z"/></g><g id="edge242" class="edge" stroke="#000"><path fill="none" d="M1633.21-3032.54c96.43-2.83 242.59 1.13 362.79 39.54 62.03 19.82 124.71 63.8 160.32 91.55"/><path d="M2158.67-2904.05l5.68 8.94-10.02-3.45 4.34-5.49z"/></g><g id="edge246" class="edge" stroke="#000"><path fill="none" d="M1633.12-3021.04c13.17 4.73 25.35 11.77 34.88 22.04 93.14 100.38-57.01 205.49 36 306 23.91 25.84 217.5 57.87 351.93 77.35"/><path d="M2056.51-2619.1l9.4 4.89-10.4 2.04 1-6.93z"/></g><g id="edge254" class="edge" stroke="#000"><path fill="none" d="M1570.28-2953.98c32.9 16.8 76.79 45.26 97.72 84.98 100.98 191.61-63.8 781.77 36 974 20.74 39.95 63.1 69.63 96.87 88.19"/><path d="M1802.52-1809.89l7.18 7.79-10.47-1.62 3.29-6.17z"/></g><g id="edge250" class="edge" stroke="#000"><path fill="none" d="M1622.1-2990.02c15.34-2.99 31.07-6.06 45.9-8.98 145.34-28.56 313.51-62.09 417.83-82.95"/><path d="M2085.23-3085.4l10.49 1.48-9.12 5.39-1.37-6.87z"/></g><g id="edge252" class="edge" stroke="#000"><path fill="none" d="M1653.61-2987.72c5.18-3.22 10.02-6.96 14.39-11.28 56.74-56.18-20.99-120.08 36-176 7.6-7.46 16.55-13.21 26.21-17.62"/><path d="M1729.09-3195.94l10.58-.5-7.96 6.99-2.62-6.49z"/></g><g id="edge258" class="edge" stroke="#000"><path fill="none" d="M1653.65-2985.98c95.09-7.13 228.64-9.49 342.35 16.98 57.09 13.29 117.01 45.89 153.94 68.48"/><path d="M2152.17-2903.26l6.65 8.25-10.35-2.3 3.7-5.95z"/></g><g id="edge256" class="edge" stroke="#000"><path fill="none" d="M1568.22-2953.88c32.33 17.11 76.5 45.95 99.78 84.88 56.93 95.21-46.08 172.37 36 247 25.53 23.21 217.73 26.49 351.57 25.88"/><path d="M2055.89-2599.63l10.02 3.45-9.98 3.55-.04-7z"/></g><g id="edge274" class="edge" stroke="#000"><path fill="none" d="M1305.12-1812.79c27.3 3.72 57.23 7.36 84.88 9.79 132.77 11.67 287.74 16.2 379.66 17.94"/><path d="M1769.8-1788.56l9.93 3.68-10.06 3.32.13-7z"/></g><g id="edge276" class="edge" stroke="#000"><path fill="none" d="M1305.4-1827.88c35.3-.34 75.83-.72 112.59-1.07"/><path d="M1418.22-1832.45l10.04 3.4-9.97 3.6-.07-7z"/></g><g id="edge278" class="edge" stroke="#000"><path fill="none" d="M1305.4-1843.79c35.47-6.38 76.21-13.71 113.11-20.34"/><path d="M1418.35-1867.66l10.46 1.67-9.22 5.22-1.24-6.89z"/></g><g id="node216" class="node"><path fill="wheat" stroke="#000" d="M1656-1994h-254v36h254v-36z"/><text text-anchor="middle" x="1529" y="-1971.6" font-family="Times Roman,serif" font-size="16" fill="#00f">AVPLAY_CalPreBufThreshhold</text></g><g id="edge262" class="edge" stroke="#000"><path fill="none" d="M1305.1-1837.57c17.22-4.76 34.34-11.61 48.9-21.43 23.3-15.72 14.53-33.86 36-52 21.66-18.29 49.32-32.61 74.26-43.09"/><path d="M1463.09-1957.39l10.58-.53-7.94 7.01-2.64-6.48z"/></g><g id="node219" class="node"><path fill="wheat" stroke="#000" d="M1989-1748h-278v36h278v-36z"/><text text-anchor="middle" x="1850" y="-1725.6" font-family="Times Roman,serif" font-size="16" fill="#00f">HI_MPI_DMX_GetPESBufferStatus</text></g><g id="edge272" class="edge" stroke="#000"><path fill="none" d="M1305.28-1812.77c16.42 3.5 33.21 7.72 48.72 12.77 16.83 5.47 18.98 12.15 36 17 101.33 28.91 219.5 42.11 310.7 48.11"/><path d="M1701.08-1738.37l9.76 4.13-10.21 2.85.45-6.98z"/></g><g id="edge268" class="edge" stroke="#000"><path fill="none" d="M1640.85-1957.86c9.56 3.78 18.77 8.35 27.15 13.86 22.58 14.85 17.05 29.74 36 49 33.58 34.13 78.08 66.46 109.09 87.33"/><path d="M1815.07-1810.55l6.39 8.46-10.27-2.63 3.88-5.83z"/></g><g id="edge270" class="edge" stroke="#000"><path fill="none" d="M1556.46-1994.07c33.32-23.7 87.96-68.71 111.54-122.93 75.58-173.78-31.33-674.86 36-852 24.37-64.13 81.36-122.48 116.5-154.14"/><path d="M1818.27-3125.84l9.8-4.02-5.16 9.26-4.64-5.24z"/></g><g id="edge264" class="edge" stroke="#000"><path fill="none" d="M1554.87-1994.13c32.2-24.09 86.22-69.84 113.13-122.87 45.22-89.14-29.63-146.61 36-222 7.96-9.14 17.73-16.46 28.41-22.3"/><path d="M1731.07-2364.54l10.51-1.33-7.39 7.59-3.12-6.26z"/></g><g id="edge266" class="edge" stroke="#000"><path fill="none" d="M1650.35-1957.91c6.44 3.88 12.41 8.47 17.65 13.91 58.76 60.92-24.07 127.37 36 187 .82.82 1.66 1.61 2.52 2.39"/><path d="M1708.98-1757.12l5.62 8.98-9.99-3.52 4.37-5.46z"/></g><g id="edge300" class="edge" stroke="#000"><path fill="none" d="M1000.88-1471.99c90.72 15.14 236.48 28.22 353.12-14.01 19.58-7.09 18.24-19.12 36-30 114.61-70.2 188.71-18.55 278-119 37.56-42.25-6-84.16 36-122 17.85-16.08 42.05-24.03 65.61-27.64"/><path d="M1769.28-1788.13l10.37 2.2-9.47 4.75-.9-6.95z"/></g><g id="edge302" class="edge" stroke="#000"><path fill="none" d="M1014.08-1475.6c7.17 3.41 13.92 7.56 19.92 12.6 31.73 26.65 4.25 59.37 36 86 10.26 8.61 22.36 15.02 35.09 19.78"/><path d="M1106.58-1360.41l8.35 6.52-10.59.11 2.24-6.63z"/></g><g id="edge282" class="edge" stroke="#000"><path fill="none" d="M1014.03-1473.39c7 2.92 13.75 6.36 19.97 10.39 22.38 14.51 12.15 36.07 36 48 112.9 56.45 158.6 14.38 284 0 142.34-16.33 197.86 10.91 314-73 24.9-17.99 11.93-39.92 36-59 14.11-11.19 30.93-19.81 48.05-26.45"/><path d="M1750.99-1576.79l10.59-.15-8.19 6.73-2.4-6.58z"/></g><g id="edge294" class="edge" stroke="#000"><path fill="none" d="M919.734-1508.06c18.493-71.42 86.216-341.28 114.266-567.94 5.35-43.27 6.26-752.11 36-784 86.66-92.93 191.11 53.71 284-33 63.78-59.54-24.4-130.02 36-193 15.98-16.66 38.74-25.43 61.24-29.85"/><path d="M1450.74-3119.31l10.45 1.78-9.28 5.12-1.17-6.9z"/></g><g id="edge284" class="edge" stroke="#000"><path fill="none" d="M996.741-1472c12.499 2.91 25.239 5.97 37.259 9 16.1 4.06 19.55 7.76 36 10 125.07 17.05 160.23 24.75 284 0 17-3.4 19.8-8.83 36-15 122.17-46.49 175.86-14.43 278-96 23.71-18.93 15.44-35.69 36-58 31.45-34.12 74.99-64.7 106.32-84.54"/><path d="M1808.48-1709.51l10.34-2.33-6.63 8.27-3.71-5.94z"/></g><g id="node231" class="node"><path fill="wheat" stroke="#000" d="M1945-852h-190v36h190v-36z"/><text text-anchor="middle" x="1850" y="-829.6" font-family="Times Roman,serif" font-size="16" fill="#00f">AVPLAY_CaclBufState</text></g><g id="edge286" class="edge" stroke="#000"><path fill="none" d="M1014.11-1478.64c7.49 4.02 14.29 9.14 19.89 15.64 70.66 82.07-30.01 400.14 36 486 91.75 119.343 172.52 80.847 320 111 119.94 24.523 260.74 31.166 354.67 32.541"/><path d="M1744.79-836.958l9.96 3.629-10.05 3.37.09-6.999z"/></g><g id="node238" class="node"><path fill="wheat" stroke="#000" d="M1668-2162h-278v36h278v-36z"/><text text-anchor="middle" x="1529" y="-2139.6" font-family="Times Roman,serif" font-size="16" fill="#00f">HI_MPI_VDEC_GetChanStatusInfo</text></g><g id="edge296" class="edge" stroke="#000"><path fill="none" d="M915.995-1508.29c4.536-63.9 28.886-278.68 154.005-378.71 99.71-79.72 186.1 38.93 284-43 38.16-31.93 7.14-65.47 36-106 25.49-35.8 66.21-65.46 97-84.58"/><path d="M1485.44-2123.73l10.36-2.2-6.73 8.19-3.63-5.99z"/></g><g id="node240" class="node"><path fill="wheat" stroke="#000" d="M1324-1585h-224v36h224v-36z"/><text text-anchor="middle" x="1212" y="-1562.6" font-family="Times Roman,serif" font-size="16" fill="#00f">HI_MPI_DMX_GetPortMode</text></g><g id="edge298" class="edge" stroke="#000"><path fill="none" d="M965.498-1508.05c30.079-10.3 69.162-22.93 104.502-31.95 9.39-2.4 19.18-4.69 29.04-6.84"/><path d="M1098.39-1550.29l10.51 1.33-9.04 5.52-1.47-6.85z"/></g><g id="node244" class="node"><path fill="wheat" stroke="#000" d="M1278-1252h-132v36h132v-36z"/><text text-anchor="middle" x="1212" y="-1229.6" font-family="Times Roman,serif" font-size="16" fill="#00f">AVPLAY_Reset</text></g><g id="edge304" class="edge" stroke="#000"><path fill="none" d="M1014.12-1477.01c7.29 3.7 14.05 8.3 19.88 14.01 47.43 46.47-3.65 91.74 36 145 20.68 27.78 53.51 48.06 82.39 61.72"/><path d="M1153.96-1259.41l7.65 7.34-10.56-.97 2.91-6.37z"/></g><g id="node294" class="node"><path fill="wheat" stroke="#000" d="M1322-1531h-220v36h220v-36z"/><text text-anchor="middle" x="1212" y="-1508.6" font-family="Times Roman,serif" font-size="16" fill="#00f">HI_MPI_SYNC_SetBufState</text></g><g id="edge374" class="edge" stroke="#000"><path fill="none" d="M1014.31-1497.69c24.64-1.91 51.31-3.97 76.86-5.95"/><path d="M1091.03-1507.14l10.24 2.72-9.7 4.26-.54-6.98z"/></g><g id="edge288" class="edge" stroke="#000"><path fill="none" d="M1945.39-848.194c62.07-9.238 140.53-20.913 190.65-28.371"/><path d="M2135.57-880.035l10.41 1.99-9.37 4.934-1.04-6.924z"/></g><g id="edge292" class="edge" stroke="#000"><path fill="none" d="M1931.85-852.078c24.78-9.684 49.33-24.457 64.15-46.922 76.43-115.85-54.03-2392.37 36-2498 10.5-12.32 24.46-20.36 39.7-25.46"/><path d="M2070.76-3425.83l10.58.57-8.63 6.15-1.95-6.72z"/></g><g id="node234" class="node"><path fill="wheat" stroke="#000" d="M2340-848h-308v36h308v-36z"/><text text-anchor="middle" x="2186" y="-825.6" font-family="Times Roman,serif" font-size="16" fill="#00f">HI_MPI_VDEC_GetChanFrmStatusInfo</text></g><g id="edge290" class="edge" stroke="#000"><path fill="none" d="M1945.39-832.864l76.47.91"/><path d="M2021.94-835.453l9.96 3.618-10.04 3.381.08-6.999z"/></g><g id="edge326" class="edge" stroke="#000"><path fill="none" d="M1278.13-1245.77c26.25-7.5 55.08-19.66 75.87-39.23 29.57-27.85 3.9-59.11 36-84 98.79-76.62 191.81 47.57 278-43 106.28-111.68-68.63-231.77 36-345 16.76-18.14 41.42-26.48 65.72-29.82"/><path d="M1769.4-1790.31l10.33 2.38-9.56 4.58-.77-6.96z"/></g><g id="edge372" class="edge" stroke="#000"><path fill="none" d="M1218.3-1215.97c19.2 53.12 81.25 211.9 171.7 316.97 28.09 32.631 68.3 61.014 98.26 79.675"/><path d="M1490.11-822.297l6.7 8.208-10.36-2.238 3.66-5.97z"/></g><g id="edge346" class="edge" stroke="#000"><path fill="none" d="M1278.07-1245.25c42.86-7.31 99.59-16.97 148.26-25.26"/><path d="M1425.82-1273.97l10.45 1.77-9.27 5.13-1.18-6.9z"/></g><g id="edge364" class="edge" stroke="#000"><path fill="none" d="M1277.01-1252.04c24.94-8.26 53.12-19.3 76.99-32.96 18.08-10.34 17.19-21.07 36-30 11.04-5.24 23.03-9.47 35.19-12.87"/><path d="M1424.41-1331.28l10.56.85-8.79 5.92-1.77-6.77z"/></g><g id="node246" class="node"><path fill="wheat" stroke="#000" d="M1618-944h-178v36h178v-36z"/><text text-anchor="middle" x="1529" y="-921.6" font-family="Times Roman,serif" font-size="16" fill="#00f">AVPLAY_StopVidChn</text></g><g id="edge306" class="edge" stroke="#000"><path fill="none" d="M1223.21-1215.88c38.06 61.46 160.35 258.484 166.79 262.88 11.88 8.108 25.58 13.921 39.67 18.063"/><path d="M1430.69-938.285l8.77 5.957-10.57.807 1.8-6.764z"/></g><g id="node263" class="node"><path fill="wheat" stroke="#000" d="M1635-2568h-212v36h212v-36z"/><text text-anchor="middle" x="1529" y="-2545.6" font-family="Times Roman,serif" font-size="16" fill="#00f">AVPLAY_RelAllChnFrame</text></g><g id="edge328" class="edge" stroke="#000"><path fill="none" d="M1268.28-1252.03c31-13.09 66.91-34.17 85.72-65.97 63.91-108.02-22.23-1017.82 36-1129 18.9-36.08 56.78-62.84 88.23-80.03"/><path d="M1476.86-2530.26l10.47-1.58-7.2 7.77-3.27-6.19z"/></g><g id="node275" class="node"><path fill="wheat" stroke="#000" d="M1627-1252h-196v36h196v-36z"/><text text-anchor="middle" x="1529" y="-1229.6" font-family="Times Roman,serif" font-size="16" fill="#00f">HI_MPI_DMX_PcrPidSet</text></g><g id="edge348" class="edge" stroke="#000"><path fill="none" d="M1278.07-1234h142.14"/><path d="M1420.5-1237.5l10 3.5-10 3.5v-7z"/></g><g id="node277" class="node"><path fill="wheat" stroke="#000" d="M1620-998h-182v36h182v-36z"/><text text-anchor="middle" x="1529" y="-975.6" font-family="Times Roman,serif" font-size="16" fill="#00f">AVPLAY_StartVidChn</text></g><g id="edge350" class="edge" stroke="#000"><path fill="none" d="M1225.16-1215.98c27.29 36.34 93.45 119.32 164.84 170.98 24.22 17.53 53.92 32.18 79.63 43.1"/><path d="M1471.02-1005.11l7.89 7.071-10.58-.606 2.69-6.465z"/></g><g id="node287" class="node"><path fill="wheat" stroke="#000" d="M1610-1198h-162v36h162v-36z"/><text text-anchor="middle" x="1529" y="-1175.6" font-family="Times Roman,serif" font-size="16" fill="#00f">HI_MPI_SYNC_Play</text></g><g id="edge366" class="edge" stroke="#000"><path fill="none" d="M1278.07-1222.75c46.27 7.89 108.69 18.52 159.7 27.21"/><path d="M1438.54-1198.96l9.27 5.13-10.44 1.77 1.17-6.9z"/></g><g id="node289" class="node"><path fill="wheat" stroke="#000" d="M1615-1144h-172v36h172v-36z"/><text text-anchor="middle" x="1529" y="-1121.6" font-family="Times Roman,serif" font-size="16" fill="#00f">HI_MPI_SYNC_Tplay</text></g><g id="edge368" class="edge" stroke="#000"><path fill="none" d="M1245.51-1215.86c35.09 18.3 92.26 46.16 144.49 62.86 13.7 4.38 28.39 8.17 42.92 11.41"/><path d="M1433.89-1144.97l9.04 5.53-10.51 1.32 1.47-6.85z"/></g><g id="node291" class="node"><path fill="wheat" stroke="#000" d="M1617-1090h-176v36h176v-36z"/><text text-anchor="middle" x="1529" y="-1067.6" font-family="Times Roman,serif" font-size="16" fill="#00f">HI_MPI_SYNC_Pause</text></g><g id="edge370" class="edge" stroke="#000"><path fill="none" d="M1229.88-1215.84c30.14 29.47 94.26 87.4 160.12 116.84 12.86 5.75 26.92 10.27 41 13.84"/><path d="M1431.82-1088.56l8.92 5.72-10.54 1.09 1.62-6.81z"/></g><g id="edge310" class="edge" stroke="#000"><path fill="none" d="M1618.63-925.868c18.82-4.331 36.76-12.521 49.37-27.132 58.41-67.71-22.72-736.56 36-804 16.36-18.8 41.19-27.25 65.76-30.48"/><path d="M1769.56-1790.98l10.31 2.44-9.58 4.52-.73-6.96z"/></g><g id="edge314" class="edge" stroke="#000"><path fill="none" d="M1618.78-929.251c17.93-4.33 35.46-11.667 49.22-23.749 38.02-33.38-2.17-74.79 36-108 6.15-5.35 13.02-9.8 20.32-13.47"/><path d="M1723.23-1077.82l10.55-.91-7.68 7.3-2.87-6.39z"/></g><g id="edge324" class="edge" stroke="#000"><path fill="none" d="M1618.67-927.945c18.25-4.348 35.94-12.022 49.33-25.055 52.85-51.45-17.08-110.79 36-162 14.52-14.01 33.81-21.98 53.6-26.29"/><path d="M1757.17-1144.77l10.48 1.6-9.19 5.28-1.29-6.88z"/></g><g id="node248" class="node"><path fill="wheat" stroke="#000" d="M1953-944h-206v36h206v-36z"/><text text-anchor="middle" x="1850" y="-921.6" font-family="Times Roman,serif" font-size="16" fill="#00f">HI_MPI_VDEC_ChanStop</text></g><g id="edge308" class="edge" stroke="#000"><path fill="none" d="M1618.84-926h117.77"/><path d="M1736.86-929.5l10 3.5-10 3.5v-7z"/></g><g id="node251" class="node"><path fill="wheat" stroke="#000" d="M1957-998h-214v36h214v-36z"/><text text-anchor="middle" x="1850" y="-975.6" font-family="Times Roman,serif" font-size="16" fill="#00f">HI_MPI_VDEC_ResetChan</text></g><g id="edge312" class="edge" stroke="#000"><path fill="none" d="M1618.84-941.114l113.97-19.172"/><path d="M1732.36-963.76l10.45 1.792-9.28 5.111-1.17-6.903z"/></g><g id="node254" class="node"><path fill="wheat" stroke="#000" d="M1947-722h-194v36h194v-36z"/><text text-anchor="middle" x="1850" y="-699.6" font-family="Times Roman,serif" font-size="16" fill="#00f">AVPLAY_ResetWindow</text></g><g id="edge316" class="edge" stroke="#000"><path fill="none" d="M1555.27-907.833l260.31 180.028"/><path d="M1817.58-730.674l6.24 8.567-10.22-2.809 3.98-5.758z"/></g><g id="edge318" class="edge" stroke="#000"><path fill="none" d="M1947.77-710.441c17.74-5.086 34.83-13.107 48.23-25.559 41.1-38.191-5.9-83.685 36-121 28.01-24.949 70.66-30.83 103.98-30.958"/><path d="M2136.04-891.458l9.96 3.629-10.05 3.37.09-6.999z"/></g><g id="node257" class="node"><path fill="wheat" stroke="#000" d="M2274-695h-176v36h176v-36z"/><text text-anchor="middle" x="2186" y="-672.6" font-family="Times Roman,serif" font-size="16" fill="#00f">HI_MPI_WIN_GetInfo</text></g><g id="edge320" class="edge" stroke="#000"><path fill="none" d="M1947.64-696.154l140.07 11.256"/><path d="M2088.18-688.372l9.69 4.29-10.25 2.688.56-6.978z"/></g><g id="node259" class="node"><path fill="wheat" stroke="#000" d="M2267-749h-162v36h162v-36z"/><text text-anchor="middle" x="2186" y="-726.6" font-family="Times Roman,serif" font-size="16" fill="#00f">HI_MPI_WIN_Reset</text></g><g id="edge322" class="edge" stroke="#000"><path fill="none" d="M1947.64-711.846l147.05-11.816"/><path d="M2094.6-727.167l10.25 2.688-9.69 4.29-.56-6.978z"/></g><g id="edge344" class="edge" stroke="#000"><path fill="none" d="M1635.15-2532.21C1758-2509.35 1949.43-2465.99 1996-2411c101.13 119.43 176.31 1299.54 188.32 1498.57"/><path d="M2187.83-912.4l-2.9 10.192-4.09-9.772 6.99-.42z"/></g><g id="edge338" class="edge" stroke="#000"><path fill="none" d="M1635.07-2556.78c12.24-4.58 23.64-11.08 32.93-20.22 55.07-54.15-16.8-113.64 36-170 92.16-98.37 188.77 4.69 292-82 28.31-23.78 16.54-43.56 36-75 40.7-65.75 99.03-135.55 130.95-172.15"/><path d="M2160.5-3078.66l9.22-5.21-3.96 9.83-5.26-4.62z"/></g><g id="edge340" class="edge" stroke="#000"><path fill="none" d="M1635.16-2566.43c99.1-18.92 248.21-56.8 360.84-126.57 71.25-44.14 137.48-118.87 169.63-158.13"/><path d="M2162.95-2853.38l9.02-5.57-3.58 9.97-5.44-4.4z"/></g><g id="edge342" class="edge" stroke="#000"><path fill="none" d="M1635.25-2540.56c95.01 6.43 237.8 11.08 360.75-5.44 44.03-5.92 92.29-19.22 129.16-30.88"/><path d="M2124.17-2580.24l10.59.27-8.45 6.39-2.14-6.66z"/></g><g id="node265" class="node"><path fill="wheat" stroke="#000" d="M1967-2738h-234v36h234v-36z"/><text text-anchor="middle" x="1850" y="-2715.6" font-family="Times Roman,serif" font-size="16" fill="#00f">AVPLAY_RelAllVirChnFrame</text></g><g id="edge330" class="edge" stroke="#000"><path fill="none" d="M1635.24-2558.1c11.99-4.4 23.28-10.51 32.76-18.9 38.84-34.37-2.42-76.16 36-111 5.95-5.39 12.59-9.95 19.67-13.79"/><path d="M1722.34-2705.04l10.52-1.25-7.44 7.54-3.08-6.29z"/></g><g id="edge332" class="edge" stroke="#000"><path fill="none" d="M1914.8-2738.1c28.4-10.88 60.01-27.49 81.2-51.9 34.83-40.13 11.3-66.96 36-114 35.76-68.11 95.49-136.5 129.09-172.35"/><path d="M2158.83-3079.05l9.41-4.86-4.33 9.67-5.08-4.81z"/></g><g id="edge334" class="edge" stroke="#000"><path fill="none" d="M1954.74-2738.06c14.13-3.84 28.23-8.45 41.26-13.94 61.48-25.91 124.56-72.06 160.36-100.46"/><path d="M2154.44-2855.4l9.99-3.53-5.62 8.99-4.37-5.46z"/></g><g id="edge336" class="edge" stroke="#000"><path fill="none" d="M1899.58-2702c60.42 21.94 162.43 58.98 227 82.43"/><path d="M2128.01-2622.78l8.21 6.7-10.6-.12 2.39-6.58z"/></g><g id="edge354" class="edge" stroke="#000"><path fill="none" d="M1620.26-983.7c18.29-5.062 35.59-13.767 47.74-28.3 53.16-63.58-18.53-682.59 36-745 16.4-18.77 41.23-27.21 65.79-30.45"/><path d="M1769.6-1790.95l10.31 2.44-9.58 4.52-.73-6.96z"/></g><g id="edge362" class="edge" stroke="#000"><path fill="none" d="M1620.3-991.251c16.75-4.708 33.42-11.359 47.7-20.749 22.58-14.85 13.1-34.65 36-49 6.31-3.95 13.05-7.36 20.04-10.29"/><path d="M1723.14-1074.69l10.59-.31-8.09 6.85-2.5-6.54z"/></g><g id="edge358" class="edge" stroke="#000"><path fill="none" d="M1620.26-987.291c17.42-4.971 34.37-12.729 47.74-24.709 36.12-32.35-.82-71.44 36-103 15.07-12.92 34.28-20.51 53.78-24.8"/><path d="M1757.18-1143.25l10.48 1.54-9.15 5.33-1.33-6.87z"/></g><g id="edge352" class="edge" stroke="#000"><path fill="none" d="M1620.08-985.119c17.96-5.04 35.17-13.378 47.92-26.881 65.32-69.17-30.8-143.27 36-211 14.01-14.21 32.9-22.29 52.44-26.66"/><path d="M1755.9-1253.12l10.48 1.56-9.17 5.32-1.31-6.88z"/></g><g id="edge356" class="edge" stroke="#000"><path fill="none" d="M1620.23-985.868c17.74-5.026 34.82-13.169 47.77-26.132 50.6-50.64-15.69-107.47 36-157 6.29-6.03 13.46-10.93 21.17-14.91"/><path d="M1723.9-1187.17l10.55-.99-7.64 7.35-2.91-6.36z"/></g><g id="node283" class="node"><path fill="wheat" stroke="#000" d="M1954-1052h-208v36h208v-36z"/><text text-anchor="middle" x="1850" y="-1029.6" font-family="Times Roman,serif" font-size="16" fill="#00f">HI_MPI_VDEC_ChanStart</text></g><g id="edge360" class="edge" stroke="#000"><path fill="none" d="M1620.13-995.33c35.81-6.03 77.34-13.01 115.16-19.37"/><path d="M1734.89-1018.19l10.44 1.8-9.28 5.11-1.16-6.91z"/></g><g id="edge380" class="edge" stroke="#000"><path fill="none" d="M1024.32-1454.03c3.5-2.65 6.75-5.62 9.68-8.97 57.52-65.61-24.96-328.57 36-391 88.77-90.92 186.22 48.16 284-33 41.54-34.48-5.41-81.37 36-116 27.91-23.34 245.96-42.15 371.57-51.18"/><path d="M1761.34-2057.68l10.23 2.78-9.73 4.21-.5-6.99z"/></g><g id="edge378" class="edge" stroke="#000"><path fill="none" d="M936.986-1417.96c29.512 23.91 83.914 66.91 133.014 99.96 32.7 22.01 71.27 44.63 99.96 60.84"/><path d="M1171.9-1260.08l7.01 7.95-10.44-1.85 3.43-6.1z"/></g><g id="edge390" class="edge" stroke="#000"><path fill="none" d="M941.348-2851.13c25.005-17.76 63.062-46.26 92.652-74.87 17.92-17.33 14.72-30.02 36-43 6.23-3.8 12.86-7.15 19.72-10.1"/><path d="M1088.62-2982.43l10.59-.46-7.99 6.96-2.6-6.5z"/></g><g id="edge396" class="edge" stroke="#000"><path fill="none" d="M923.676-2851.08c19.863-39.27 72.667-132.41 146.324-176.92 29.4-17.76 67.95-24.25 97.46-26.44"/><path d="M1167.3-3057.94l10.2 2.89-9.78 4.1-.42-6.99z"/></g><g id="edge394" class="edge" stroke="#000"><path fill="none" d="M931.135-2814.81C958.294-2782.9 1012.3-2713.59 1034-2644c27.94 89.61-25.38 772.99 36 844 1.21 1.4 2.47 2.75 3.78 4.04"/><path d="M1076.39-1798.34l5.33 9.15-9.88-3.83 4.55-5.32z"/></g><g id="edge392" class="edge" stroke="#000"><path fill="none" d="M1018.04-2833h84.97"/><path d="M1103.14-2836.5l10 3.5-10 3.5v-7z"/></g><g id="edge460" class="edge" stroke="#000"><path fill="none" d="M995.074-3133.95c13.086 3.37 26.436 7.06 38.926 10.95 46.34 14.43 98.02 34.66 133.71 49.29"/><path d="M1169.42-3076.79l7.91 7.05-10.58-.58 2.67-6.47z"/></g><g id="node314" class="node"><path fill="wheat" stroke="#000" d="M1294-3219h-164v36h164v-36z"/><text text-anchor="middle" x="1212" y="-3196.6" font-family="Times Roman,serif" font-size="16" fill="#00f">HI_SYS_GetVersion</text></g><g id="edge402" class="edge" stroke="#000"><path fill="none" d="M1002.5-3166.44c36.84-6.07 79.73-13.15 117.08-19.31"/><path d="M1119.01-3189.21l10.44 1.83-9.3 5.08-1.14-6.91z"/></g><g id="node316" class="node"><path fill="wheat" stroke="#000" d="M1287-2797h-150v36h150v-36z"/><text text-anchor="middle" x="1212" y="-2774.6" font-family="Times Roman,serif" font-size="16" fill="#00f">AVPLAY_ProcEos</text></g><g id="edge404" class="edge" stroke="#000"><path fill="none" d="M1002.62-3143.86c11.93 4.61 22.94 11.29 31.38 20.86 93.75 106.38-60.444 213.06 36 317 14.59 15.72 35.26 23.96 56.33 27.95"/><path d="M1127.02-2781.49l9.33 5.03-10.42 1.89 1.09-6.92z"/></g><g id="node328" class="node"><path fill="wheat" stroke="#000" d="M1308-3381h-192v36h192v-36z"/><text text-anchor="middle" x="1212" y="-3358.6" font-family="Times Roman,serif" font-size="16" fill="#00f">AVPLAY_ProcVidEvent</text></g><g id="edge422" class="edge" stroke="#000"><path fill="none" d="M924.587-3170.19c20.888-37.7 74.39-124.26 145.413-165.81 11.13-6.51 23.52-11.5 36.21-15.31"/><path d="M1105.38-3354.71l10.57.71-8.7 6.04-1.87-6.75z"/></g><g id="node338" class="node"><path fill="wheat" stroke="#000" d="M1311-3327h-198v36h198v-36z"/><text text-anchor="middle" x="1212" y="-3304.6" font-family="Times Roman,serif" font-size="16" fill="#00f">AVPLAY_ProcAudEvent</text></g><g id="edge434" class="edge" stroke="#000"><path fill="none" d="M930.608-3170.03c25.883-28.63 80.682-84.12 139.392-111.97 10.45-4.96 21.74-9 33.23-12.31"/><path d="M1102.35-3297.7l10.57.79-8.75 5.97-1.82-6.76z"/></g><g id="node344" class="node"><path fill="wheat" stroke="#000" d="M1315-3165h-206v36h206v-36z"/><text text-anchor="middle" x="1212" y="-3142.6" font-family="Times Roman,serif" font-size="16" fill="#00f">AVPLAY_ProcSyncEvent</text></g><g id="edge442" class="edge" stroke="#000"><path fill="none" d="M1002.5-3150.53c30.11.51 64.27 1.09 96.13 1.62"/><path d="M1098.95-3152.4l9.94 3.66-10.06 3.34.12-7z"/></g><g id="node350" class="node"><path fill="wheat" stroke="#000" d="M1320-3273h-216v36h216v-36z"/><text text-anchor="middle" x="1212" y="-3250.6" font-family="Times Roman,serif" font-size="16" fill="#00f">AVPLAY_ProcUnloadTime</text></g><g id="edge450" class="edge" stroke="#000"><path fill="none" d="M945.714-3170.14c30.543-17.28 79.226-42.83 124.286-57.86 7.62-2.54 15.55-4.87 23.59-6.99"/><path d="M1092.9-3238.43l10.55.94-8.83 5.85-1.72-6.79z"/></g><g id="edge420" class="edge" stroke="#000"><path fill="none" d="M1287.71-2781.98c24.54 3.1 49.69 11.33 66.29 29.98 74.07 83.21-34.01 413.35 36 500 80.88 100.1 194.26-16.72 278 81 80.49 93.94-26.03 168.97 36 276 22.69 39.16 65.19 69.05 98.51 87.9"/><path d="M1804.57-1809.97l7.07 7.89-10.45-1.75 3.38-6.14z"/></g><g id="edge406" class="edge" stroke="#000"><path fill="none" d="M1287.65-2781.93c24.54 3.1 49.7 11.32 66.35 29.93 69.41 77.57-32.44 388.58 36 467 83.12 95.23 157.45 21.99 278 60 150.84 47.55 230.46 13.51 328 138 150.1 191.58 183.89 1011.43 189.17 1174.666"/><path d="M2188.68-912.242l-3.19 10.105-3.81-9.885 7-.22z"/></g><g id="edge408" class="edge" stroke="#000"><path fill="none" d="M1287.62-2782.27c24.69 3.03 49.95 11.3 66.38 30.27 58.48 67.51-24.21 737.04 36 803 84.08 92.1 188.27-48.6 278 38 67.51 65.15-13.25 128.15 36 208 23.3 37.77 65.12 66.66 98.05 85.01"/><path d="M1803.95-1620.93l7.12 7.84-10.45-1.69 3.33-6.15z"/></g><g id="edge418" class="edge" stroke="#000"><path fill="none" d="M1287.7-2776.81c24.24-3.23 49.2-11.34 66.3-29.19 76.73-80.12-30.17-157.95 36-247 15.22-20.49 38.52-34.74 61.71-44.56"/><path d="M1450.69-3100.92l10.58-.45-7.99 6.95-2.59-6.5z"/></g><g id="edge414" class="edge" stroke="#000"><path fill="none" d="M1287.81-2775.94c24.55-3.08 49.68-11.33 66.19-30.06 84.96-96.36-55.33-486.65 36-577 47.28-46.77 472.36-46.42 681.22-43.34"/><path d="M2071.36-3429.84l9.94 3.65-10.05 3.35.11-7z"/></g><g id="edge412" class="edge" stroke="#000"><path fill="none" d="M1287.81-2782.06c24.55 3.08 49.68 11.33 66.19 30.06 84.82 96.19-46.96 478.2 36 576 2.28 2.69 4.74 5.18 7.35 7.49"/><path d="M1399.82-2171.03l5.78 8.88-10.05-3.34 4.27-5.54z"/></g><g id="node320" class="node"><path fill="wheat" stroke="#000" d="M1653-2730h-248v36h248v-36z"/><text text-anchor="middle" x="1529" y="-2707.6" font-family="Times Roman,serif" font-size="16" fill="#00f">HI_MPI_AO_Track_IsBufEmpty</text></g><g id="edge410" class="edge" stroke="#000"><path fill="none" d="M1287.64-2765.15c21.48 4.07 44.87 8.65 66.36 13.15 9.14 1.91 48.07 10.8 86.9 19.71"/><path d="M1441.79-2735.67l8.97 5.65-10.53 1.17 1.56-6.82z"/></g><g id="node324" class="node"><path fill="wheat" stroke="#000" d="M1587-2676h-116v36h116v-36z"/><text text-anchor="middle" x="1529" y="-2653.6" font-family="Times Roman,serif" font-size="16" fill="#00f">AVPLAY_Eos</text></g><g id="edge416" class="edge" stroke="#000"><path fill="none" d="M1287.77-2777.01c23.01 3.71 47.21 11.06 66.23 25.01 27.26 19.99 8.78 46.95 36 67 20.18 14.86 46.33 22.17 70.49 25.58"/><path d="M1461.19-2662.86l9.51 4.67-10.35 2.28.84-6.95z"/></g><g id="edge430" class="edge" stroke="#000"><path fill="none" d="M1308.03-3362.15c17.5 4.59 33.98 12.64 45.97 26.15 77.04 86.79-42.82 435.82 36 521 84.83 91.66 194.47-51.85 278 41 65.38 72.67-9.21 792.34 36 879 20.82 39.91 63.17 69.59 96.92 88.17"/><path d="M1802.57-1809.92l7.17 7.8-10.47-1.62 3.3-6.18z"/></g><g id="edge428" class="edge" stroke="#000"><path fill="none" d="M1308.3-3360.64c17.05 4.56 33.29 12.21 45.7 24.64 61.03 61.13-24.91 129.75 36 191 16.16 16.25 38.97 24.24 61.46 27.84"/><path d="M1451.95-3120.63l9.45 4.79-10.37 2.15.92-6.94z"/></g><g id="node330" class="node"><path fill="wheat" stroke="#000" d="M1657-3758h-256v36h256v-36z"/><text text-anchor="middle" x="1529" y="-3735.6" font-family="Times Roman,serif" font-size="16" fill="#00f">HI_MPI_VDEC_CheckNewEvent</text></g><g id="edge424" class="edge" stroke="#000"><path fill="none" d="M1215.4-3381.08c11.99-58.52 58.12-244.09 174.6-331.92 1.66-1.25 3.35-2.44 5.09-3.59"/><path d="M1393.67-3719.82l10.38-2.08-6.82 8.11-3.56-6.03z"/></g><g id="node332" class="node"><path fill="wheat" stroke="#000" d="M1665-3866h-272v36h272v-36z"/><text text-anchor="middle" x="1529" y="-3843.6" font-family="Times Roman,serif" font-size="16" fill="#00f">HI_MPI_VDEC_ChanRecvUsrData</text></g><g id="edge426" class="edge" stroke="#000"><path fill="none" d="M1213.1-3381.43c5.19-69.77 33.53-319.79 176.9-439.57 1.36-1.14 2.76-2.23 4.18-3.29"/><path d="M1392.39-3827.3l10.28-2.58-6.42 8.43-3.86-5.85z"/></g><g id="node336" class="node"><path fill="wheat" stroke="#000" d="M1633-3812h-208v36h208v-36z"/><text text-anchor="middle" x="1529" y="-3789.6" font-family="Times Roman,serif" font-size="16" fill="#00f">HI_MPI_SYNC_SetExtInfo</text></g><g id="edge432" class="edge" stroke="#000"><path fill="none" d="M1214.09-3381.05c8.41-64.05 45.94-282.17 175.91-385.95 7.49-5.98 15.91-10.76 24.82-14.57"/><path d="M1413.67-3784.88l10.59-.33-8.08 6.86-2.51-6.53z"/></g><g id="edge440" class="edge" stroke="#000"><path fill="none" d="M1311.19-3298.75c14.92 3.95 29.69 9.36 42.81 16.75 20.84 11.74 14.96 28.62 36 40 109.98 59.47 161.47-2.3 278 43 17.92 6.97 18.18 16.77 36 24 19.69 7.99 41.84 13.63 62.83 17.61"/><path d="M1767.47-3160.83l9.22 5.21-10.46 1.68 1.24-6.89z"/></g><g id="edge438" class="edge" stroke="#000"><path fill="none" d="M1311.27-3304.92c15.78 4.57 30.8 11.79 42.73 22.92 46.03 42.95-9.94 93.96 36 137 16.49 15.45 39.06 23.29 61.22 26.98"/><path d="M1451.93-3121.45l9.41 4.85-10.39 2.08.98-6.93z"/></g><g id="node340" class="node"><path fill="wheat" stroke="#000" d="M1657-3704h-256v36h256v-36z"/><text text-anchor="middle" x="1529" y="-3681.6" font-family="Times Roman,serif" font-size="16" fill="#00f">HI_MPI_ADEC_CheckNewEvent</text></g><g id="edge436" class="edge" stroke="#000"><path fill="none" d="M1311.23-3311.25c16.18-4.68 31.35-12.41 42.77-24.75 98.14-105.99-61.93-216.82 36-323 .79-.86 1.6-1.69 2.43-2.51"/><path d="M1390.45-3664.42l9.88-3.83-5.34 9.15-4.54-5.32z"/></g><g id="edge448" class="edge" stroke="#000"><path fill="none" d="M1288.8-3128.88c24.8 9.74 49.83 24.55 65.2 46.88 70.59 102.53-42.67 462.53 36 559 80.95 99.27 197.01-23.23 278 76 77.73 95.23-22.17 443.71 36 552 21.28 39.61 63.51 69.3 97.1 87.96"/><path d="M1803.18-1809.9l7.14 7.83-10.46-1.67 3.32-6.16z"/></g><g id="edge446" class="edge" stroke="#000"><path fill="none" d="M1315.36-3137.54c44.14 4.03 94.79 8.67 135.7 12.41"/><path d="M1451.6-3128.6l9.64 4.4-10.28 2.58.64-6.98z"/></g><g id="node346" class="node"><path fill="wheat" stroke="#000" d="M1657-3542h-256v36h256v-36z"/><text text-anchor="middle" x="1529" y="-3519.6" font-family="Times Roman,serif" font-size="16" fill="#00f">HI_MPI_SYNC_CheckNewEvent</text></g><g id="edge444" class="edge" stroke="#000"><path fill="none" d="M1315.18-3150.48c14.68-4.77 28.32-12.2 38.82-23.52 96.73-104.28-58.71-211.88 36-318a74.84 74.84 0 018.33-8"/><path d="M1396.39-3502.92l10.14-3.06-6.02 8.72-4.12-5.66z"/></g><g id="edge458" class="edge" stroke="#000"><path fill="none" d="M1320.8-3249.93c12.59 4.82 24.15 11.85 33.2 21.93 66.44 73.98-31.7 373.17 36 446 85.12 91.57 194.63-50.17 278 43 62.59 69.95-7.48 760.82 36 844 20.76 39.72 62.84 69.32 96.51 87.92"/><path d="M1802.59-1809.93l7.17 7.8-10.47-1.63 3.3-6.17z"/></g><g id="edge456" class="edge" stroke="#000"><path fill="none" d="M1320.64-3250.23c12.7 4.84 24.33 11.96 33.36 22.23 87.79 99.78-51.6 497.04 36 597 24.75 28.24 69.44 32.39 101.47 31.15"/><path d="M1491.62-2603.37l10.18 2.92-9.78 4.07-.4-6.99z"/></g><g id="node352" class="node"><path fill="wheat" stroke="#000" d="M1653-3650h-248v36h248v-36z"/><text text-anchor="middle" x="1529" y="-3627.6" font-family="Times Roman,serif" font-size="16" fill="#00f">HI_MPI_WIN_GetUnloadTimes</text></g><g id="edge452" class="edge" stroke="#000"><path fill="none" d="M1320.51-3260.33c12.64-4.78 24.28-11.73 33.49-21.67 98.14-105.99-61.93-216.82 36-323a73.34 73.34 0 016.57-6.28"/><path d="M1394.68-3614.24l10.13-3.11-5.97 8.75-4.16-5.64z"/></g><g id="node354" class="node"><path fill="wheat" stroke="#000" d="M1662-3596h-266v36h266v-36z"/><text text-anchor="middle" x="1529" y="-3573.6" font-family="Times Roman,serif" font-size="16" fill="#00f">HI_MPI_AO_SND_GetXrunCount</text></g><g id="edge454" class="edge" stroke="#000"><path fill="none" d="M1320.66-3260.65c12.54-4.75 24.11-11.6 33.34-21.35 82.92-87.6-46.75-181.24 36-269 .78-.83 1.58-1.63 2.39-2.42"/><path d="M1390.23-3556.17l9.9-3.78-5.39 9.13-4.51-5.35z"/></g><g id="edge464" class="edge" stroke="#000"><path fill="none" d="M693.893-1493.01c82.266-25.5 239.555-72.22 376.107-100.99 16.97-3.58 218.94-33.13 349.24-52.08"/><path d="M1418.88-1649.56l10.4 2.02-9.39 4.9-1.01-6.92z"/></g></g></svg>