<svg xmlns="http://www.w3.org/2000/svg" width="1120.336" height="610.445" viewBox="0 0 1050.315 572.292"><text y="28.076" x="452.622" style="line-height:125%" font-weight="400" font-size="12.5" font-family="sans-serif" letter-spacing="0" word-spacing="0" transform="translate(40.968 -18.964)"><tspan style="-inkscape-font-specification:'sans-serif Bold'" y="28.076" x="452.622" font-weight="700" fill="#003f4c">/ &quot;root&quot;</tspan></text><path d="M518.59 17.684V36.97" fill="none" stroke="#000" stroke-width="5"/><g font-weight="700" font-size="12.5" font-family="sans-serif" letter-spacing="0" word-spacing="0"><text style="line-height:125%;-inkscape-font-specification:'sans-serif Bold';text-align:start" x="1.488" y="90.219" fill="#90b247" transform="translate(-2.025 -16.944)"><tspan x="1.488" y="105.844">&quot;essential user </tspan><tspan x="1.488" y="121.469">command binaries&quot;</tspan></text><text style="line-height:125%;-inkscape-font-specification:'sans-serif Bold'" x="32.946" y="135.934" fill="#bf542e" transform="translate(-2.025 -16.944)"><tspan x="32.946" y="135.934">bash</tspan><tspan x="32.946" y="151.559">cat</tspan><tspan x="32.946" y="167.184">chmod</tspan><tspan x="32.946" y="182.809">cp</tspan><tspan x="32.946" y="198.434">date</tspan><tspan x="32.946" y="214.059">echo</tspan><tspan x="32.946" y="229.684">grep</tspan><tspan x="32.946" y="245.309">gunzip</tspan><tspan x="32.946" y="260.934">gzip</tspan><tspan x="32.946" y="276.559">hostname</tspan><tspan x="32.946" y="292.184">kill</tspan><tspan x="32.946" y="307.809">less</tspan><tspan x="32.946" y="323.434">ln</tspan><tspan x="32.946" y="339.059">ls</tspan><tspan x="32.946" y="354.684">mkdir</tspan><tspan x="32.946" y="370.309">more</tspan><tspan x="32.946" y="385.934">mount</tspan><tspan x="32.946" y="401.559">mv</tspan><tspan x="32.946" y="417.184">nano</tspan><tspan x="32.946" y="432.809">open</tspan><tspan x="32.946" y="448.434">ping</tspan><tspan x="32.946" y="464.059">ps</tspan><tspan x="32.946" y="479.684">pwd</tspan><tspan x="32.946" y="495.309">rm</tspan><tspan x="32.946" y="510.934">sh</tspan><tspan x="32.946" y="526.559">su</tspan><tspan x="32.946" y="542.184">tar</tspan><tspan x="32.946" y="557.809">touch</tspan><tspan x="32.946" y="573.434">umount</tspan><tspan x="32.946" y="589.059">uname</tspan></text><text style="line-height:125%;-inkscape-font-specification:'sans-serif Bold'" x="52.776" y="90.219" fill="#003f4c" transform="translate(-2.025 -16.944)"><tspan x="52.776" y="90.219">/bin</tspan></text></g><path d="M66.763 55.541l.358-20.353 828.65.136.966 401.954M914.473 76.41h-19.285" fill="none" stroke="#000" stroke-width="5"/><text style="line-height:125%;-inkscape-font-specification:'sans-serif Bold'" x="980.535" y="99.915" font-weight="700" font-size="12.5" font-family="sans-serif" letter-spacing="0" word-spacing="0" fill="#003f4c" transform="translate(-58.594 -18.964)"><tspan x="980.535" y="99.915">/dev</tspan></text><text style="line-height:125%;-inkscape-font-specification:'sans-serif Bold';text-align:start" x="979.485" y="100.823" font-weight="700" font-size="12.5" font-family="sans-serif" letter-spacing="0" word-spacing="0" fill="#90b247" transform="translate(-58.594 -18.964)"><tspan x="979.485" y="116.448">&quot;device files</tspan><tspan x="979.485" y="132.073">incl. /dev/null&quot;</tspan></text><path d="M914.473 134.303h-19.285" fill="none" stroke="#000" stroke-width="5"/><text y="163.245" x="980.535" style="line-height:125%;-inkscape-font-specification:'sans-serif Bold'" font-weight="700" font-size="12.5" font-family="sans-serif" letter-spacing="0" word-spacing="0" fill="#003f4c" transform="translate(-59.4 -24.4)"><tspan y="163.245" x="980.535">/home</tspan></text><text y="164.153" x="979.974" style="line-height:125%;-inkscape-font-specification:'sans-serif Bold';text-align:start" font-weight="700" font-size="12.5" font-family="sans-serif" letter-spacing="0" word-spacing="0" fill="#90b247" transform="translate(-59.4 -24.4)"><tspan y="179.778" x="979.974">&quot;user home</tspan><tspan y="195.403" x="979.974">directories&quot;</tspan></text><path d="M913.759 381.928h-19.286" fill="none" stroke="#000" stroke-width="5"/><text y="165.245" x="980.535" style="line-height:125%;-inkscape-font-specification:'sans-serif Bold'" font-weight="700" font-size="12.5" font-family="sans-serif" letter-spacing="0" word-spacing="0" fill="#003f4c" transform="translate(-60.115 223.224)"><tspan y="165.245" x="980.535">/proc</tspan></text><text y="164.153" x="979.974" style="line-height:125%;-inkscape-font-specification:'sans-serif Bold';text-align:start" font-weight="700" font-size="12.5" font-family="sans-serif" letter-spacing="0" word-spacing="0" fill="#90b247" transform="translate(-60.115 223.224)"><tspan y="179.778" x="979.974">&quot;process &amp; kernel</tspan><tspan y="195.403" x="979.974">information files&quot;</tspan></text><path d="M913.759 190.981h-19.286" fill="none" stroke="#000" stroke-width="5"/><text y="269.354" x="981.393" style="line-height:125%;-inkscape-font-specification:'sans-serif Bold'" font-weight="700" font-size="12.5" font-family="sans-serif" letter-spacing="0" word-spacing="0" fill="#003f4c" transform="translate(-60.973 -73.831)"><tspan y="269.354" x="981.393">/lib</tspan></text><text y="270.262" x="980.832" style="line-height:125%;-inkscape-font-specification:'sans-serif Bold';text-align:start" font-weight="700" font-size="12.5" font-family="sans-serif" letter-spacing="0" word-spacing="0" fill="#90b247" transform="translate(-60.973 -73.831)"><tspan y="285.887" x="980.832">&quot;libraries &amp;</tspan><tspan y="301.512" x="980.832">kernel modules&quot;</tspan></text><path d="M913.759 247.508h-19.286" fill="none" stroke="#000" stroke-width="5"/><text style="line-height:125%;-inkscape-font-specification:'sans-serif Bold'" x="981.949" y="322.435" font-weight="700" font-size="12.5" font-family="sans-serif" letter-spacing="0" word-spacing="0" fill="#003f4c" transform="translate(-61.529 -70.386)"><tspan x="981.949" y="322.435">/mnt</tspan></text><text style="line-height:125%;-inkscape-font-specification:'sans-serif Bold';text-align:start" x="981.387" y="323.344" font-weight="700" font-size="12.5" font-family="sans-serif" letter-spacing="0" word-spacing="0" fill="#90b247" transform="translate(-61.529 -70.386)"><tspan x="981.387" y="338.969">&quot;mount files for</tspan><tspan x="981.387" y="354.594">temporary </tspan><tspan x="981.387" y="370.219">filesystems&quot;</tspan></text><g font-weight="700" font-size="12.5" font-family="sans-serif" letter-spacing="0" word-spacing="0"><text style="line-height:125%;-inkscape-font-specification:'sans-serif Bold'" x="417.938" y="103.554" fill="#003f4c" transform="translate(118.183 -32.683)"><tspan x="417.938" y="103.554">/usr</tspan></text><text style="line-height:125%;-inkscape-font-specification:'sans-serif Bold';text-align:start" x="335.614" y="105.473" fill="#90b247" transform="translate(118.183 -32.683)"><tspan x="335.614" y="121.098">&quot;read-only user application</tspan><tspan x="335.614" y="136.723">support data &amp; binaries&quot;</tspan></text></g><text style="line-height:125%;-inkscape-font-specification:'sans-serif Bold';text-align:start" x="423.611" y="239.873" font-weight="700" font-size="12.5" font-family="sans-serif" letter-spacing="0" word-spacing="0" fill="#90b247" transform="translate(84.848 -33.694)"><tspan x="423.611" y="255.498">&quot;standard include</tspan><tspan x="423.611" y="271.123">files for &apos;C&apos; code&quot;</tspan></text><text style="line-height:125%;-inkscape-font-specification:'sans-serif Bold';text-align:start" x="423.611" y="302.865" font-weight="700" font-size="12.5" font-family="sans-serif" letter-spacing="0" word-spacing="0" fill="#90b247" transform="translate(84.848 -33.694)"><tspan x="423.611" y="318.49">&quot;obj, bin, lib</tspan><tspan x="423.611" y="334.115">files for coding</tspan><tspan x="423.611" y="349.74">&amp; packages&quot;</tspan></text><path d="M467.243 108.35l-.209 368.041" fill="none" stroke="#000" stroke-width="5"/><text y="174.158" x="409.949" style="line-height:125%;-inkscape-font-specification:'sans-serif Bold'" font-weight="700" font-size="12.5" font-family="sans-serif" letter-spacing="0" word-spacing="0" fill="#003f4c" transform="translate(84.848 -33.694)"><tspan y="174.158" x="409.949">/usr/bin</tspan></text><text y="175.414" x="423.336" style="line-height:125%;-inkscape-font-specification:'sans-serif Bold';text-align:start" font-weight="700" font-size="12.5" font-family="sans-serif" letter-spacing="0" word-spacing="0" fill="#90b247" transform="translate(84.848 -33.694)"><tspan y="191.039" x="423.336">&quot;most user</tspan><tspan y="206.664" x="423.336">commands&quot;</tspan></text><path d="M483.776 134.913h-19.285" fill="none" stroke="#000" stroke-width="5"/><text y="237.996" x="409.949" style="line-height:125%;-inkscape-font-specification:'sans-serif Bold'" font-weight="700" font-size="12.5" font-family="sans-serif" letter-spacing="0" word-spacing="0" fill="#003f4c" transform="translate(84.848 -33.694)"><tspan y="237.996" x="409.949">/usr/include</tspan></text><path d="M483.776 198.75h-19.285" fill="none" stroke="#000" stroke-width="5"/><text y="300.823" x="409.949" style="line-height:125%;-inkscape-font-specification:'sans-serif Bold'" font-weight="700" font-size="12.5" font-family="sans-serif" letter-spacing="0" word-spacing="0" fill="#003f4c" transform="translate(84.848 -33.694)"><tspan y="300.823" x="409.949">/usr/lib</tspan></text><path d="M483.776 261.578h-19.285" fill="none" stroke="#000" stroke-width="5"/><text y="382.945" x="409.949" style="line-height:125%;-inkscape-font-specification:'sans-serif Bold'" font-weight="700" font-size="12.5" font-family="sans-serif" letter-spacing="0" word-spacing="0" fill="#003f4c" transform="translate(84.848 -33.694)"><tspan y="382.945" x="409.949">/usr/local</tspan></text><text y="384.2" x="422.683" style="line-height:125%;-inkscape-font-specification:'sans-serif Bold';text-align:start" font-weight="700" font-size="12.5" font-family="sans-serif" letter-spacing="0" word-spacing="0" fill="#90b247" transform="translate(84.848 -33.694)"><tspan y="399.825" x="422.683">&quot;local software&quot;</tspan></text><path d="M483.776 343.7h-19.285" fill="none" stroke="#000" stroke-width="5"/><text y="413.731" x="441.867" style="line-height:125%;-inkscape-font-specification:'sans-serif Bold'" font-weight="700" font-size="12.5" font-family="sans-serif" letter-spacing="0" word-spacing="0" fill="#003f4c" transform="translate(84.848 -33.694)"><tspan y="413.731" x="441.867">/usr/local/bin</tspan><tspan y="429.356" x="441.867">/usr/local/lib</tspan><tspan y="444.981" x="441.867">/usr/local/man</tspan><tspan y="460.606" x="441.867">/usr/local/sbin</tspan><tspan y="476.231" x="441.867">/usr/local/share</tspan></text><text y="513.148" x="409.949" style="line-height:125%;-inkscape-font-specification:'sans-serif Bold'" font-weight="700" font-size="12.5" font-family="sans-serif" letter-spacing="0" word-spacing="0" fill="#003f4c" transform="translate(84.848 -33.694)"><tspan y="513.148" x="409.949">/usr/share</tspan></text><text y="513.689" x="423.336" style="line-height:125%;-inkscape-font-specification:'sans-serif Bold';text-align:start" font-weight="700" font-size="12.5" font-family="sans-serif" letter-spacing="0" word-spacing="0" fill="#90b247" transform="translate(84.848 -33.694)"><tspan y="529.314" x="423.336">&quot;static data sharable</tspan><tspan y="544.939" x="423.336">accross all architectures&quot;</tspan></text><path d="M483.776 473.903h-19.285" fill="none" stroke="#000" stroke-width="5"/><text y="562.332" x="441.867" style="line-height:125%;-inkscape-font-specification:'sans-serif Bold'" font-weight="700" font-size="12.5" font-family="sans-serif" letter-spacing="0" word-spacing="0" fill="#003f4c" transform="translate(84.848 -33.694)"><tspan y="562.332" x="441.867">/usr/share/man</tspan></text><text y="563.393" x="455.488" style="line-height:125%;-inkscape-font-specification:'sans-serif Bold';text-align:start" font-weight="700" font-size="12.5" font-family="sans-serif" letter-spacing="0" word-spacing="0" fill="#90b247" transform="translate(84.848 -33.694)"><tspan y="579.018" x="455.488">&quot;manual pages&quot;</tspan></text><path d="M551.99 36.865V56.15" fill="none" stroke="#000" stroke-width="5"/><g font-weight="700" font-size="12.5" font-family="sans-serif" letter-spacing="0" word-spacing="0"><text y="114.23" x="279.879" style="line-height:125%;-inkscape-font-specification:'sans-serif Bold'" fill="#003f4c" transform="translate(-70.737 -43.36)"><tspan y="114.23" x="279.879">/etc</tspan></text><text y="115.172" x="225.137" style="line-height:125%;-inkscape-font-specification:'sans-serif Bold';text-align:start" fill="#90b247" transform="translate(-70.737 -43.36)"><tspan y="130.797" x="225.137">&quot;configuration files </tspan><tspan y="146.422" x="225.137">for the system&quot;</tspan></text><text y="164.528" x="251.001" style="line-height:125%;-inkscape-font-specification:'sans-serif Bold'" fill="#bf542e" transform="translate(-70.737 -43.36)"><tspan y="164.528" x="251.001">crontab</tspan><tspan y="180.153" x="251.001">cups</tspan><tspan y="195.778" x="251.001">fonts</tspan><tspan y="211.403" x="251.001">fstab</tspan><tspan y="227.028" x="251.001">host.conf</tspan><tspan y="242.653" x="251.001">hostname</tspan><tspan y="258.278" x="251.001">hosts</tspan><tspan y="273.903" x="251.001">hosts.allow</tspan><tspan y="289.528" x="251.001">hosts.deny</tspan><tspan y="305.153" x="251.001">init</tspan><tspan y="320.778" x="251.001">init.d</tspan><tspan y="336.403" x="251.001">issue</tspan><tspan y="352.028" x="251.001">machine-id</tspan><tspan y="367.653" x="251.001">mtab</tspan><tspan y="383.278" x="251.001">mtools.conf</tspan><tspan y="398.903" x="251.001">nanorc</tspan><tspan y="414.528" x="251.001">networks</tspan><tspan y="430.153" x="251.001">passwd</tspan><tspan y="445.778" x="251.001">profile</tspan><tspan y="461.403" x="251.001">protocols</tspan><tspan y="477.028" x="251.001">resolv.conf</tspan><tspan y="492.653" x="251.001">rpc</tspan><tspan y="508.278" x="251.001">securetty</tspan><tspan y="523.903" x="251.001">services</tspan><tspan y="539.528" x="251.001">shells</tspan><tspan y="555.153" x="251.001">timezone</tspan></text></g><path d="M224.263 36.865V56.15m537.77-19.285V56.15" fill="none" stroke="#000" stroke-width="5"/><text style="line-height:125%;-inkscape-font-specification:'sans-serif Bold'" x="661.818" y="89.835" font-weight="700" font-size="12.5" font-family="sans-serif" letter-spacing="0" word-spacing="0" fill="#003f4c" transform="translate(84.848 -19.974)"><tspan x="661.818" y="89.835">/var</tspan></text><text style="line-height:125%;-inkscape-font-specification:'sans-serif Bold';text-align:start" x="605.315" y="91.754" font-weight="700" font-size="12.5" font-family="sans-serif" letter-spacing="0" word-spacing="0" fill="#90b247" transform="translate(84.848 -19.974)"><tspan x="605.315" y="107.379">&quot;variable data files&quot;</tspan></text><path d="M707.606 97.239l-.566 414.47" fill="none" stroke="#000" stroke-width="5"/><text style="line-height:125%;-inkscape-font-specification:'sans-serif Bold'" x="650.355" y="149.327" font-weight="700" font-size="12.5" font-family="sans-serif" letter-spacing="0" word-spacing="0" fill="#003f4c" transform="translate(84.848 -19.974)"><tspan x="650.355" y="149.327">/var/cache</tspan></text><text style="line-height:125%;-inkscape-font-specification:'sans-serif Bold';text-align:start" x="663.742" y="150.582" font-weight="700" font-size="12.5" font-family="sans-serif" letter-spacing="0" word-spacing="0" fill="#90b247" transform="translate(84.848 -19.974)"><tspan x="663.742" y="166.207">&quot;application </tspan><tspan x="663.742" y="181.832">cache data&quot;</tspan></text><path d="M724.183 123.802h-19.286" fill="none" stroke="#000" stroke-width="5"/><text y="215.041" x="664.017" style="line-height:125%;-inkscape-font-specification:'sans-serif Bold';text-align:start" font-weight="700" font-size="12.5" font-family="sans-serif" letter-spacing="0" word-spacing="0" fill="#90b247" transform="translate(84.848 -19.974)"><tspan y="230.666" x="664.017">&quot;data modified as</tspan><tspan y="246.291" x="664.017">programmes run&quot;</tspan></text><text style="line-height:125%;-inkscape-font-specification:'sans-serif Bold'" x="650.355" y="213.165" font-weight="700" font-size="12.5" font-family="sans-serif" letter-spacing="0" word-spacing="0" fill="#003f4c" transform="translate(84.848 -19.974)"><tspan x="650.355" y="213.165">/var/lib</tspan></text><path d="M724.183 187.64h-19.286" fill="none" stroke="#000" stroke-width="5"/><text y="278.034" x="664.017" style="line-height:125%;-inkscape-font-specification:'sans-serif Bold';text-align:start" font-weight="700" font-size="12.5" font-family="sans-serif" letter-spacing="0" word-spacing="0" fill="#90b247" transform="translate(84.848 -19.974)"><tspan y="293.659" x="664.017">&quot;lock files to track </tspan><tspan y="309.284" x="664.017">resources in use&quot;</tspan></text><text style="line-height:125%;-inkscape-font-specification:'sans-serif Bold'" x="650.355" y="275.992" font-weight="700" font-size="12.5" font-family="sans-serif" letter-spacing="0" word-spacing="0" fill="#003f4c" transform="translate(84.848 -19.974)"><tspan x="650.355" y="275.992">/var/lock</tspan></text><path d="M724.183 250.467h-19.286" fill="none" stroke="#000" stroke-width="5"/><text style="line-height:125%;-inkscape-font-specification:'sans-serif Bold'" x="650.355" y="358.114" font-weight="700" font-size="12.5" font-family="sans-serif" letter-spacing="0" word-spacing="0" fill="#003f4c" transform="translate(84.848 -42.117)"><tspan x="650.355" y="358.114">/var/log</tspan></text><text style="line-height:125%;-inkscape-font-specification:'sans-serif Bold';text-align:start" x="663.089" y="359.369" font-weight="700" font-size="12.5" font-family="sans-serif" letter-spacing="0" word-spacing="0" fill="#90b247" transform="translate(84.848 -42.117)"><tspan x="663.089" y="374.994">&quot;log files&quot;</tspan></text><path d="M724.183 310.446h-19.286" fill="none" stroke="#000" stroke-width="5"/><text y="432.603" x="650.355" style="line-height:125%;-inkscape-font-specification:'sans-serif Bold'" font-weight="700" font-size="12.5" font-family="sans-serif" letter-spacing="0" word-spacing="0" fill="#003f4c" transform="translate(84.848 -19.974)"><tspan y="432.603" x="650.355">/var/spool</tspan></text><text y="433.144" x="663.742" style="line-height:125%;-inkscape-font-specification:'sans-serif Bold';text-align:start" font-weight="700" font-size="12.5" font-family="sans-serif" letter-spacing="0" word-spacing="0" fill="#90b247" transform="translate(84.848 -19.974)"><tspan y="448.769" x="663.742">&quot;tasks waiting to</tspan><tspan y="464.394" x="663.742">be processed&quot;</tspan></text><path d="M724.183 407.077h-19.286" fill="none" stroke="#000" stroke-width="5"/><text y="481.787" x="682.273" style="line-height:125%;-inkscape-font-specification:'sans-serif Bold'" font-weight="700" font-size="12.5" font-family="sans-serif" letter-spacing="0" word-spacing="0" fill="#003f4c" transform="translate(84.848 -19.974)"><tspan y="481.787" x="682.273">/var/spool/cron</tspan><tspan y="497.412" x="682.273">/var/spool/cups</tspan><tspan y="513.037" x="682.273">/var/spool/mail</tspan></text><text style="line-height:125%;-inkscape-font-specification:'sans-serif Bold'" x="650.355" y="375.257" font-weight="700" font-size="12.5" font-family="sans-serif" letter-spacing="0" word-spacing="0" fill="#003f4c" transform="translate(84.848 -19.974)"><tspan x="650.355" y="375.257">/var/opt</tspan></text><text style="line-height:125%;-inkscape-font-specification:'sans-serif Bold';text-align:start" x="663.089" y="376.512" font-weight="700" font-size="12.5" font-family="sans-serif" letter-spacing="0" word-spacing="0" fill="#90b247" transform="translate(84.848 -19.974)"><tspan x="663.089" y="392.137">&quot;variable data for </tspan><tspan x="663.089" y="407.762">installed packages&quot;</tspan></text><path d="M724.183 349.731h-19.286" fill="none" stroke="#000" stroke-width="5"/><text y="535.257" x="649.997" style="line-height:125%;-inkscape-font-specification:'sans-serif Bold'" font-weight="700" font-size="12.5" font-family="sans-serif" letter-spacing="0" word-spacing="0" fill="#003f4c" transform="translate(84.848 -19.974)"><tspan y="535.257" x="649.997">/var/tmp</tspan></text><text y="536.512" x="662.732" style="line-height:125%;-inkscape-font-specification:'sans-serif Bold';text-align:start" font-weight="700" font-size="12.5" font-family="sans-serif" letter-spacing="0" word-spacing="0" fill="#90b247" transform="translate(84.848 -19.974)"><tspan y="552.137" x="662.732">&quot;temporary files saved </tspan><tspan y="567.762" x="662.732">between reboots&quot;</tspan></text><path d="M723.825 509.731H704.54" fill="none" stroke="#000" stroke-width="5"/><text style="line-height:125%;-inkscape-font-specification:'sans-serif Bold'" x="839.816" y="90.038" font-weight="700" font-size="12.5" font-family="sans-serif" letter-spacing="0" word-spacing="0" fill="#003f4c" transform="translate(-485.888 -19.167)"><tspan x="839.816" y="90.038">/sbin</tspan></text><text style="line-height:125%;-inkscape-font-specification:'sans-serif Bold';text-align:start" x="793.801" y="90.98" font-weight="700" font-size="12.5" font-family="sans-serif" letter-spacing="0" word-spacing="0" fill="#90b247" transform="translate(-485.888 -19.167)"><tspan x="793.801" y="106.605">&quot;essential system</tspan><tspan x="793.801" y="122.23">binaries&quot;</tspan></text><text style="line-height:125%;-inkscape-font-specification:'sans-serif Bold'" x="827.697" y="140.335" font-weight="700" font-size="12.5" font-family="sans-serif" letter-spacing="0" word-spacing="0" fill="#bf542e" transform="translate(-485.888 -19.167)"><tspan x="827.697" y="140.335">fdisk</tspan><tspan x="827.697" y="155.96">fsck</tspan><tspan x="827.697" y="171.585">getty</tspan><tspan x="827.697" y="187.21">halt</tspan><tspan x="827.697" y="202.835">ifconfig</tspan><tspan x="827.697" y="218.46">init</tspan><tspan x="827.697" y="234.085">mkfs</tspan><tspan x="827.697" y="249.71">mkswap</tspan><tspan x="827.697" y="265.335">reboot</tspan><tspan x="827.697" y="280.96">route</tspan></text><path d="M370.523 36.865V56.15m543.236 266.03h-19.286" fill="none" stroke="#000" stroke-width="5"/><text style="line-height:125%;-inkscape-font-specification:'sans-serif Bold'" x="982.454" y="392.737" font-weight="700" font-size="12.5" font-family="sans-serif" letter-spacing="0" word-spacing="0" fill="#003f4c" transform="translate(-62.034 -66.016)"><tspan x="982.454" y="392.737">/opt</tspan></text><text style="line-height:125%;-inkscape-font-specification:'sans-serif Bold';text-align:start" x="981.892" y="393.646" font-weight="700" font-size="12.5" font-family="sans-serif" letter-spacing="0" word-spacing="0" fill="#90b247" transform="translate(-62.034 -66.016)"><tspan x="981.892" y="409.271">&quot;optional software</tspan><tspan x="981.892" y="424.896">applications&quot;</tspan></text><path d="M914.473 435.849h-19.285" fill="none" stroke="#000" stroke-width="5"/><text style="line-height:125%;-inkscape-font-specification:'sans-serif Bold'" x="981.393" y="459.354" font-weight="700" font-size="12.5" font-family="sans-serif" letter-spacing="0" word-spacing="0" fill="#003f4c" transform="translate(-60.259 -18.964)"><tspan x="981.393" y="459.354">/root</tspan></text><text style="line-height:125%;-inkscape-font-specification:'sans-serif Bold';text-align:start" x="980.832" y="460.262" font-weight="700" font-size="12.5" font-family="sans-serif" letter-spacing="0" word-spacing="0" fill="#90b247" transform="translate(-60.259 -18.964)"><tspan x="980.832" y="475.887">&quot;home dir. for</tspan><tspan x="980.832" y="491.512">the root user&quot;</tspan></text></svg>